<svg width="320" height="320" viewBox="0 0 320 320" fill="none" xmlns="http://www.w3.org/2000/svg">
<path d="M217.088 235.405L215.642 298.003H212.883L213.056 235.565L217.088 235.405Z" fill="#E0E0E0"/>
<path d="M227.059 234.714L240.486 298.003H243.558L232.39 234.714H227.059Z" fill="#E0E0E0"/>
<path d="M201.901 235.405L187.046 298.003H183.968L197.446 235.155L201.901 235.405Z" fill="#E0E0E0"/>
<path d="M240.851 171.43C240.851 171.43 256.934 170.509 255.328 189.126C253.722 207.744 252.8 226.56 246.822 233.018C240.845 239.475 180.64 239.686 175.578 234.4C170.515 229.114 185.235 229.344 187.994 229.344C190.752 229.344 207.757 230.95 213.274 216.474C218.79 201.997 217.408 170.509 240.851 171.43Z" fill="#F5F5F5"/>
<path d="M241.882 171.437C241.882 171.437 254.176 173.959 253.031 186.829C251.885 199.699 248.659 222.221 242.688 227.962C236.717 233.703 213.299 234.963 200.634 234.17C185.914 233.248 176.64 230.451 176.64 230.451C176.64 230.451 173.952 232.173 174.765 233.287C175.578 234.4 182.752 238.867 217.517 238.125C252.282 237.383 249.863 232.25 251.309 226.65C252.755 221.05 255.789 191.175 255.354 184.608C254.919 178.042 251.629 172.589 241.882 171.437Z" fill="#E0E0E0"/>
<path d="M231.789 196.48C231.85 196.731 231.981 196.96 232.166 197.14C232.351 197.32 232.583 197.445 232.836 197.499C233.088 197.553 233.351 197.536 233.594 197.448C233.837 197.36 234.05 197.205 234.209 197.001C234.369 196.798 234.467 196.554 234.494 196.297C234.521 196.04 234.475 195.78 234.361 195.548C234.247 195.316 234.071 195.121 233.851 194.985C233.632 194.849 233.378 194.777 233.12 194.778C232.721 194.834 232.359 195.042 232.11 195.36C231.862 195.678 231.747 196.079 231.789 196.48Z" fill="#EBEBEB"/>
<path d="M232.697 188.96C232.442 189.763 232.289 190.595 232.243 191.437C232.237 192.341 232.439 193.234 232.832 194.048C233.064 194.513 233.359 194.944 233.709 195.328C233.937 195.526 234.151 195.74 234.349 195.968C234.454 196.114 234.529 196.281 234.568 196.457C234.608 196.632 234.612 196.815 234.579 196.992C234.393 197.565 234.164 198.123 233.894 198.662C233.749 199.166 233.682 199.688 233.696 200.211C233.718 201.105 233.948 201.982 234.368 202.771C234.797 203.496 235.317 204.163 235.917 204.755C235.917 204.755 235.68 204.672 235.328 204.39C234.819 203.982 234.386 203.489 234.048 202.931C233.557 202.099 233.28 201.158 233.241 200.192C233.213 199.616 233.278 199.039 233.433 198.483C233.681 197.964 233.895 197.43 234.073 196.883C234.195 196.378 233.779 196.013 233.357 195.603C232.976 195.175 232.661 194.691 232.422 194.17C232.023 193.291 231.841 192.33 231.891 191.366C231.926 190.724 232.071 190.091 232.32 189.498C232.525 189.146 232.672 188.947 232.697 188.96Z" fill="#EBEBEB"/>
<path d="M229.056 194.285C229.133 194.285 229.056 194.688 229.241 195.258C229.471 195.993 229.942 196.629 230.579 197.062C231.243 197.479 231.99 197.746 232.768 197.843C233.369 197.933 233.76 197.946 233.766 198.016C233.773 198.086 233.382 198.176 232.736 198.163C231.878 198.162 231.04 197.91 230.323 197.44C229.96 197.2 229.649 196.889 229.408 196.526C229.168 196.163 229.002 195.756 228.921 195.328C228.819 194.662 229.005 194.266 229.056 194.285Z" fill="#EBEBEB"/>
<path d="M268.666 298.56L271.066 298.554L267.271 206.791L264.877 206.919L268.666 298.56Z" fill="#E0E0E0"/>
<path d="M135.475 298.662L137.869 298.803L142.374 207.027L139.981 206.88L135.475 298.662Z" fill="#E0E0E0"/>
<path d="M157.779 299.245L160.173 299.392L164.557 208.269L162.17 208.122L157.779 299.245Z" fill="#E0E0E0"/>
<path d="M283.661 298.554H286.061L282.214 206.874L279.821 207.002L283.661 298.554Z" fill="#E0E0E0"/>
<path d="M288.538 205.798H131.405V210.522H288.538V205.798Z" fill="#E0E0E0"/>
<path d="M143.488 175.59L154.72 205.261H205.574L205.197 203.731L184.633 203.155L175.161 175.578L143.488 175.59Z" fill="#EBEBEB"/>
<path d="M166.023 190.394C166.118 190.652 166.161 190.927 166.148 191.203C166.135 191.478 166.067 191.748 165.947 191.996C165.828 192.245 165.66 192.466 165.453 192.649C165.246 192.831 165.004 192.969 164.743 193.056C164.181 193.138 163.61 193.003 163.145 192.678C162.68 192.354 162.356 191.864 162.24 191.309C162.146 191.051 162.104 190.776 162.117 190.501C162.131 190.227 162.199 189.958 162.318 189.71C162.438 189.462 162.606 189.241 162.812 189.06C163.019 188.878 163.259 188.74 163.52 188.653C164.081 188.567 164.653 188.7 165.119 189.024C165.584 189.348 165.908 189.838 166.023 190.394Z" fill="white"/>
<path d="M294.496 298.554C294.496 298.656 233.28 298.733 157.786 298.733C82.2912 298.733 21.0688 298.656 21.0688 298.554C21.0688 298.451 82.2656 298.381 157.786 298.381C233.306 298.381 294.496 298.458 294.496 298.554Z" fill="#263238"/>
<path d="M215.04 80.5376H232.954V55.872H215.04V80.5376Z" fill="#EBEBEB"/>
<path d="M230.138 60.8448C230.138 60.8832 228.858 60.9088 227.277 60.9088C225.696 60.9088 224.41 60.9088 224.41 60.8448C224.41 60.7808 225.69 60.7744 227.277 60.7744C228.864 60.7744 230.138 60.8 230.138 60.8448Z" fill="#263238"/>
<path d="M227.277 64.0767C226.323 64.1706 225.363 64.1706 224.41 64.0767C225.363 63.9914 226.323 63.9914 227.277 64.0767Z" fill="#263238"/>
<path d="M220.384 65.0177C219.433 65.1031 218.475 65.1031 217.523 65.0177C218.475 64.9238 219.433 64.9238 220.384 65.0177Z" fill="#263238"/>
<path d="M221.856 66.3936C220.413 66.4789 218.966 66.4789 217.523 66.3936C218.966 66.3083 220.413 66.3083 221.856 66.3936Z" fill="#263238"/>
<path d="M220.384 68.7423C219.433 68.8277 218.475 68.8277 217.523 68.7423C218.475 68.6484 219.433 68.6484 220.384 68.7423Z" fill="#263238"/>
<path d="M221.856 70.1182C220.413 70.2036 218.966 70.2036 217.523 70.1182C218.966 70.0244 220.413 70.0244 221.856 70.1182Z" fill="#263238"/>
<path d="M220.384 72.3199C219.433 72.4053 218.475 72.4053 217.523 72.3199C218.475 72.226 219.433 72.226 220.384 72.3199Z" fill="#263238"/>
<path d="M221.856 73.6704C220.413 73.7558 218.966 73.7558 217.523 73.6704C218.966 73.5851 220.413 73.5851 221.856 73.6704Z" fill="#263238"/>
<path d="M230.938 66.4766C230.938 66.515 229.478 66.5406 227.674 66.5406C225.869 66.5406 224.41 66.5406 224.41 66.4766C224.41 66.4126 225.875 66.4126 227.674 66.4126C229.472 66.4126 230.938 66.4382 230.938 66.4766Z" fill="#263238"/>
<path d="M226.996 68.8766C226.144 68.9603 225.287 68.9603 224.436 68.8766C225.286 68.7846 226.145 68.7846 226.996 68.8766Z" fill="#263238"/>
<path d="M230.938 71.2702C230.938 71.3086 229.478 71.3406 227.674 71.3406C225.869 71.3406 224.41 71.3406 224.41 71.2702C224.41 71.1998 225.875 71.2062 227.674 71.2062C229.472 71.2062 230.938 71.2382 230.938 71.2702Z" fill="#263238"/>
<path d="M230.938 73.6704C230.938 73.7088 229.478 73.7344 227.674 73.7344C225.869 73.7344 224.41 73.7344 224.41 73.6704C224.41 73.6064 225.875 73.6064 227.674 73.6064C229.472 73.6064 230.938 73.632 230.938 73.6704Z" fill="#263238"/>
<path d="M230.598 76.1599C230.598 76.1983 229.133 76.2303 227.334 76.2303C225.536 76.2303 224.07 76.2303 224.07 76.1599C224.07 76.0895 225.53 76.0959 227.334 76.0959C229.139 76.0959 230.598 76.1599 230.598 76.1599Z" fill="#263238"/>
<path d="M222.304 63.2511C222.304 63.2511 222.304 63.1295 222.304 62.9055C222.304 62.6815 222.304 62.3167 222.304 61.9519C222.304 61.0559 222.304 59.9167 222.272 58.5791L222.33 58.6367H217.658C217.658 58.6367 217.779 58.5087 217.722 58.5727V61.0367C217.722 61.8175 217.722 62.5535 217.722 63.2383L217.664 63.1807L221.03 63.2127H221.99H222.336C222.23 63.2183 222.123 63.2183 222.016 63.2127H221.069H217.664H217.6V63.1551C217.6 62.4703 217.6 61.7343 217.6 60.9535V58.5855L217.67 58.5151H222.343H222.4V58.5727C222.4 59.9231 222.4 61.0751 222.4 61.9775C222.4 62.3423 222.4 62.6495 222.4 62.9247C222.374 63.0352 222.342 63.1442 222.304 63.2511Z" fill="#263238"/>
<path d="M222.304 60.6786C222.219 60.6401 222.137 60.5929 222.061 60.5378L221.421 60.109H221.485L220.045 61.5042H220.013L219.975 61.5426H219.93L219.053 60.9026H219.13L218.061 61.7922C217.929 61.9123 217.785 62.0194 217.632 62.1122C217.747 61.9732 217.875 61.8466 218.016 61.7346L219.053 60.8002L219.085 60.7682H219.13L220.007 61.4082H219.924H219.956C220.461 60.9282 220.935 60.493 221.421 60.0386H221.46L222.068 60.5058C222.154 60.5516 222.234 60.6098 222.304 60.6786Z" fill="#263238"/>
<path d="M220.486 59.6734C220.455 59.5098 220.366 59.3625 220.237 59.2574C220.168 59.2069 220.087 59.1746 220.002 59.1634C219.917 59.1522 219.83 59.1625 219.75 59.1934C219.652 59.2282 219.566 59.2928 219.506 59.3782C219.445 59.4636 219.413 59.5656 219.413 59.6702C219.413 59.7749 219.445 59.8769 219.506 59.9623C219.566 60.0477 219.652 60.1122 219.75 60.147C219.83 60.1779 219.917 60.1883 220.002 60.1771C220.087 60.1659 220.168 60.1336 220.237 60.083C220.364 59.9789 220.452 59.8344 220.486 59.6734C220.486 59.6734 220.563 59.9166 220.294 60.1598C220.212 60.2235 220.115 60.2661 220.013 60.284C219.91 60.3018 219.805 60.2944 219.706 60.2622C219.585 60.2173 219.481 60.137 219.407 60.032C219.333 59.927 219.292 59.802 219.29 59.6734C219.295 59.5594 219.332 59.449 219.394 59.3537C219.457 59.2584 219.544 59.1816 219.647 59.1313C219.749 59.081 219.864 59.0591 219.977 59.0678C220.091 59.0764 220.201 59.1154 220.294 59.1806C220.563 59.4238 220.499 59.6862 220.486 59.6734Z" fill="#263238"/>
<path d="M79.2065 80.5376H97.1201V55.872H79.2065V80.5376Z" fill="#EBEBEB"/>
<path d="M94.3042 60.8448C94.3042 60.8832 93.0242 60.9088 91.4434 60.9088C89.8626 60.9088 88.5762 60.9088 88.5762 60.8448C88.5762 60.7808 89.8562 60.7744 91.4434 60.7744C93.0306 60.7744 94.3042 60.8 94.3042 60.8448Z" fill="#263238"/>
<path d="M91.4434 64.0767C90.49 64.1706 89.5296 64.1706 88.5762 64.0767C89.53 63.9914 90.4895 63.9914 91.4434 64.0767Z" fill="#263238"/>
<path d="M84.5507 65.0177C83.5991 65.1031 82.6416 65.1031 81.6899 65.0177C82.6412 64.9238 83.5995 64.9238 84.5507 65.0177Z" fill="#263238"/>
<path d="M86.0227 66.3934C85.3037 66.4592 84.5812 66.4806 83.8595 66.4574C83.1357 66.4807 82.4111 66.4593 81.6899 66.3934C82.4111 66.3275 83.1357 66.3061 83.8595 66.3294C84.5812 66.3062 85.3037 66.3276 86.0227 66.3934Z" fill="#263238"/>
<path d="M84.5507 68.7423C83.5991 68.8277 82.6416 68.8277 81.6899 68.7423C82.6412 68.6484 83.5995 68.6484 84.5507 68.7423Z" fill="#263238"/>
<path d="M86.0227 70.1181C85.3037 70.184 84.5812 70.2053 83.8595 70.1822C83.1357 70.2054 82.4111 70.1841 81.6899 70.1181C82.4109 70.048 83.1356 70.0245 83.8595 70.0477C84.5814 70.0246 85.3039 70.0481 86.0227 70.1181Z" fill="#263238"/>
<path d="M84.5507 72.3199C83.5991 72.4053 82.6416 72.4053 81.6899 72.3199C82.6412 72.226 83.5995 72.226 84.5507 72.3199Z" fill="#263238"/>
<path d="M86.0227 73.6706C85.3037 73.7364 84.5812 73.7578 83.8595 73.7346C83.1357 73.7579 82.4111 73.7365 81.6899 73.6706C82.4046 73.6033 83.1228 73.5798 83.8403 73.6002C84.5686 73.5783 85.2974 73.6018 86.0227 73.6706Z" fill="#263238"/>
<path d="M95.1042 66.4766C95.1042 66.515 93.645 66.5406 91.8402 66.5406C90.0354 66.5406 88.5762 66.5406 88.5762 66.4766C88.5762 66.4126 90.0418 66.4126 91.8402 66.4126C93.6386 66.4126 95.1042 66.4382 95.1042 66.4766Z" fill="#263238"/>
<path d="M91.1679 68.8768C90.3166 68.96 89.4592 68.96 88.6079 68.8768C89.4588 68.7852 90.317 68.7852 91.1679 68.8768Z" fill="#263238"/>
<path d="M95.1042 71.2702C95.1042 71.3086 93.645 71.3406 91.8402 71.3406C90.0354 71.3406 88.5762 71.3406 88.5762 71.2702C88.5762 71.1998 90.0418 71.2062 91.8402 71.2062C93.6386 71.2062 95.1042 71.2382 95.1042 71.2702Z" fill="#263238"/>
<path d="M95.1042 73.6704C95.1042 73.7088 93.645 73.7344 91.8402 73.7344C90.0354 73.7344 88.5762 73.7344 88.5762 73.6704C88.5762 73.6064 90.0418 73.6064 91.8402 73.6064C93.6386 73.6064 95.1042 73.632 95.1042 73.6704Z" fill="#263238"/>
<path d="M94.7648 76.1599C94.7648 76.1983 93.3056 76.2303 91.5008 76.2303C89.696 76.2303 88.2368 76.2303 88.2368 76.1599C88.2368 76.0895 89.696 76.0959 91.5008 76.0959C93.3056 76.0959 94.7648 76.1599 94.7648 76.1599Z" fill="#263238"/>
<path d="M86.4708 63.2512C86.4708 63.2512 86.4708 63.1296 86.4708 62.9056C86.4708 62.6816 86.4708 62.3168 86.4708 61.952C86.4708 61.056 86.4708 59.9168 86.4708 58.5792L86.5284 58.6368H81.8564L81.9204 58.5728V61.0368C81.9204 61.8176 81.9204 62.5536 81.9204 63.2384L81.8628 63.1808L85.2356 63.2128H86.1892H86.5348C86.4282 63.2186 86.3214 63.2186 86.2148 63.2128H85.2676H81.8628H81.8052V63.1552C81.8052 62.4704 81.8052 61.7344 81.8052 60.9536C81.8052 60.5568 81.8052 60.1536 81.8052 59.744V58.464L81.8756 58.3936H86.5476H86.6116V58.4512C86.6116 59.8016 86.6116 60.9536 86.6116 61.856C86.6116 62.2208 86.6116 62.528 86.6116 62.8032C86.6116 63.0784 86.4708 63.2512 86.4708 63.2512Z" fill="#263238"/>
<path d="M86.4704 60.6786C86.3856 60.6384 86.3043 60.5913 86.2272 60.5378L85.5872 60.109H85.6448L84.2112 61.5042H84.1728L84.1344 61.5426H84.0896L83.2128 60.9026H83.2896L82.2208 61.7922C82.0884 61.9123 81.9448 62.0194 81.792 62.1122C81.9087 61.9753 82.0372 61.849 82.176 61.7346L83.2 60.8002L83.232 60.7682H83.2768L84.1536 61.4082H84.0704H84.1024C84.608 60.9282 85.0816 60.493 85.568 60.0386H85.6H85.632L86.24 60.5058C86.3246 60.5521 86.4022 60.6103 86.4704 60.6786Z" fill="#263238"/>
<path d="M84.6529 59.6734C84.6211 59.5098 84.5327 59.3625 84.4033 59.2574C84.334 59.2069 84.2532 59.1746 84.1682 59.1634C84.0832 59.1522 83.9968 59.1625 83.9169 59.1934C83.8182 59.2282 83.7328 59.2928 83.6723 59.3782C83.6119 59.4636 83.5795 59.5656 83.5795 59.6702C83.5795 59.7749 83.6119 59.8769 83.6723 59.9623C83.7328 60.0477 83.8182 60.1122 83.9169 60.147C83.9968 60.1779 84.0832 60.1883 84.1682 60.1771C84.2532 60.1659 84.334 60.1336 84.4033 60.083C84.5306 59.9789 84.6187 59.8344 84.6529 59.6734C84.6529 59.6734 84.7361 59.9166 84.4609 60.1598C84.3785 60.2235 84.2817 60.2661 84.1791 60.284C84.0765 60.3018 83.9711 60.2944 83.8721 60.2622C83.7516 60.2173 83.6475 60.137 83.5733 60.032C83.4991 59.927 83.4582 59.802 83.4561 59.6734C83.4618 59.5594 83.498 59.449 83.5609 59.3537C83.6237 59.2584 83.7109 59.1816 83.8134 59.1313C83.9159 59.081 84.03 59.0591 84.1439 59.0678C84.2577 59.0764 84.3672 59.1154 84.4609 59.1806C84.7361 59.4238 84.6657 59.6862 84.6529 59.6734Z" fill="#263238"/>
<path d="M140.608 30.5088H138.803V32.3136H140.608V30.5088Z" fill="#4F5D75"/>
<path d="M140.608 57.1328H138.803V58.9376H140.608V57.1328Z" fill="#4F5D75"/>
<path d="M177.619 57.1328H175.814V58.9376H177.619V57.1328Z" fill="#4F5D75"/>
<path d="M140.608 83.3218H138.803V85.1266H140.608V83.3218Z" fill="#4F5D75"/>
<path d="M158.733 30.5088H156.928V32.3136H158.733V30.5088Z" fill="#4F5D75"/>
<path d="M158.733 83.7568H156.928V85.5616H158.733V83.7568Z" fill="#4F5D75"/>
<path d="M177.619 30.5088H175.814V32.3136H177.619V30.5088Z" fill="#4F5D75"/>
<path d="M177.619 83.7568H175.814V85.5616H177.619V83.7568Z" fill="#4F5D75"/>
<path d="M176.838 84.333C176.838 84.333 176.838 84.2434 176.838 84.077V83.3218C176.838 82.6498 176.838 81.6706 176.838 80.4034C176.838 77.8434 176.838 74.1442 176.794 69.4466C176.794 60.0706 176.749 46.7778 176.717 31.085L176.87 31.2386H139.866L140.032 31.0722C140.032 51.0658 140.032 69.5362 140 84.3202L139.866 84.1922L166.746 84.2562L174.202 84.2946H176.166H176.845H176.205H174.285L166.854 84.3266L139.866 84.397H139.731V84.2562C139.731 69.4722 139.731 50.9762 139.699 31.0082V30.8418H139.866H176.87H177.024V30.9954C176.992 46.7266 176.966 60.0514 176.947 69.4594C176.947 74.1378 176.915 77.837 176.909 80.3778C176.909 81.6578 176.909 82.5986 176.909 83.2642V84.0002C176.845 84.2562 176.838 84.333 176.838 84.333Z" fill="#4F5D75"/>
<path d="M175.315 33.5298H141.28V82.4578H175.315V33.5298Z" fill="#E0E0E0"/>
<path d="M162.279 48.4222C160.326 48.6441 158.355 48.6441 156.403 48.4222C158.355 48.2004 160.326 48.2004 162.279 48.4222Z" fill="#263238"/>
<path d="M153.178 49.152C151.808 49.3165 150.428 49.3722 149.05 49.3184C147.672 49.3722 146.291 49.3165 144.922 49.152C146.291 48.9875 147.672 48.9319 149.05 48.9856C150.428 48.9319 151.808 48.9875 153.178 49.152Z" fill="#263238"/>
<path d="M153.178 51.3153C151.808 51.4798 150.428 51.5355 149.05 51.4817C147.672 51.5355 146.291 51.4798 144.922 51.3153C146.291 51.147 147.672 51.0913 149.05 51.1489C150.428 51.0913 151.809 51.147 153.178 51.3153Z" fill="#263238"/>
<path d="M153.178 53.4719C151.809 53.6402 150.428 53.6959 149.05 53.6383C147.672 53.6959 146.291 53.6402 144.922 53.4719C146.291 53.3074 147.672 53.2517 149.05 53.3055C150.428 53.2517 151.808 53.3074 153.178 53.4719Z" fill="#263238"/>
<path d="M153.178 55.6354C151.808 55.7999 150.428 55.8556 149.05 55.8018C147.672 55.8556 146.291 55.7999 144.922 55.6354C146.291 55.4709 147.672 55.4153 149.05 55.469C150.428 55.4153 151.808 55.4709 153.178 55.6354Z" fill="#263238"/>
<path d="M153.178 57.7982C151.808 57.9627 150.428 58.0184 149.05 57.9646C147.672 58.0184 146.291 57.9627 144.922 57.7982C146.291 57.6299 147.672 57.5742 149.05 57.6318C150.428 57.5742 151.809 57.6299 153.178 57.7982Z" fill="#263238"/>
<path d="M153.178 61.6896C151.809 61.8622 150.428 61.92 149.05 61.8624C147.671 61.92 146.291 61.8622 144.922 61.6896C146.291 61.5251 147.672 61.4695 149.05 61.5232C150.428 61.4695 151.808 61.5251 153.178 61.6896Z" fill="#263238"/>
<path d="M153.178 63.8527C151.809 64.0211 150.428 64.0767 149.05 64.0191C147.672 64.0767 146.291 64.0211 144.922 63.8527C146.291 63.6882 147.672 63.6326 149.05 63.6863C150.428 63.6326 151.808 63.6882 153.178 63.8527Z" fill="#263238"/>
<path d="M153.178 66.0158C151.808 66.1803 150.428 66.236 149.05 66.1822C147.672 66.236 146.291 66.1803 144.922 66.0158C146.291 65.8513 147.672 65.7957 149.05 65.8494C150.428 65.7957 151.808 65.8513 153.178 66.0158Z" fill="#263238"/>
<path d="M149.511 68.1791C147.989 68.4009 146.443 68.4009 144.922 68.1791C146.443 67.9572 147.989 67.9572 149.511 68.1791Z" fill="#263238"/>
<path d="M169.664 51.9296C169.664 52.0192 166.695 52.096 163.034 52.096C159.373 52.096 156.403 52.0192 156.403 51.9296C156.403 51.84 159.367 51.7632 163.034 51.7632C166.701 51.7632 169.664 51.84 169.664 51.9296Z" fill="#263238"/>
<path d="M169.85 54.0416C169.85 54.1312 166.88 54.208 163.219 54.208C159.558 54.208 156.589 54.1312 156.589 54.0416C158.788 53.8693 160.995 53.8116 163.2 53.8688C165.418 53.8103 167.638 53.868 169.85 54.0416Z" fill="#263238"/>
<path d="M162.279 58.8798C160.326 59.1016 158.355 59.1016 156.403 58.8798C158.355 58.6579 160.326 58.6579 162.279 58.8798Z" fill="#263238"/>
<path d="M169.664 62.3617C167.458 62.5304 165.245 62.5859 163.034 62.5281C160.822 62.5861 158.609 62.5306 156.403 62.3617C156.403 62.2721 159.367 62.1953 163.034 62.1953C166.701 62.1953 169.664 62.2721 169.664 62.3617Z" fill="#263238"/>
<path d="M169.85 64.4737C169.85 64.5633 166.88 64.6401 163.219 64.6401C159.558 64.6401 156.589 64.5633 156.589 64.4737C158.795 64.305 161.008 64.2495 163.219 64.3073C165.431 64.2495 167.644 64.305 169.85 64.4737Z" fill="#263238"/>
<path d="M162.279 69.6962C160.326 69.918 158.355 69.918 156.403 69.6962C158.355 69.4743 160.326 69.4743 162.279 69.6962Z" fill="#263238"/>
<path d="M169.664 73.203C167.458 73.3717 165.245 73.4272 163.034 73.3694C160.822 73.4275 158.609 73.3719 156.403 73.203C156.403 73.1134 159.367 73.0366 163.034 73.0366C166.701 73.0366 169.664 73.1134 169.664 73.203Z" fill="#263238"/>
<path d="M169.85 75.315C169.85 75.4046 166.88 75.4814 163.219 75.4814C159.558 75.4814 156.589 75.4046 156.589 75.315C158.795 75.1463 161.008 75.0908 163.219 75.1486C165.431 75.0908 167.644 75.1463 169.85 75.315Z" fill="#263238"/>
<path d="M153.428 45.9454C153.412 45.7324 153.412 45.5185 153.428 45.3054C153.428 44.8446 153.428 44.2494 153.389 43.507C153.389 41.939 153.344 39.7822 153.312 37.2094L153.46 37.3566H144.711L144.871 37.1966V41.8046C144.871 43.2702 144.871 44.6526 144.871 45.9326L144.724 45.7854L151.021 45.8622L152.82 45.9006C153.033 45.8958 153.247 45.9065 153.46 45.9326C153.259 45.943 153.058 45.943 152.858 45.9326L151.04 46.0158L144.64 46.0862H144.5V45.9454C144.5 44.6654 144.5 43.283 144.5 41.8174V39.5518C144.5 39.1678 144.5 38.7774 144.5 38.3806V37.2094L144.672 37.0366H153.421H153.6V37.1774C153.6 39.7886 153.549 41.9774 153.53 43.5774C153.53 44.3006 153.498 44.8894 153.492 45.3374C153.481 45.5411 153.459 45.744 153.428 45.9454Z" fill="#263238"/>
<path d="M171.52 40.9086C171.52 41.0046 168.378 41.075 164.48 41.075C160.582 41.075 157.44 41.0046 157.44 40.9086C157.44 40.8126 160.582 40.7422 164.48 40.7422C168.378 40.7422 171.52 40.819 171.52 40.9086Z" fill="#263238"/>
<path d="M164.634 42.9311C163.472 43.0953 162.298 43.151 161.126 43.0975C159.955 43.1513 158.78 43.0956 157.619 42.9311C158.78 42.7627 159.955 42.707 161.126 42.7647C162.298 42.7074 163.473 42.7631 164.634 42.9311Z" fill="#263238"/>
<path d="M159.648 39.123C159.648 39.123 159.437 39.315 159.008 39.4046C158.727 39.4613 158.434 39.4086 158.189 39.2574C158.039 39.1621 157.911 39.0346 157.816 38.8841C157.721 38.7335 157.66 38.5638 157.639 38.387C157.624 38.2107 157.646 38.0332 157.703 37.8657C157.76 37.6983 157.852 37.5445 157.972 37.4142C158.166 37.2054 158.43 37.0737 158.714 37.043C159.2 36.9982 159.444 37.203 159.418 37.235C159.392 37.267 159.143 37.1838 158.778 37.2734C158.56 37.3262 158.365 37.4473 158.221 37.619C158.136 37.7189 158.071 37.835 158.032 37.9604C157.992 38.0857 157.978 38.2177 157.991 38.3486C158.007 38.4768 158.05 38.6001 158.117 38.7104C158.185 38.8207 158.275 38.9155 158.381 38.9886C158.568 39.1179 158.794 39.1789 159.021 39.1614C159.36 39.1486 159.636 39.0718 159.648 39.123Z" fill="#263238"/>
<path d="M162.042 36.9409C161.853 37.7068 161.555 38.4417 161.158 39.1233L161.018 39.4113L160.864 39.1425C160.417 38.4909 160.064 37.78 159.814 37.0305C160.347 37.6043 160.795 38.2508 161.146 38.9505H160.851C161.157 38.2309 161.558 37.5551 162.042 36.9409Z" fill="#263238"/>
<path d="M153.146 45.9458C152.892 45.5813 152.595 45.2483 152.263 44.9538C151.447 44.26 150.421 43.8629 149.351 43.8274C148.281 43.7998 147.244 44.1901 146.458 44.9154C146.141 45.229 145.85 45.5671 145.587 45.9266C145.622 45.8089 145.674 45.6968 145.741 45.5938C145.92 45.3074 146.135 45.045 146.381 44.813C146.774 44.4215 147.243 44.1145 147.759 43.9109C148.276 43.7073 148.828 43.6114 149.383 43.629C150.497 43.6558 151.563 44.0908 152.378 44.8514C152.623 45.0765 152.838 45.3325 153.018 45.613C153.083 45.7137 153.127 45.8271 153.146 45.9458Z" fill="#263238"/>
<path d="M148.314 38.784C148.464 38.6677 148.643 38.5946 148.832 38.5728C149.089 38.5367 149.351 38.5533 149.602 38.6215C149.853 38.6897 150.087 38.8081 150.291 38.9696C150.586 39.2184 150.821 39.5307 150.979 39.8831C151.136 40.2355 151.212 40.619 151.2 41.0048C151.21 41.4629 151.111 41.917 150.912 42.3296C150.799 42.5572 150.637 42.7572 150.438 42.9154C150.239 43.0735 150.007 43.186 149.76 43.2448C149.277 43.3783 148.763 43.3375 148.307 43.1296C147.899 42.9352 147.557 42.6261 147.322 42.24C147.103 41.8845 146.992 41.4733 147.002 41.056C147 40.7004 147.052 40.3466 147.155 40.0064C147.222 39.755 147.34 39.5199 147.5 39.3152C147.661 39.1106 147.861 38.9408 148.09 38.816C148.254 38.7268 148.435 38.6703 148.621 38.6496C148.621 38.6496 148.429 38.7072 148.128 38.8864C147.707 39.1471 147.406 39.5634 147.29 40.0448C147.181 40.3897 147.142 40.7527 147.173 41.1129C147.205 41.473 147.308 41.8234 147.475 42.144C147.706 42.5232 148.053 42.817 148.465 42.9809C148.878 43.1449 149.332 43.1701 149.76 43.0528C149.971 42.9944 150.168 42.8917 150.337 42.7516C150.506 42.6115 150.643 42.4371 150.739 42.24C150.923 41.8544 151.017 41.432 151.014 41.0048C151.027 40.6448 150.961 40.2863 150.821 39.9546C150.681 39.6228 150.469 39.3259 150.202 39.0848C149.819 38.7718 149.331 38.6182 148.838 38.656C148.66 38.6809 148.484 38.7238 148.314 38.784Z" fill="#263238"/>
<path d="M150.112 40.4033C150.14 40.4065 150.165 40.4203 150.183 40.4417C150.201 40.4632 150.21 40.4907 150.208 40.5185C150.208 40.547 150.198 40.5745 150.179 40.5958C150.16 40.617 150.134 40.6306 150.106 40.6337C150.092 40.633 150.078 40.6293 150.065 40.623C150.053 40.6167 150.042 40.6078 150.033 40.597C150.024 40.5862 150.017 40.5737 150.013 40.5602C150.009 40.5467 150.008 40.5325 150.01 40.5185C150.009 40.5042 150.011 40.4899 150.015 40.4764C150.02 40.4628 150.027 40.4504 150.037 40.4397C150.046 40.429 150.058 40.4202 150.071 40.414C150.084 40.4078 150.098 40.4041 150.112 40.4033Z" fill="#263238"/>
<path d="M148.16 40.6782C148.174 40.679 148.188 40.6826 148.201 40.689C148.213 40.6953 148.224 40.7041 148.233 40.7149C148.242 40.7257 148.249 40.7383 148.253 40.7518C148.257 40.7653 148.258 40.7795 148.256 40.7934C148.256 40.8638 148.211 40.915 148.154 40.9086C148.123 40.9086 148.094 40.8965 148.072 40.8749C148.051 40.8533 148.039 40.824 148.039 40.7934C148.039 40.7629 148.051 40.7336 148.072 40.712C148.094 40.6904 148.123 40.6782 148.154 40.6782H148.16Z" fill="#263238"/>
<path d="M147.124 40.1218C147.293 40.0776 147.468 40.0625 147.642 40.077C148.049 40.082 148.455 40.0368 148.852 39.9426C149.242 39.8659 149.596 39.6609 149.856 39.3602C150.036 39.117 150.074 38.9122 150.106 38.9186C150.138 38.925 150.144 39.1362 149.978 39.437C149.722 39.7988 149.337 40.0485 148.903 40.1346C148.484 40.2353 148.051 40.2634 147.623 40.2178C147.451 40.2217 147.281 40.189 147.124 40.1218Z" fill="#263238"/>
<path d="M147.13 41.6898C147.13 41.6898 147.059 41.7474 146.931 41.7346C146.844 41.7218 146.763 41.6824 146.698 41.6217C146.634 41.561 146.59 41.4819 146.573 41.3954C146.562 41.3437 146.564 41.2903 146.577 41.2393C146.59 41.1882 146.615 41.1409 146.65 41.101C146.679 41.0697 146.715 41.045 146.755 41.0285C146.794 41.012 146.837 41.004 146.88 41.005C147.027 41.005 147.072 41.1138 147.046 41.1202C147.021 41.1266 146.97 41.1202 146.893 41.1202C146.848 41.1336 146.811 41.1638 146.788 41.2044C146.765 41.245 146.759 41.2928 146.771 41.3378C146.816 41.6002 147.142 41.6322 147.13 41.6898Z" fill="#263238"/>
<path d="M151.187 41.4914C151.187 41.4466 151.366 41.3314 151.328 41.1458C151.29 40.9602 151.04 40.9602 151.04 40.9026C151.04 40.845 151.085 40.8258 151.194 40.8322C151.268 40.8383 151.338 40.8675 151.394 40.9158C151.45 40.9641 151.49 41.0289 151.507 41.101C151.524 41.1737 151.517 41.2498 151.489 41.3186C151.46 41.3875 151.411 41.4456 151.347 41.485C151.264 41.5362 151.187 41.517 151.187 41.4914Z" fill="#263238"/>
<path d="M149.959 41.7406C149.959 41.7406 149.959 41.8558 149.856 41.971C149.789 42.0507 149.706 42.1157 149.612 42.1619C149.519 42.2082 149.417 42.2347 149.312 42.2398C149.207 42.2484 149.102 42.2358 149.002 42.2029C148.902 42.1699 148.809 42.1172 148.73 42.0478C148.615 41.9454 148.583 41.8494 148.602 41.8366C148.621 41.8238 148.896 42.067 149.299 42.0414C149.703 42.0158 149.914 41.7086 149.959 41.7406Z" fill="#263238"/>
<path d="M149.306 41.6002C149.306 41.5618 149.517 41.4658 149.581 41.197L149.677 41.3186C149.617 41.3262 149.556 41.3204 149.498 41.3016C149.441 41.2827 149.388 41.2514 149.344 41.2098C149.256 41.1312 149.192 41.0298 149.158 40.9169C149.124 40.8039 149.122 40.6838 149.152 40.5698C149.152 40.4162 149.222 40.333 149.248 40.333C149.274 40.333 149.28 40.4354 149.293 40.5762C149.29 40.7454 149.355 40.9088 149.472 41.0306C149.523 41.0772 149.589 41.1044 149.658 41.1074H149.805L149.76 41.229C149.619 41.6002 149.299 41.645 149.306 41.6002Z" fill="#263238"/>
<path d="M148.832 43.7503C148.774 43.7503 148.723 43.6352 148.71 43.4816C148.698 43.328 148.71 43.2063 148.794 43.1999C148.877 43.1935 148.902 43.3151 148.915 43.4687C148.928 43.6223 148.883 43.7439 148.832 43.7503Z" fill="#263238"/>
<path d="M149.818 43.6734C149.767 43.6734 149.709 43.5582 149.703 43.4046C149.696 43.251 149.703 43.123 149.786 43.123C149.869 43.123 149.895 43.2383 149.901 43.3919C149.907 43.5455 149.875 43.667 149.818 43.6734Z" fill="#263238"/>
<path d="M207.188 49.0625H185.389V80.3969H207.188V49.0625Z" fill="#EBEBEB"/>
<path d="M198.784 58.6688C197.534 58.8054 196.272 58.8054 195.021 58.6688C196.272 58.5323 197.534 58.5323 198.784 58.6688Z" fill="#263238"/>
<path d="M192.813 59.4559C191.053 59.5924 189.286 59.5924 187.526 59.4559C189.286 59.3279 191.053 59.3279 192.813 59.4559Z" fill="#263238"/>
<path d="M192.813 60.8446C191.053 60.9726 189.286 60.9726 187.526 60.8446C189.286 60.7081 191.053 60.7081 192.813 60.8446Z" fill="#263238"/>
<path d="M192.813 62.2274C191.053 62.3639 189.286 62.3639 187.526 62.2274C189.286 62.0909 191.053 62.0909 192.813 62.2274Z" fill="#263238"/>
<path d="M190.464 63.6097C189.983 63.7121 189.489 63.7466 188.998 63.7121C188.505 63.7463 188.01 63.7119 187.526 63.6097C188.011 63.5154 188.506 63.4831 188.998 63.5137C189.489 63.483 189.982 63.5153 190.464 63.6097Z" fill="#263238"/>
<path d="M203.52 60.9154C203.52 60.973 201.6 61.0178 199.277 61.0178C196.954 61.0178 195.027 60.973 195.027 60.9154C195.027 60.8578 196.947 60.813 199.277 60.813C201.607 60.813 203.52 60.8578 203.52 60.9154Z" fill="#263238"/>
<path d="M203.635 62.2655C203.635 62.3231 201.715 62.3679 199.392 62.3679C197.069 62.3679 195.143 62.3231 195.143 62.2655C195.143 62.2079 197.063 62.1631 199.392 62.1631C201.722 62.1631 203.635 62.2079 203.635 62.2655Z" fill="#263238"/>
<path d="M198.784 65.3505C197.534 65.487 196.272 65.487 195.021 65.3505C196.272 65.2139 197.534 65.2139 198.784 65.3505Z" fill="#263238"/>
<path d="M203.52 67.597C203.52 67.6546 201.6 67.6994 199.277 67.6994C196.954 67.6994 195.027 67.6546 195.027 67.597C195.027 67.5394 196.947 67.501 199.277 67.501C201.607 67.501 203.52 67.5458 203.52 67.597Z" fill="#263238"/>
<path d="M203.635 68.9471C203.635 69.0047 201.715 69.0495 199.392 69.0495C197.069 69.0495 195.143 69.0047 195.143 68.9471C195.143 68.8895 197.063 68.8511 199.392 68.8511C201.722 68.8511 203.635 68.8959 203.635 68.9471Z" fill="#263238"/>
<path d="M198.784 72.3202C197.534 72.4567 196.272 72.4567 195.021 72.3202C196.272 72.1836 197.534 72.1836 198.784 72.3202Z" fill="#263238"/>
<path d="M203.52 74.5409C203.52 74.5985 201.6 74.6433 199.277 74.6433C196.954 74.6433 195.027 74.5985 195.027 74.5409C195.027 74.4833 196.947 74.4385 199.277 74.4385C201.607 74.4385 203.52 74.4833 203.52 74.5409Z" fill="#263238"/>
<path d="M203.635 75.891C203.635 75.9486 201.715 75.9934 199.392 75.9934C197.069 75.9934 195.143 75.9486 195.143 75.891C195.143 75.8334 197.063 75.7886 199.392 75.7886C201.722 75.7886 203.635 75.8334 203.635 75.891Z" fill="#263238"/>
<path d="M204.685 55.1551C204.685 55.2063 202.675 55.2511 200.205 55.2511C197.735 55.2511 195.725 55.2063 195.725 55.1551C195.725 55.1039 197.735 55.0527 200.205 55.0527C202.675 55.0527 204.685 55.0975 204.685 55.1551Z" fill="#263238"/>
<path d="M200.32 56.448C198.83 56.5753 197.331 56.5753 195.84 56.448C197.331 56.3123 198.83 56.3123 200.32 56.448Z" fill="#263238"/>
<path d="M197.12 54.0094C197.12 54.0094 196.979 54.1246 196.691 54.1886C196.513 54.2199 196.329 54.1859 196.173 54.0926C196.077 54.0314 195.996 53.9498 195.935 53.8535C195.874 53.7573 195.835 53.6488 195.821 53.5358C195.802 53.336 195.859 53.1364 195.982 52.9773C196.104 52.8182 196.282 52.7113 196.48 52.6782C196.787 52.6782 196.947 52.7806 196.928 52.7998C196.909 52.819 196.755 52.7614 196.506 52.7998C196.349 52.8309 196.209 52.9198 196.114 53.049C196.019 53.1781 195.976 53.3382 195.994 53.4974C196.006 53.5813 196.035 53.6618 196.079 53.7343C196.123 53.8068 196.181 53.8699 196.25 53.9198C196.37 53.9972 196.51 54.0352 196.653 54.0286C196.922 54.0286 197.12 53.9774 197.12 54.0094Z" fill="#263238"/>
<path d="M198.637 52.6143C198.503 53.0992 198.309 53.5657 198.061 54.0031L197.971 54.1759L197.882 54.0159C197.597 53.5973 197.369 53.1433 197.203 52.6655C197.543 53.0518 197.83 53.4824 198.054 53.9455H197.875C198.068 53.4696 198.324 53.0218 198.637 52.6143Z" fill="#263238"/>
<path d="M193.28 57.0814C193.273 56.9407 193.273 56.7997 193.28 56.659C193.28 56.3454 193.28 55.9614 193.28 55.5134C193.28 54.4702 193.28 53.0942 193.235 51.475L193.319 51.5646H187.719C187.719 51.5646 187.904 51.3726 187.815 51.4622V54.4126C187.815 55.347 187.815 56.2366 187.815 57.0558L187.731 56.9662L191.763 57.011H192.915H193.331C193.204 57.0199 193.075 57.0199 192.947 57.011H191.821L187.731 57.0494H187.642V56.9598C187.642 56.1406 187.642 55.251 187.642 54.3166C187.642 53.843 187.642 53.363 187.642 52.8638V51.4878C187.552 51.5774 187.763 51.3662 187.744 51.3918H193.344H193.434V51.475C193.434 53.1198 193.402 54.5086 193.389 55.5646C193.389 56.0126 193.389 56.3838 193.389 56.6974C193.362 56.8279 193.326 56.9562 193.28 57.0814Z" fill="#263238"/>
<path d="M189.933 52.7359C190.032 52.6648 190.146 52.6187 190.266 52.6015C190.598 52.5593 190.934 52.6489 191.2 52.8511C191.386 53.0082 191.535 53.2044 191.635 53.4257C191.736 53.6471 191.786 53.888 191.783 54.1311C191.794 54.4233 191.733 54.7137 191.604 54.9759C191.532 55.1198 191.43 55.2467 191.305 55.3482C191.181 55.4497 191.036 55.5235 190.88 55.5647C190.582 55.6418 190.267 55.6213 189.981 55.5061C189.696 55.3909 189.454 55.1871 189.293 54.9247C189.156 54.6947 189.088 54.4306 189.095 54.1631C189.098 53.9465 189.13 53.7312 189.191 53.5231C189.234 53.362 189.31 53.2113 189.413 53.0804C189.517 52.9495 189.646 52.841 189.792 52.7615C189.898 52.7041 190.013 52.6672 190.132 52.6527C190.132 52.6527 190.01 52.6975 189.818 52.8063C189.549 52.9747 189.356 53.2409 189.28 53.5487C189.211 53.7697 189.186 54.0022 189.207 54.2328C189.228 54.4635 189.294 54.6877 189.402 54.8927C189.544 55.1354 189.762 55.3246 190.022 55.431C190.283 55.5374 190.571 55.5552 190.842 55.4815C191.101 55.389 191.322 55.2132 191.47 54.9815C191.619 54.7498 191.686 54.4755 191.661 54.2015C191.671 53.9701 191.63 53.7393 191.54 53.5258C191.451 53.3122 191.315 53.1211 191.143 52.9663C190.9 52.7638 190.587 52.665 190.272 52.6911C190.158 52.6971 190.045 52.7121 189.933 52.7359Z" fill="#263238"/>
<path d="M191.706 54.4895C191.706 54.4895 191.898 54.3935 191.891 54.2015C191.885 54.0095 191.648 53.9775 191.648 53.9519C191.648 53.9263 191.699 53.9007 191.789 53.9519C191.849 53.9668 191.903 53.9999 191.943 54.0467C191.984 54.0935 192.009 54.1517 192.016 54.2133C192.022 54.2749 192.009 54.3369 191.979 54.391C191.948 54.445 191.902 54.4884 191.846 54.5151C191.763 54.5279 191.699 54.5087 191.706 54.4895Z" fill="#263238"/>
<path d="M189.152 54.1762C189.152 54.1762 188.979 54.3106 189.031 54.4962C189.082 54.6818 189.312 54.6626 189.319 54.6882C189.325 54.7138 189.28 54.7458 189.184 54.7458C189.122 54.7442 189.062 54.7237 189.012 54.6872C188.961 54.6506 188.923 54.5996 188.903 54.541C188.885 54.4801 188.886 54.4153 188.905 54.3549C188.925 54.2945 188.962 54.2412 189.011 54.2018C189.088 54.1506 189.152 54.157 189.152 54.1762Z" fill="#263238"/>
<path d="M191.085 54.5662C191.123 54.5662 190.989 54.9182 190.579 54.9758C190.466 55.0001 190.347 54.9863 190.242 54.9366C190.137 54.8868 190.051 54.8039 189.997 54.7006C190.173 54.791 190.368 54.8392 190.567 54.8414C190.893 54.803 191.053 54.5406 191.085 54.5662Z" fill="#263238"/>
<path d="M191.36 53.2351C191.36 53.2351 191.271 53.3311 191.072 53.4079C190.947 53.4449 190.814 53.4449 190.688 53.4079C190.604 53.3885 190.527 53.3458 190.466 53.2847C190.405 53.2236 190.362 53.1465 190.343 53.0623L190.458 53.1007C190.252 53.3014 189.983 53.4237 189.696 53.4463C189.479 53.4463 189.351 53.4463 189.357 53.4015C189.727 53.3866 190.082 53.2468 190.362 53.0047L190.458 52.9087V53.0367C190.473 53.0958 190.504 53.1499 190.547 53.1937C190.589 53.2375 190.642 53.2694 190.701 53.2863C190.808 53.3119 190.92 53.3119 191.028 53.2863C191.213 53.2671 191.36 53.2159 191.36 53.2351Z" fill="#263238"/>
<path d="M192.538 57.0817C192.388 56.8974 192.226 56.7242 192.051 56.5633C191.604 56.2141 191.044 56.039 190.477 56.0705C189.909 56.0727 189.357 56.2641 188.909 56.6145C188.734 56.774 188.578 56.9521 188.442 57.1457C188.442 57.1457 188.442 57.0753 188.512 56.9665C188.603 56.8108 188.715 56.6686 188.845 56.5441C189.296 56.153 189.873 55.9372 190.471 55.9361C191.07 55.9008 191.66 56.1005 192.115 56.4929C192.248 56.6124 192.362 56.7504 192.455 56.9025C192.494 56.9561 192.522 57.0171 192.538 57.0817Z" fill="#263238"/>
<path d="M190.503 54.4896C190.503 54.4896 190.56 54.4192 190.612 54.3232V54.4C190.555 54.3497 190.51 54.2888 190.477 54.2208C190.356 54.0032 190.381 53.792 190.42 53.792C190.458 53.792 190.49 53.9712 190.592 54.1568C190.624 54.2208 190.663 54.2784 190.695 54.3296V54.368C190.612 54.5024 190.509 54.5152 190.503 54.4896Z" fill="#263238"/>
<path d="M191.264 53.9967C191.232 53.9967 191.156 53.9967 191.079 53.9967C191.002 53.9967 190.944 54.0671 190.906 54.0543C190.868 54.0415 190.906 53.8943 191.06 53.8623C191.213 53.8303 191.296 53.9839 191.264 53.9967Z" fill="#263238"/>
<path d="M189.939 54.125C189.939 54.125 189.843 54.125 189.76 54.125C189.677 54.125 189.606 54.125 189.581 54.125C189.555 54.125 189.626 54.0034 189.76 54.0034C189.894 54.0034 189.965 54.0994 189.939 54.125Z" fill="#263238"/>
<path d="M189.581 56.1666C189.44 56.2671 189.285 56.3448 189.12 56.397C188.989 56.4168 188.856 56.3847 188.749 56.3074C188.616 56.2169 188.523 56.0798 188.486 55.9234C188.461 55.8356 188.461 55.7424 188.486 55.6546C188.518 55.5714 188.538 55.5202 188.486 55.4562C188.418 55.38 188.373 55.2857 188.358 55.1846C188.342 55.0836 188.355 54.9801 188.397 54.8866C188.499 54.6818 188.691 54.5858 188.71 54.413C188.73 54.2402 188.71 54.029 188.71 53.8306C188.717 53.6372 188.758 53.4465 188.832 53.2674C188.888 53.1174 188.974 52.9802 189.084 52.8637C189.193 52.7472 189.325 52.6538 189.472 52.589C189.603 52.515 189.75 52.4761 189.901 52.4761C190.051 52.4761 190.199 52.515 190.33 52.589C190.059 52.5127 189.77 52.5308 189.51 52.6402C189.238 52.769 189.027 52.9985 188.922 53.2802C188.86 53.4439 188.827 53.6172 188.826 53.7922C188.826 53.9778 188.877 54.1634 188.826 54.3938C188.774 54.6242 188.557 54.7522 188.493 54.8994C188.461 54.9757 188.452 55.0594 188.465 55.1408C188.479 55.2223 188.515 55.2983 188.57 55.3602C188.595 55.4052 188.608 55.4559 188.608 55.5074C188.608 55.559 188.595 55.6097 188.57 55.6546C188.548 55.7233 188.548 55.7971 188.57 55.8658C188.602 55.9965 188.679 56.1119 188.787 56.1922C188.868 56.2487 188.964 56.279 189.062 56.279C189.161 56.279 189.257 56.2487 189.338 56.1922C189.416 56.1681 189.499 56.1594 189.581 56.1666Z" fill="#263238"/>
<path d="M191.725 56.3199C191.798 56.3137 191.87 56.3137 191.943 56.3199C192.037 56.3258 192.13 56.2962 192.203 56.237C192.277 56.1777 192.325 56.0932 192.34 55.9999C192.38 55.8729 192.38 55.7365 192.34 55.6095C192.324 55.5187 192.342 55.4254 192.391 55.3471C192.435 55.2814 192.466 55.2074 192.48 55.1295C192.517 54.9705 192.492 54.8034 192.41 54.6623C192.327 54.5151 192.186 54.3807 192.077 54.2015C191.942 53.8553 191.831 53.5004 191.744 53.1391C191.687 53.0084 191.599 52.8935 191.487 52.8044C191.376 52.7152 191.244 52.6544 191.104 52.6271C190.833 52.5894 190.559 52.5702 190.285 52.5695C190.563 52.5068 190.852 52.5068 191.13 52.5695C191.287 52.5945 191.436 52.6577 191.563 52.7537C191.691 52.8497 191.792 52.9754 191.86 53.1199C192.013 53.4463 192.013 53.8431 192.199 54.1631C192.288 54.3231 192.436 54.4575 192.532 54.6303C192.581 54.7143 192.614 54.8074 192.627 54.9041C192.64 55.0009 192.634 55.0993 192.608 55.1935C192.564 55.3855 192.416 55.4943 192.461 55.6223C192.506 55.7639 192.506 55.9159 192.461 56.0575C192.424 56.1793 192.348 56.2851 192.244 56.3583C192.161 56.4084 192.062 56.4245 191.968 56.4031C191.881 56.3974 191.797 56.3687 191.725 56.3199Z" fill="#263238"/>
<path d="M190.08 56.0895C190.08 56.0895 190.003 55.9615 189.984 55.7887C189.965 55.6159 189.984 55.4751 190.022 55.4751C190.061 55.4751 190.099 55.6031 190.118 55.7759C190.138 55.9487 190.08 56.0831 190.08 56.0895Z" fill="#263238"/>
<path d="M191.117 55.4368C191.149 55.4368 191.162 55.5776 191.117 55.744C191.072 55.9104 191.04 56.0384 191.002 56.032C190.964 56.0256 190.957 55.8912 191.002 55.7248C191.047 55.5584 191.079 55.4304 191.117 55.4368Z" fill="#263238"/>
<path d="M128.077 49.0625H106.278V80.3969H128.077V49.0625Z" fill="#EBEBEB"/>
<path d="M119.68 58.6688C118.43 58.8054 117.168 58.8054 115.917 58.6688C117.168 58.5323 118.43 58.5323 119.68 58.6688Z" fill="#263238"/>
<path d="M113.702 59.4559C112.825 59.5587 111.942 59.5929 111.059 59.5583C110.177 59.5929 109.293 59.5587 108.416 59.4559C109.294 59.3613 110.177 59.3292 111.059 59.3599C111.941 59.3292 112.825 59.3613 113.702 59.4559Z" fill="#263238"/>
<path d="M113.702 60.8449C112.825 60.9396 111.941 60.9717 111.059 60.9409C110.177 60.9717 109.294 60.9396 108.416 60.8449C109.293 60.7422 110.177 60.708 111.059 60.7425C111.942 60.708 112.825 60.7422 113.702 60.8449Z" fill="#263238"/>
<path d="M113.702 62.2273C112.825 62.33 111.942 62.3642 111.059 62.3297C110.177 62.3642 109.293 62.33 108.416 62.2273C109.293 62.1245 110.177 62.0903 111.059 62.1249C111.942 62.0903 112.825 62.1245 113.702 62.2273Z" fill="#263238"/>
<path d="M111.36 63.6097C110.879 63.7121 110.385 63.7466 109.894 63.7121C109.401 63.7463 108.906 63.7119 108.422 63.6097C108.907 63.5154 109.402 63.4831 109.894 63.5137C110.385 63.483 110.878 63.5153 111.36 63.6097Z" fill="#263238"/>
<path d="M124.403 60.9154C124.403 60.973 122.483 61.0178 120.16 61.0178C117.837 61.0178 115.911 60.973 115.911 60.9154C115.911 60.8578 117.831 60.813 120.16 60.813C122.49 60.813 124.403 60.8578 124.403 60.9154Z" fill="#263238"/>
<path d="M124.525 62.2655C124.525 62.3231 122.605 62.3679 120.275 62.3679C117.946 62.3679 116.032 62.3231 116.032 62.2655C116.032 62.2079 117.952 62.1631 120.275 62.1631C122.599 62.1631 124.525 62.2079 124.525 62.2655Z" fill="#263238"/>
<path d="M119.68 65.3505C118.43 65.487 117.168 65.487 115.917 65.3505C117.168 65.2139 118.43 65.2139 119.68 65.3505Z" fill="#263238"/>
<path d="M124.403 67.597C124.403 67.6546 122.483 67.6994 120.16 67.6994C117.837 67.6994 115.911 67.6546 115.911 67.597C115.911 67.5394 117.831 67.501 120.16 67.501C122.49 67.501 124.403 67.5458 124.403 67.597Z" fill="#263238"/>
<path d="M124.525 68.9471C124.525 69.0047 122.605 69.0495 120.275 69.0495C117.946 69.0495 116.032 69.0047 116.032 68.9471C116.032 68.8895 117.952 68.8511 120.275 68.8511C122.599 68.8511 124.525 68.8959 124.525 68.9471Z" fill="#263238"/>
<path d="M119.68 72.3202C118.43 72.4567 117.168 72.4567 115.917 72.3202C117.168 72.1836 118.43 72.1836 119.68 72.3202Z" fill="#263238"/>
<path d="M124.403 74.5409C124.403 74.5985 122.483 74.6433 120.16 74.6433C117.837 74.6433 115.911 74.5985 115.911 74.5409C115.911 74.4833 117.831 74.4385 120.16 74.4385C122.49 74.4385 124.403 74.4833 124.403 74.5409Z" fill="#263238"/>
<path d="M124.525 75.891C124.525 75.9486 122.605 75.9934 120.275 75.9934C117.946 75.9934 116.032 75.9486 116.032 75.891C116.032 75.8334 117.952 75.7886 120.275 75.7886C122.599 75.7886 124.525 75.8334 124.525 75.891Z" fill="#263238"/>
<path d="M125.575 55.1551C125.575 55.2063 123.565 55.2511 121.095 55.2511C118.624 55.2511 116.615 55.2063 116.615 55.1551C116.615 55.1039 118.631 55.0527 121.095 55.0527C123.559 55.0527 125.575 55.0975 125.575 55.1551Z" fill="#263238"/>
<path d="M121.184 56.448C119.693 56.5753 118.195 56.5753 116.704 56.448C118.194 56.3123 119.694 56.3123 121.184 56.448Z" fill="#263238"/>
<path d="M114.067 57.0498C114.06 56.9091 114.06 56.7681 114.067 56.6274C114.067 56.3138 114.067 55.9298 114.067 55.4818C114.067 54.4386 114.067 53.0626 114.023 51.4434L114.106 51.533H108.499L108.602 51.4306V52.9282C108.602 53.4274 108.602 53.9074 108.602 54.381C108.602 55.3154 108.602 56.205 108.602 57.0242L108.512 56.9346L112.551 56.9794H113.696H114.119C113.991 56.9882 113.862 56.9882 113.735 56.9794H112.608L108.512 57.0242H108.429V56.9346C108.429 56.1154 108.429 55.2258 108.429 54.2914V51.4562C108.339 51.5458 108.551 51.3346 108.525 51.3538H114.131H114.221V51.437C114.221 53.0818 114.189 54.4706 114.176 55.5266C114.176 55.9746 114.176 56.3458 114.176 56.6594C114.149 56.792 114.113 56.9225 114.067 57.0498Z" fill="#263238"/>
<path d="M110.72 52.7042C110.816 52.6286 110.932 52.5819 111.053 52.5698C111.385 52.5276 111.721 52.6172 111.987 52.8194C112.172 52.977 112.32 53.1734 112.421 53.3946C112.522 53.6158 112.573 53.8564 112.57 54.0994C112.579 54.3934 112.518 54.6853 112.391 54.9506C112.318 55.0951 112.215 55.2224 112.09 55.324C111.964 55.4256 111.818 55.499 111.661 55.5394C111.364 55.6171 111.049 55.5968 110.765 55.4815C110.48 55.3662 110.24 55.162 110.08 54.8994C109.941 54.6705 109.872 54.4056 109.882 54.1378C109.882 53.9209 109.915 53.7053 109.978 53.4978C110.021 53.3366 110.097 53.186 110.2 53.0551C110.304 52.9241 110.433 52.8156 110.579 52.7362C110.685 52.6788 110.8 52.6419 110.919 52.6274C110.919 52.6274 110.797 52.6658 110.605 52.781C110.344 52.9458 110.156 53.2047 110.08 53.5042C110.01 53.725 109.984 53.9577 110.005 54.1885C110.026 54.4193 110.093 54.6437 110.202 54.8482C110.344 55.0909 110.562 55.28 110.822 55.3865C111.082 55.4929 111.37 55.5106 111.642 55.437C111.901 55.3445 112.122 55.1686 112.27 54.937C112.418 54.7053 112.486 54.4309 112.461 54.157C112.471 53.9256 112.43 53.6948 112.34 53.4812C112.251 53.2677 112.115 53.0766 111.943 52.9218C111.7 52.7193 111.387 52.6204 111.072 52.6466C110.954 52.6561 110.836 52.6754 110.72 52.7042Z" fill="#263238"/>
<path d="M112.499 54.4578C112.499 54.4578 112.698 54.3618 112.691 54.1698C112.685 53.9778 112.448 53.9458 112.448 53.9202C112.448 53.8946 112.499 53.869 112.589 53.9202C112.65 53.9366 112.705 53.971 112.746 54.019C112.787 54.0669 112.813 54.1262 112.819 54.189C112.826 54.251 112.813 54.3135 112.782 54.3675C112.751 54.4216 112.704 54.4644 112.647 54.4898C112.557 54.4962 112.499 54.477 112.499 54.4578Z" fill="#263238"/>
<path d="M109.952 54.144C109.952 54.144 109.779 54.2784 109.831 54.464C109.882 54.6496 110.112 54.6304 110.119 54.656C110.125 54.6816 110.08 54.7136 109.984 54.7136C109.921 54.7127 109.86 54.692 109.809 54.6543C109.758 54.6167 109.721 54.5641 109.702 54.5039C109.682 54.4437 109.683 54.379 109.702 54.319C109.722 54.259 109.76 54.2067 109.811 54.1696C109.888 54.1184 109.946 54.1248 109.952 54.144Z" fill="#263238"/>
<path d="M111.878 54.5345C111.923 54.5345 111.789 54.8801 111.379 54.9441C110.97 55.0081 110.739 54.6753 110.797 54.6689C110.973 54.7593 111.168 54.8075 111.366 54.8097C111.693 54.7713 111.853 54.5089 111.878 54.5345Z" fill="#263238"/>
<path d="M112.135 53.2033C112.135 53.2033 112.045 53.2994 111.847 53.3698C111.722 53.4091 111.588 53.4091 111.463 53.3698C111.378 53.3511 111.301 53.3086 111.24 53.2474C111.178 53.1861 111.136 53.1087 111.117 53.0242L111.232 53.0626C111.031 53.267 110.763 53.392 110.477 53.4146C110.26 53.4146 110.132 53.4146 110.138 53.3698C110.508 53.3549 110.862 53.215 111.143 52.9729L111.239 52.877V53.005C111.254 53.0644 111.284 53.1188 111.327 53.1627C111.369 53.2065 111.423 53.2382 111.482 53.2546C111.589 53.2828 111.701 53.2828 111.808 53.2546C112 53.2354 112.128 53.1841 112.135 53.2033Z" fill="#263238"/>
<path d="M113.338 57.0497C113.186 56.8674 113.024 56.6943 112.851 56.5313C112.403 56.1831 111.844 56.0082 111.277 56.0385C110.708 56.0407 110.157 56.2321 109.709 56.5825C109.536 56.7454 109.377 56.9231 109.235 57.1137C109.25 57.0498 109.276 56.9891 109.312 56.9345C109.399 56.7764 109.512 56.6337 109.645 56.5121C110.092 56.1094 110.669 55.8821 111.271 55.8721C111.868 55.8371 112.456 56.0369 112.909 56.4289C113.045 56.5467 113.161 56.6849 113.255 56.8385C113.298 56.9016 113.327 56.9738 113.338 57.0497Z" fill="#263238"/>
<path d="M111.302 54.4574C111.302 54.4574 111.36 54.387 111.411 54.291V54.3614C111.361 54.3078 111.318 54.2475 111.283 54.1822C111.162 53.9582 111.187 53.7534 111.226 53.7534C111.264 53.7534 111.296 53.9326 111.398 54.1182C111.43 54.1822 111.469 54.2398 111.501 54.291L111.533 54.3294H111.501C111.411 54.4702 111.309 54.4766 111.302 54.4574Z" fill="#263238"/>
<path d="M112.058 53.9649C112.058 53.9649 111.955 53.9649 111.878 53.9649C111.802 53.9649 111.738 54.0353 111.706 54.0225C111.674 54.0097 111.706 53.8625 111.859 53.8305C112.013 53.7985 112.096 53.9521 112.058 53.9649Z" fill="#263238"/>
<path d="M110.72 54.0928C110.72 54.0928 110.624 54.0928 110.541 54.0928C110.458 54.0928 110.381 54.0928 110.362 54.0928C110.343 54.0928 110.407 53.9712 110.541 53.9712C110.675 53.9712 110.765 54.0608 110.72 54.0928Z" fill="#263238"/>
<path d="M110.855 56.0578C110.823 56.0578 110.778 55.9298 110.759 55.757C110.739 55.5842 110.759 55.4434 110.797 55.4434C110.835 55.4434 110.874 55.5714 110.893 55.7378C110.912 55.9042 110.893 56.0514 110.855 56.0578Z" fill="#263238"/>
<path d="M111.917 55.405C111.917 55.405 111.962 55.5458 111.917 55.7122C111.872 55.8786 111.84 56.0066 111.802 56.0002C111.763 55.9938 111.757 55.8594 111.802 55.693C111.847 55.5266 111.879 55.3986 111.917 55.405Z" fill="#263238"/>
<path d="M109.837 56.4351C109.799 56.4351 109.895 56.0447 109.92 55.5647C109.946 55.0847 109.92 54.7007 109.92 54.6943C110.109 55.2665 110.072 55.889 109.818 56.4351H109.837Z" fill="#263238"/>
<path d="M112.794 56.3199C112.689 56.0113 112.622 55.691 112.595 55.3663C112.526 55.0492 112.502 54.7237 112.525 54.3999C112.637 54.7047 112.706 55.0234 112.73 55.3471C112.795 55.6669 112.817 55.9942 112.794 56.3199Z" fill="#263238"/>
<path d="M136.755 99.3982L138.074 120.787C138.098 121.154 138.261 121.499 138.529 121.751C138.798 122.002 139.152 122.143 139.52 122.144H178.029C178.411 122.142 178.777 121.989 179.047 121.718C179.317 121.447 179.469 121.08 179.469 120.697V104.057C179.469 103.867 179.431 103.679 179.358 103.503C179.285 103.328 179.178 103.168 179.042 103.035C178.907 102.901 178.747 102.795 178.571 102.723C178.395 102.652 178.206 102.616 178.016 102.617L154.336 102.765C154.146 102.766 153.958 102.731 153.782 102.659C153.606 102.588 153.447 102.482 153.312 102.349L149.197 98.2974C149.063 98.1645 148.904 98.0593 148.729 97.988C148.555 97.9166 148.368 97.8803 148.179 97.8814H138.195C138 97.882 137.806 97.9223 137.627 97.9997C137.447 98.0771 137.285 98.1901 137.151 98.3319C137.016 98.4737 136.912 98.6412 136.844 98.8245C136.776 99.0078 136.746 99.2029 136.755 99.3982Z" fill="#4F5D75"/>
<path opacity="0.4" d="M136.755 99.3982L138.074 120.787C138.098 121.154 138.261 121.499 138.529 121.751C138.798 122.002 139.152 122.143 139.52 122.144H178.029C178.411 122.142 178.777 121.989 179.047 121.718C179.317 121.447 179.469 121.08 179.469 120.697V104.057C179.469 103.867 179.431 103.679 179.358 103.503C179.285 103.328 179.178 103.168 179.042 103.035C178.907 102.901 178.747 102.795 178.571 102.723C178.395 102.652 178.206 102.616 178.016 102.617L154.336 102.765C154.146 102.766 153.958 102.731 153.782 102.659C153.606 102.588 153.447 102.482 153.312 102.349L149.197 98.2974C149.063 98.1645 148.904 98.0593 148.729 97.988C148.555 97.9166 148.368 97.8803 148.179 97.8814H138.195C138 97.882 137.806 97.9223 137.627 97.9997C137.447 98.0771 137.285 98.1901 137.151 98.3319C137.016 98.4737 136.912 98.6412 136.844 98.8245C136.776 99.0078 136.746 99.2029 136.755 99.3982Z" fill="black"/>
<path d="M134.323 108.339L137.523 134.579C137.552 134.803 137.662 135.009 137.831 135.158C138.001 135.308 138.219 135.391 138.445 135.392H179.449C179.684 135.393 179.91 135.305 180.082 135.145C180.254 134.986 180.36 134.768 180.377 134.534L182.438 108.294C182.449 108.167 182.433 108.038 182.391 107.917C182.35 107.796 182.284 107.685 182.197 107.59C182.111 107.496 182.006 107.42 181.888 107.369C181.771 107.317 181.645 107.29 181.517 107.29H135.245C135.112 107.289 134.981 107.317 134.861 107.372C134.74 107.426 134.633 107.506 134.546 107.605C134.458 107.705 134.393 107.822 134.355 107.948C134.317 108.075 134.306 108.208 134.323 108.339Z" fill="#4F5D75"/>
<path d="M83.6929 111.136L85.0753 129.331C85.0996 129.643 85.2412 129.934 85.4717 130.145C85.7021 130.357 86.0041 130.473 86.3169 130.47L119.11 130.003C119.272 130.001 119.431 129.968 119.58 129.905C119.728 129.841 119.863 129.749 119.976 129.634C120.089 129.519 120.178 129.382 120.238 129.233C120.298 129.083 120.328 128.923 120.326 128.761L120.122 114.56C120.121 114.395 120.087 114.232 120.021 114.081C119.956 113.93 119.861 113.794 119.741 113.681C119.621 113.568 119.48 113.48 119.325 113.423C119.171 113.366 119.006 113.342 118.842 113.35L98.6753 113.76C98.3497 113.767 98.0346 113.645 97.7985 113.421L94.2465 110.016C94.1311 109.904 93.9948 109.817 93.8453 109.759C93.6959 109.701 93.5364 109.673 93.3761 109.677L84.8769 109.798C84.7097 109.804 84.5455 109.843 84.3941 109.914C84.2428 109.985 84.1075 110.087 83.9967 110.212C83.8858 110.337 83.8017 110.484 83.7495 110.643C83.6972 110.801 83.678 110.969 83.6929 111.136Z" fill="#4F5D75"/>
<path d="M120.079 111.191L84.2485 111.698L84.5513 133.11L120.381 132.603L120.079 111.191Z" fill="#F5F5F5"/>
<path d="M81.4207 113.658L84.4799 135.949C84.5076 136.139 84.6031 136.313 84.7489 136.439C84.8947 136.565 85.081 136.634 85.2735 136.634L120.192 136.134C120.391 136.133 120.582 136.057 120.727 135.92C120.872 135.783 120.96 135.597 120.973 135.398L122.413 113.043C122.42 112.934 122.404 112.825 122.367 112.723C122.33 112.621 122.272 112.527 122.197 112.448C122.122 112.37 122.031 112.307 121.93 112.265C121.83 112.223 121.722 112.203 121.613 112.205L82.2015 112.762C82.0892 112.762 81.9783 112.787 81.8762 112.834C81.7741 112.881 81.6832 112.949 81.6094 113.034C81.5355 113.118 81.4806 113.218 81.448 113.325C81.4155 113.433 81.4062 113.546 81.4207 113.658Z" fill="#4F5D75"/>
<path d="M199.994 109.587L201.344 127.36C201.365 127.665 201.504 127.951 201.73 128.157C201.957 128.363 202.254 128.474 202.56 128.467L234.592 128.019C234.75 128.016 234.906 127.983 235.051 127.92C235.196 127.857 235.327 127.766 235.437 127.653C235.547 127.539 235.634 127.405 235.692 127.258C235.75 127.111 235.779 126.955 235.776 126.796L235.584 112.94C235.577 112.621 235.444 112.317 235.214 112.095C234.984 111.873 234.675 111.751 234.355 111.756L214.656 112.16C214.338 112.165 214.03 112.046 213.798 111.827L210.33 108.505C210.102 108.284 209.796 108.162 209.478 108.166L201.158 108.288C200.995 108.291 200.834 108.329 200.686 108.397C200.537 108.465 200.404 108.564 200.295 108.685C200.186 108.807 200.103 108.95 200.051 109.105C199.999 109.26 199.98 109.424 199.994 109.587Z" fill="#4F5D75"/>
<path opacity="0.4" d="M199.994 109.587L201.344 127.36C201.365 127.665 201.504 127.951 201.73 128.157C201.957 128.363 202.254 128.474 202.56 128.467L234.592 128.019C234.75 128.016 234.906 127.983 235.051 127.92C235.196 127.857 235.327 127.766 235.437 127.653C235.547 127.539 235.634 127.405 235.692 127.258C235.75 127.111 235.779 126.955 235.776 126.796L235.584 112.94C235.577 112.621 235.444 112.317 235.214 112.095C234.984 111.873 234.675 111.751 234.355 111.756L214.656 112.16C214.338 112.165 214.03 112.046 213.798 111.827L210.33 108.505C210.102 108.284 209.796 108.162 209.478 108.166L201.158 108.288C200.995 108.291 200.834 108.329 200.686 108.397C200.537 108.465 200.404 108.564 200.295 108.685C200.186 108.807 200.103 108.95 200.051 109.105C199.999 109.26 199.98 109.424 199.994 109.587Z" fill="black"/>
<path d="M235.533 109.642L200.528 110.137L200.824 131.05L235.828 130.555L235.533 109.642Z" fill="#EBEBEB"/>
<path d="M197.76 112.051L200.742 133.811C200.768 133.999 200.861 134.172 201.005 134.296C201.149 134.419 201.333 134.486 201.523 134.483L235.629 133.997C235.824 133.995 236.011 133.92 236.153 133.785C236.294 133.651 236.379 133.468 236.39 133.273L237.798 111.443C237.807 111.336 237.792 111.229 237.756 111.128C237.721 111.027 237.664 110.935 237.591 110.857C237.517 110.78 237.428 110.718 237.33 110.677C237.231 110.636 237.125 110.615 237.018 110.617L198.515 111.161C198.405 111.163 198.296 111.188 198.196 111.235C198.096 111.282 198.007 111.35 197.936 111.434C197.864 111.519 197.811 111.617 197.781 111.724C197.751 111.83 197.744 111.942 197.76 112.051Z" fill="#4F5D75"/>
<path d="M148.083 139.322L144.64 140.954L141.485 136L143.328 132.16C143.507 131.802 143.693 131.405 143.891 130.95C144.12 130.416 144.257 129.847 144.294 129.267C144.373 128.551 144.356 127.828 144.243 127.117C144.07 126.477 144.749 125.952 145.203 126.323C145.658 126.694 146.176 128.442 145.843 130.554C145.51 132.666 147.955 130.426 148.864 129.626C149.773 128.826 152.704 126.49 153.152 126.579C153.824 126.714 153.792 127.482 152.883 128.256C151.974 129.03 149.344 131.558 149.773 132.026C150.31 132.081 150.815 132.304 151.218 132.664C151.62 133.024 151.898 133.501 152.013 134.029C152.25 135.066 152.435 136.499 151.853 136.973C150.648 137.836 149.389 138.621 148.083 139.322Z" fill="#FFBE9D"/>
<path d="M80.8386 95.1807L80.7554 121.6L92.0898 122.144L92.4162 115.744C92.4162 115.744 96.4418 116.544 97.485 112.8C98.125 110.413 97.9778 91.9551 97.9778 91.9551L80.8386 95.1807Z" fill="#FFBE9D"/>
<path d="M100.538 94.5406C99.7759 96.115 96.1407 99.0206 96.1407 99.0206L94.4959 103.417C93.0751 102.304 91.1551 102.368 90.7967 104.87C90.5343 106.681 92.7871 107.053 92.7871 107.053C91.5071 109.28 90.5855 111.085 88.6783 113.209C86.6111 115.507 85.4783 115.737 83.2127 115.769H80.7423C80.7423 115.769 75.6863 111.545 76.6847 100.409C77.6831 89.2734 87.6863 92.531 90.0735 89.747C93.9647 85.2222 103.091 89.267 100.538 94.5406Z" fill="#263238"/>
<path d="M77.248 109.715H77.5617C77.8627 109.706 78.1624 109.672 78.4576 109.612C79.5412 109.358 80.5402 108.826 81.3569 108.07C82.5314 106.916 83.5221 105.588 84.2945 104.134C85.2545 102.56 86.3041 100.704 88.1345 99.4556C89.0226 98.8803 90.0034 98.4624 91.0337 98.2204C92.0193 97.9644 92.9857 97.8108 93.8945 97.6316C95.5307 97.4209 97.0965 96.8362 98.4704 95.9228C99.3721 95.2677 100.026 94.3273 100.326 93.254C100.418 92.8577 100.452 92.4504 100.429 92.0444C100.429 92.0444 100.429 92.1532 100.461 92.358C100.471 92.6636 100.441 92.9692 100.371 93.2668C100.088 94.3621 99.4375 95.3269 98.528 95.9996C97.1477 96.9315 95.5707 97.5317 93.92 97.7532C92.1152 98.1244 90.0033 98.3932 88.2112 99.5644C86.4192 100.736 85.3889 102.624 84.4225 104.198C83.6405 105.658 82.6365 106.988 81.4465 108.14C80.6141 108.899 79.5964 109.424 78.496 109.664C78.0859 109.751 77.664 109.768 77.248 109.715Z" fill="#455A64"/>
<path d="M87.3345 224.717L91.9425 295.2L102.637 294.016C102.637 294.016 102.899 225.28 102.4 225.344C101.901 225.408 87.3345 224.717 87.3345 224.717Z" fill="#FFBE9D"/>
<path d="M64.9089 224.294L52.8833 294.169L62.3873 295.616L79.0465 227.616L64.9089 224.294Z" fill="#FFBE9D"/>
<path d="M68.4609 180.384L52.0513 274.586L71.0721 278.707L85.5105 200.186L88.7425 276.582H106.406L103.232 177.498L68.4609 180.384Z" fill="#263238"/>
<path d="M71.3281 279.091L51.6865 274.835L51.7377 274.534L68.1857 180.083H68.4353L103.546 177.171V177.504L106.746 276.921H88.4417V276.621L85.3121 203.04L71.3281 279.091ZM52.4225 274.336L70.8161 278.323L85.7089 197.331L89.0497 276.262H106.08L102.925 177.843L68.7297 180.678L52.4225 274.336Z" fill="#263238"/>
<path d="M90.5279 200.09C90.3188 200.144 90.104 200.174 89.8879 200.179L88.1279 200.314C86.6367 200.416 84.5759 200.518 82.3103 200.742C80.0447 200.966 78.0095 201.267 76.5503 201.459L74.7967 201.677C74.5861 201.719 74.3705 201.729 74.1567 201.709C74.3625 201.629 74.5775 201.575 74.7967 201.549C75.2063 201.466 75.8015 201.35 76.5375 201.222C78.0159 200.973 80.0511 200.634 82.3295 200.41C84.6079 200.186 86.6751 200.122 88.1663 200.077C88.9151 200.077 89.5167 200.077 89.9391 200.077C90.1351 200.054 90.3332 200.058 90.5279 200.09Z" fill="#455A64"/>
<path d="M103.604 192.832C103.465 192.9 103.316 192.941 103.162 192.953C102.753 193.014 102.339 193.033 101.927 193.011C100.547 192.948 99.2158 192.486 98.0944 191.68C96.9729 190.875 96.1097 189.761 95.6099 188.473C95.4552 188.09 95.3415 187.691 95.2707 187.283C95.2398 187.133 95.2398 186.979 95.2707 186.829C95.3283 186.829 95.4307 187.469 95.8531 188.377C96.3912 189.587 97.2415 190.632 98.3167 191.405C99.3919 192.177 100.653 192.65 101.972 192.774C102.957 192.883 103.591 192.774 103.604 192.832Z" fill="#455A64"/>
<path d="M106.656 272.64C106.656 272.729 102.662 272.601 97.7471 272.352C92.8319 272.102 88.8447 271.827 88.8511 271.712C88.8575 271.597 92.8447 271.75 97.7663 272C102.688 272.249 106.662 272.544 106.656 272.64Z" fill="#455A64"/>
<path d="M72.2562 273.107C71.9986 273.072 71.7455 273.01 71.501 272.921L69.4786 272.313C67.7698 271.801 65.4082 271.123 62.7714 270.457C60.1346 269.792 57.7282 269.273 55.9874 268.915L53.9138 268.486C53.6574 268.453 53.406 268.388 53.165 268.294C53.4246 268.292 53.6837 268.314 53.9394 268.358C54.4322 268.422 55.149 268.531 56.0258 268.678C57.7858 268.979 60.2114 269.465 62.8546 270.131C65.4978 270.796 67.8594 271.52 69.549 272.089C70.3938 272.371 71.0786 272.614 71.5394 272.8C71.7879 272.878 72.028 272.981 72.2562 273.107Z" fill="#455A64"/>
<path d="M66.7715 186.701H103.987L102.547 156.621C102.311 150.707 102.343 150.003 102.195 144.55C102.195 144.55 107.757 151.264 112.122 155.974C113.411 157.36 115.107 158.299 116.966 158.656C118.824 159.012 120.748 158.768 122.458 157.958L145.325 142.003L141.043 131.053L120.263 143.769C119.309 143.181 111.219 131.641 105.632 126.009C102.057 122.408 97.2329 120.321 92.1603 120.179C87.9468 120.075 83.7311 120.244 79.5395 120.685C76.4862 121.011 73.6423 122.391 71.4975 124.589C69.3527 126.786 68.0412 129.663 67.7891 132.723C67.3795 137.549 67.7059 143.155 67.7059 152.685L66.7715 186.701Z" fill="#455A64"/>
<path d="M72.7555 123.443C69.2483 124.998 54.5923 143.776 53.5555 155.968C52.7811 165.062 70.4707 164.07 70.4707 164.07C70.4707 164.07 71.6739 126.771 71.1491 127.302" fill="#455A64"/>
<path d="M69.1711 126.624C69.1711 126.624 69.1711 126.758 69.1711 127.014C69.1711 127.27 69.1135 127.654 69.0815 128.128C69.0047 129.094 68.9023 130.502 68.8127 132.237C68.6143 135.706 68.4479 140.506 68.2815 145.811C68.1151 151.117 67.9679 155.917 67.7887 159.386C67.7055 161.126 67.6159 162.528 67.5455 163.501C67.5071 163.957 67.4751 164.329 67.4495 164.614C67.4495 164.87 67.4111 165.005 67.4111 165.005C67.4111 165.005 67.4111 164.87 67.4111 164.614C67.4111 164.358 67.4495 163.974 67.4751 163.494C67.5263 162.483 67.5967 161.088 67.6799 159.386C67.8335 155.91 67.9679 151.11 68.1343 145.805C68.3007 140.499 68.4799 135.699 68.7039 132.23C68.8127 130.496 68.9215 129.094 69.0175 128.122C69.0623 127.667 69.1007 127.302 69.1263 127.008C69.1519 126.714 69.1711 126.624 69.1711 126.624Z" fill="#263238"/>
<path d="M67.725 150.553C67.5784 150.799 67.4114 151.033 67.2258 151.251C66.893 151.667 66.4258 152.236 65.8818 152.832C65.3378 153.427 64.8258 153.958 64.4418 154.323C64.2468 154.532 64.0325 154.723 63.8018 154.892C63.9793 154.667 64.1718 154.453 64.3778 154.252C64.749 153.868 65.2482 153.337 65.7922 152.736C66.3362 152.134 66.8098 151.584 67.1554 151.187C67.3307 150.963 67.521 150.751 67.725 150.553Z" fill="#263238"/>
<path d="M119.405 147.469C119.408 147.287 119.434 147.106 119.482 146.931C119.546 146.598 119.648 146.144 119.763 145.651C119.878 145.158 119.994 144.697 120.083 144.371C120.121 144.193 120.177 144.019 120.25 143.853C120.247 144.036 120.221 144.219 120.173 144.397C120.109 144.723 120.013 145.177 119.891 145.677C119.77 146.176 119.667 146.624 119.578 146.957C119.543 147.134 119.485 147.306 119.405 147.469Z" fill="#263238"/>
<path d="M121.491 147.789C121.267 147.116 121.088 146.43 120.954 145.734C120.776 145.048 120.639 144.351 120.544 143.648C120.767 144.321 120.946 145.007 121.082 145.702C121.259 146.389 121.396 147.086 121.491 147.789Z" fill="#263238"/>
<path d="M103.162 145.517L102.95 145.325L102.349 144.742C101.837 144.237 101.069 143.501 100.198 142.56C99.1517 141.463 98.1769 140.3 97.2801 139.078C96.1721 137.582 95.2782 135.938 94.6241 134.195C93.9616 132.448 93.6633 130.583 93.7473 128.717C93.773 127.191 94.1084 125.686 94.7329 124.294C95.1766 123.366 95.8347 122.556 96.6529 121.933C96.8749 121.764 97.1079 121.61 97.3505 121.472C97.4334 121.423 97.5188 121.378 97.6065 121.337C97.6065 121.337 97.2545 121.529 96.6849 121.977C95.8871 122.612 95.2474 123.422 94.8161 124.345C94.2112 125.729 93.8871 127.219 93.8625 128.729C93.7841 130.58 94.0846 132.427 94.7457 134.157C96.1153 137.869 98.5409 140.608 100.262 142.477C101.139 143.424 101.875 144.166 102.381 144.685L102.963 145.286C103.098 145.44 103.162 145.517 103.162 145.517Z" fill="#263238"/>
<path d="M105.818 126.406C105.818 126.496 97.7793 126.573 87.8593 126.573C77.9393 126.573 69.9009 126.496 69.9009 126.406C69.9009 126.317 77.9393 126.24 87.8593 126.24C97.7793 126.24 105.818 126.31 105.818 126.406Z" fill="#263238"/>
<path d="M110.24 131.616C110.24 131.705 100.243 131.782 87.917 131.782C75.5906 131.782 65.5874 131.705 65.5874 131.616C65.5874 131.526 75.5842 131.449 87.917 131.449C100.25 131.449 110.24 131.52 110.24 131.616Z" fill="#263238"/>
<path d="M115.725 137.005C115.725 137.101 103.693 137.171 88.8448 137.171C73.9968 137.171 61.9648 137.101 61.9648 137.005C61.9648 136.909 73.9904 136.838 88.8448 136.838C103.699 136.838 115.725 136.915 115.725 137.005Z" fill="#263238"/>
<path d="M119.495 142.758C119.495 142.848 105.735 142.925 88.7747 142.925C71.8147 142.925 58.0547 142.848 58.0547 142.758C58.0547 142.669 71.8083 142.592 88.7747 142.592C105.741 142.592 119.495 142.662 119.495 142.758Z" fill="#263238"/>
<path d="M102.317 149.408C102.155 149.428 101.993 149.439 101.83 149.44L100.454 149.472L95.3856 149.523L78.6496 149.574L61.9136 149.523L56.8448 149.472L55.4688 149.44C55.3062 149.439 55.1438 149.428 54.9824 149.408C55.1428 149.379 55.3058 149.366 55.4688 149.369H56.8448L61.9136 149.318L78.6496 149.267L95.3856 149.318L100.454 149.369H101.83C101.993 149.366 102.156 149.379 102.317 149.408Z" fill="#263238"/>
<path d="M134.771 149.76C134.771 149.849 128.416 149.926 120.576 149.926C112.736 149.926 106.381 149.849 106.381 149.76C106.381 149.67 112.736 149.593 120.576 149.593C128.416 149.593 134.771 149.67 134.771 149.76Z" fill="#263238"/>
<path d="M125.709 155.693C125.709 155.789 122.624 155.859 118.829 155.859C115.034 155.859 111.949 155.789 111.949 155.693C111.949 155.597 115.027 155.526 118.829 155.526C122.63 155.526 125.709 155.603 125.709 155.693Z" fill="#263238"/>
<path d="M143.399 143.296C143.399 143.385 138.688 143.462 132.883 143.462C127.079 143.462 122.368 143.385 122.368 143.296C122.368 143.206 127.079 143.129 132.883 143.129C138.688 143.129 143.399 143.2 143.399 143.296Z" fill="#263238"/>
<path d="M102.752 156.371C102.752 156.461 91.6739 156.537 78.0163 156.537C64.3587 156.537 53.2803 156.461 53.2803 156.371C53.2803 156.281 64.3523 156.205 78.0163 156.205C91.6803 156.205 102.752 156.281 102.752 156.371Z" fill="#263238"/>
<path d="M103.162 164.102C103.162 164.198 95.085 164.268 85.1266 164.268C75.1682 164.268 67.085 164.198 67.085 164.102C67.085 164.006 75.1618 163.936 85.1266 163.936C95.0914 163.936 103.162 164.012 103.162 164.102Z" fill="#263238"/>
<path d="M103.162 170.336C103.162 170.425 95.085 170.502 85.1266 170.502C75.1682 170.502 67.085 170.425 67.085 170.336C67.085 170.246 75.1618 170.169 85.1266 170.169C95.0914 170.169 103.162 170.24 103.162 170.336Z" fill="#263238"/>
<path d="M103.162 177.497C103.162 177.587 95.085 177.664 85.1266 177.664C75.1682 177.664 67.085 177.587 67.085 177.497C67.085 177.408 75.1618 177.331 85.1266 177.331C95.0914 177.331 103.162 177.401 103.162 177.497Z" fill="#263238"/>
<path d="M143.488 138.822C143.488 138.912 140.192 138.989 136.122 138.989C132.051 138.989 128.755 138.912 128.755 138.822C128.755 138.733 132.051 138.656 136.122 138.656C140.192 138.656 143.488 138.733 143.488 138.822Z" fill="#263238"/>
<path d="M53.0625 292.102L51.4497 298.643L62.5729 299.897L62.9761 293.414L53.0625 292.102Z" fill="#4F5D75"/>
<path d="M58.0863 292.422C58.0758 293.435 57.9535 294.444 57.7215 295.43C57.5962 296.436 57.3623 297.425 57.0239 298.381C57.0349 297.37 57.1572 296.363 57.3887 295.379C57.5146 294.371 57.7485 293.38 58.0863 292.422Z" fill="#263238"/>
<path d="M62.6176 299.181C62.0758 299.169 61.5361 299.109 61.0048 299.001L57.1648 298.432C55.6608 298.201 54.2976 297.971 53.3248 297.792C52.7898 297.714 52.2643 297.581 51.7568 297.395C52.299 297.407 52.8389 297.469 53.3696 297.581L57.2096 298.15C58.7136 298.374 60.0768 298.605 61.0496 298.79C61.5844 298.866 62.1099 298.996 62.6176 299.181Z" fill="#263238"/>
<path d="M103.936 294.995L103.898 293.715L91.7378 294.016L91.8146 298.265L92.5634 298.297C95.9042 298.406 109.536 298.617 111.763 297.894C114.247 297.075 103.936 294.995 103.936 294.995Z" fill="#4F5D75"/>
<g opacity="0.4">
<path d="M96.2243 298.061C96.0315 297.037 95.4603 296.123 94.6243 295.501C93.8139 294.88 92.7992 294.587 91.7827 294.681L91.8595 298.061H96.2243Z" fill="white"/>
</g>
<g opacity="0.4">
<path d="M108.979 296.192C108.979 296.192 112.595 297.152 112.179 297.753C111.763 298.355 97.9585 298.656 91.8657 298.259V297.984L107.949 297.773C107.949 297.773 108.275 296.237 108.979 296.192Z" fill="white"/>
</g>
<path d="M91.6738 297.984H91.8786H92.4738L94.6754 298.035C96.525 298.035 99.0914 298.035 101.92 298.003C104.749 297.971 107.315 297.83 109.165 297.728L111.36 297.6L111.955 297.549H112.16H111.949H111.354L109.159 297.638C107.309 297.722 104.749 297.811 101.92 297.875C99.0914 297.939 96.5314 297.946 94.6754 297.946H91.8786C91.8094 297.953 91.7409 297.966 91.6738 297.984Z" fill="#263238"/>
<path d="M107.943 297.958C108.034 297.593 108.164 297.239 108.333 296.902C108.542 296.589 108.787 296.301 109.063 296.044C108.689 296.189 108.384 296.467 108.205 296.825C107.985 297.159 107.892 297.561 107.943 297.958Z" fill="#263238"/>
<path d="M104.32 296.23C104.352 296.23 104.519 296.038 104.685 295.756C104.809 295.597 104.894 295.41 104.935 295.212C104.896 295.212 104.73 295.398 104.564 295.68C104.397 295.961 104.32 296.211 104.32 296.23Z" fill="#263238"/>
<path d="M103.354 295.731C103.354 295.763 103.571 295.635 103.776 295.443C103.981 295.251 104.122 295.072 104.09 295.04C104.058 295.008 103.878 295.142 103.674 295.334C103.469 295.526 103.328 295.68 103.354 295.731Z" fill="#263238"/>
<path d="M102.713 294.611C102.92 294.677 103.138 294.699 103.353 294.675C103.705 294.675 103.993 294.636 103.993 294.592C103.788 294.523 103.569 294.501 103.353 294.528C102.995 294.534 102.707 294.566 102.713 294.611Z" fill="#263238"/>
<path d="M102.483 293.811C102.704 293.92 102.944 293.984 103.189 293.997C103.434 294.01 103.68 293.973 103.911 293.888C103.674 293.852 103.433 293.839 103.194 293.85C102.959 293.811 102.721 293.798 102.483 293.811Z" fill="#263238"/>
<path d="M104.729 295.168C104.986 295.211 105.248 295.211 105.504 295.168C105.785 295.127 106.061 295.061 106.329 294.97C106.492 294.918 106.649 294.849 106.797 294.765C106.888 294.711 106.955 294.624 106.982 294.522C106.993 294.464 106.988 294.405 106.966 294.35C106.945 294.296 106.908 294.249 106.861 294.214C106.667 294.126 106.456 294.082 106.244 294.086C106.031 294.089 105.822 294.139 105.631 294.233C105.44 294.326 105.272 294.461 105.14 294.627C105.007 294.793 104.913 294.987 104.864 295.194C104.864 295.322 104.864 295.398 104.864 295.398C104.939 295.167 105.054 294.95 105.203 294.758C105.369 294.551 105.591 294.396 105.843 294.31C106.146 294.203 106.48 294.219 106.771 294.355C106.893 294.445 106.848 294.592 106.713 294.675C106.575 294.753 106.429 294.818 106.278 294.867C106.02 294.963 105.754 295.04 105.485 295.098C105.024 295.136 104.729 295.142 104.729 295.168Z" fill="#263238"/>
<path d="M104.96 295.2C105.052 295.037 105.082 294.845 105.043 294.662C105.014 294.459 104.937 294.267 104.819 294.099C104.753 293.987 104.659 293.893 104.548 293.826C104.436 293.759 104.309 293.721 104.179 293.715C104.101 293.735 104.034 293.783 103.991 293.851C103.948 293.919 103.933 294.001 103.949 294.08C103.972 294.203 104.02 294.321 104.09 294.425C104.196 294.594 104.323 294.749 104.467 294.886C104.717 295.116 104.909 295.206 104.915 295.187C104.922 295.168 104.762 295.052 104.538 294.816C104.412 294.673 104.3 294.519 104.205 294.355C104.096 294.195 104.013 293.9 104.205 293.862C104.397 293.824 104.602 294.028 104.723 294.176C104.833 294.327 104.911 294.499 104.954 294.681C104.973 294.853 104.975 295.027 104.96 295.2Z" fill="#263238"/>
<path d="M91.8467 294.675C91.8467 294.675 92.1923 294.637 92.7363 294.675C93.4488 294.739 94.1293 295.001 94.7011 295.43C95.2754 295.867 95.7183 296.454 95.9811 297.126C96.1795 297.638 96.2051 297.984 96.2307 297.984C96.2445 297.904 96.2445 297.821 96.2307 297.741C96.2062 297.523 96.1568 297.308 96.0835 297.101C95.8528 296.395 95.4126 295.776 94.8215 295.327C94.2304 294.878 93.5164 294.619 92.7747 294.586C92.562 294.561 92.3473 294.561 92.1347 294.586C92.0342 294.599 91.9368 294.629 91.8467 294.675Z" fill="#263238"/>
<path d="M97.7153 296.851C98.8856 297.054 100.083 297.039 101.248 296.806C101.248 296.768 100.455 296.806 99.4817 296.845C98.5089 296.883 97.7217 296.813 97.7153 296.851Z" fill="#263238"/>
<path d="M95.3603 296.902C95.3283 296.902 95.4243 297.068 95.5075 297.248C95.5907 297.427 95.6419 297.587 95.6867 297.58C95.7315 297.574 95.7443 297.388 95.6419 297.184C95.5395 296.979 95.3603 296.87 95.3603 296.902Z" fill="#263238"/>
<path d="M94.4321 295.808C94.4321 295.84 94.4897 295.962 94.6177 296.09C94.7457 296.218 94.8673 296.288 94.8993 296.262C94.9313 296.237 94.8417 296.109 94.7137 295.981C94.5857 295.853 94.4641 295.782 94.4321 295.808Z" fill="#263238"/>
<path d="M93.1456 295.334C93.1456 295.373 93.3184 295.366 93.4976 295.424C93.6768 295.481 93.8048 295.578 93.8368 295.546C93.8688 295.514 93.76 295.354 93.5424 295.29C93.3248 295.226 93.1328 295.296 93.1456 295.334Z" fill="#263238"/>
<path d="M92.2368 295.11C92.2368 295.149 92.288 295.213 92.3904 295.245C92.4928 295.277 92.5888 295.283 92.6016 295.245C92.6144 295.206 92.544 295.149 92.4416 295.11C92.3392 295.072 92.2496 295.072 92.2368 295.11Z" fill="#263238"/>
</svg>
