<svg width="435" height="435" viewBox="0 0 435 435" fill="none" xmlns="http://www.w3.org/2000/svg">
<path d="M189.656 171.663L189.083 172.531C188.909 172.783 188.727 173.009 188.553 173.243C188.197 173.712 187.824 174.111 187.451 174.589C186.696 175.457 185.932 176.325 185.116 177.089C183.484 178.656 181.744 180.107 179.908 181.429C178.074 182.75 176.144 183.934 174.135 184.97C173.12 185.465 172.113 185.977 171.062 186.394L169.491 187.019L169.048 187.184C168.805 187.262 168.58 187.349 168.311 187.41C167.786 187.541 167.246 187.602 166.705 187.592C165.673 187.585 164.659 187.332 163.745 186.854C163.01 186.47 162.334 185.982 161.74 185.404C160.797 184.475 159.983 183.424 159.318 182.279C158.181 180.298 157.253 178.203 156.549 176.03C155.183 171.932 154.207 167.715 153.632 163.434L157.26 162.636C157.92 164.537 158.597 166.499 159.344 168.391C160.09 170.283 160.837 172.167 161.705 173.955C162.495 175.681 163.436 177.334 164.517 178.894C164.947 179.541 165.464 180.125 166.054 180.63C166.223 180.769 166.414 180.881 166.618 180.96C166.739 180.96 166.731 180.96 166.67 180.96H166.609L166.896 180.821L168.189 180.196C169.057 179.779 169.882 179.328 170.715 178.825C172.359 177.84 173.947 176.765 175.472 175.604C176.977 174.422 178.406 173.146 179.751 171.785C180.428 171.125 181.071 170.422 181.687 169.71C181.991 169.354 182.295 168.998 182.555 168.643L182.972 168.113L183.31 167.662L189.656 171.663Z" fill="#B97964"/>
<path d="M179.143 171.29L183.544 181.845L180.359 183.833L175.411 174.259L179.143 171.29Z" fill="#263238"/>
<path d="M191.6 162.401C184.421 162.306 177.13 171.394 176.948 171.62L182.624 184.97C182.624 184.97 195.254 174.719 195.888 170.709C196.548 166.533 196.149 162.462 191.6 162.401Z" fill="#345881"/>
<path opacity="0.3" d="M191.6 162.401C184.421 162.306 177.13 171.394 176.948 171.62L182.624 184.97C182.624 184.97 195.254 174.719 195.888 170.709C196.548 166.533 196.149 162.462 191.6 162.401Z" fill="black"/>
<path d="M156.67 161.256L151.705 157.393L150.698 164.997C150.698 164.997 155.525 166.889 158.094 165.249L158.024 163.86C157.999 163.354 157.864 162.86 157.631 162.41C157.397 161.961 157.07 161.567 156.67 161.256Z" fill="#B97964"/>
<path d="M145.091 157.011L145.403 162.783L150.724 164.997L151.731 157.393L145.091 157.011Z" fill="#B97964"/>
<path d="M253.891 160.639L261.564 158.721L256.2 153.243C256.2 153.243 251.226 155.275 252.441 159.615L253.891 160.639Z" fill="#B97964"/>
<path d="M265.374 157.358L264.741 151.334L256.156 153.243L261.52 158.721L265.374 157.358Z" fill="#B97964"/>
<path d="M228.865 353.699L221.721 354.385L215.757 337.528L222.901 336.833L228.865 353.699Z" fill="#B97964"/>
<path d="M305.339 318.257L300.079 323.362L286.555 312.806L291.824 307.702L305.339 318.257Z" fill="#B97964"/>
<path d="M298.56 322.372L302.605 315.193C302.673 315.07 302.783 314.976 302.916 314.928C303.048 314.88 303.194 314.882 303.325 314.933L309.471 317.311C309.623 317.377 309.759 317.475 309.871 317.597C309.983 317.719 310.068 317.863 310.12 318.021C310.173 318.178 310.191 318.344 310.175 318.509C310.159 318.674 310.108 318.834 310.026 318.978C308.577 321.461 307.752 322.58 305.973 325.74C304.879 327.684 302.744 332.137 301.233 334.82C299.723 337.502 296.988 336.148 297.379 334.898C299.115 329.282 298.82 326.148 298.351 323.665C298.265 323.223 298.339 322.765 298.56 322.372Z" fill="#263238"/>
<path d="M220.297 352.198H228.978C229.134 352.201 229.284 352.254 229.408 352.35C229.531 352.445 229.621 352.577 229.663 352.727L231.556 359.611C231.604 359.773 231.612 359.945 231.581 360.112C231.55 360.279 231.48 360.436 231.377 360.57C231.274 360.705 231.14 360.813 230.987 360.886C230.834 360.959 230.666 360.995 230.497 360.991C227.45 360.939 225.966 360.757 222.138 360.757C219.785 360.757 212.12 361.008 208.865 361.008C205.61 361.008 205.02 357.788 206.339 357.536C212.242 356.225 217.224 354.429 219.039 352.71C219.374 352.38 219.827 352.196 220.297 352.198Z" fill="#263238"/>
<path d="M215.766 337.528L218.831 346.226H226.226L222.91 336.833L215.766 337.528Z" fill="#A76755"/>
<path d="M291.832 307.702L286.563 312.815L293.534 318.249L298.803 313.145L291.832 307.702Z" fill="#A76755"/>
<path d="M184.612 164.719C184.612 164.719 181.661 166.967 201.548 205.777L229.898 196.619C225.697 185.239 223.388 178.13 221.218 152.671C217.012 153.136 212.847 153.905 208.753 154.971C204.375 156.073 200.075 157.462 195.88 159.129C190.463 161.455 184.612 164.719 184.612 164.719Z" fill="#345881"/>
<path opacity="0.3" d="M184.612 164.719C184.612 164.719 181.661 166.967 201.548 205.777L229.898 196.619C225.697 185.239 223.388 178.13 221.218 152.671C217.012 153.136 212.847 153.905 208.753 154.971C204.375 156.073 200.075 157.462 195.88 159.129C190.463 161.455 184.612 164.719 184.612 164.719Z" fill="black"/>
<path d="M202.754 140.883C203.275 145.292 204.916 153.139 208.709 154.971C208.709 154.971 208.926 159.537 201.235 162.019C192.772 164.754 195.836 159.129 195.836 159.129C200.098 156.525 198.865 153.139 197.025 150.188L202.754 140.883Z" fill="#B97964"/>
<path d="M188.527 162.618C190.619 161.533 193.284 160.214 195.836 159.146C200.037 157.448 204.353 156.053 208.753 154.971C211.226 154.294 213.726 153.79 215.836 153.435C216.035 154.025 215.436 155.553 213.969 157.662C209.325 161.516 199.421 166.525 192.121 166.342C188.927 165.153 188.128 163.894 188.527 162.618Z" fill="#B97964"/>
<path d="M213.961 157.662C210.808 161.889 207.039 165.619 202.78 168.729C199.154 168.288 195.581 167.488 192.112 166.342C199.378 166.525 209.282 161.516 213.961 157.662Z" fill="#263238"/>
<path d="M200.419 144.676L197.025 150.171C197.469 150.856 197.849 151.579 198.163 152.332C199.847 151.507 201.991 149.068 201.583 147.124C201.34 146.246 200.947 145.418 200.419 144.676Z" fill="#A76755"/>
<path d="M204.473 132.74C204.907 140.006 205.254 143.07 202.06 147.219C197.26 153.452 188.241 152.428 185.637 145.414C183.302 139.12 182.981 128.296 189.691 124.581C191.165 123.752 192.826 123.314 194.518 123.308C196.209 123.301 197.873 123.727 199.354 124.544C200.835 125.361 202.082 126.543 202.978 127.978C203.874 129.412 204.388 131.051 204.473 132.74Z" fill="#B97964"/>
<path d="M218.823 119.719C220.464 112.502 215.943 105.32 208.725 103.679C201.508 102.038 194.326 106.559 192.685 113.776C191.044 120.994 195.565 128.176 202.782 129.817C210 131.458 217.182 126.937 218.823 119.719Z" fill="#263238"/>
<path d="M202.407 122.567C205.167 124.39 206.539 127.185 205.471 128.808C204.404 130.431 201.296 130.275 198.527 128.452C195.758 126.629 194.395 123.834 195.463 122.211C196.531 120.588 199.638 120.744 202.407 122.567Z" fill="#345881"/>
<path opacity="0.6" d="M202.407 122.567C205.167 124.39 206.539 127.185 205.471 128.808C204.404 130.431 201.296 130.275 198.527 128.452C195.758 126.629 194.395 123.834 195.463 122.211C196.531 120.588 199.638 120.744 202.407 122.567Z" fill="#FAFAFA"/>
<path d="M200.94 137.697C201.66 136.03 199.152 131.083 199.69 129.234C198.249 127.888 183.64 132.645 184.82 129.173C185.949 125.84 189.508 121.421 197.633 123.27C206.313 125.249 207.068 132.758 206.096 135.154C205.124 137.549 203.744 140.041 203.744 140.041L200.94 137.697Z" fill="#263238"/>
<path d="M206.383 139.112C206.401 140.518 205.864 141.875 204.89 142.888C203.579 144.216 201.999 143.261 201.591 141.542C201.218 139.997 201.461 137.437 203.145 136.76C203.516 136.615 203.918 136.566 204.313 136.617C204.708 136.668 205.084 136.817 205.406 137.052C205.728 137.286 205.987 137.597 206.157 137.957C206.328 138.317 206.405 138.714 206.383 139.112Z" fill="#B97964"/>
<path d="M201.548 205.777C201.548 205.777 188.406 269.873 195.732 291.01C203.353 312.997 215.758 343.691 215.758 343.691L227.346 343.031C227.346 343.031 217.797 304.247 215.445 286.73C212.225 262.582 226.018 197.913 226.018 197.913L201.548 205.777Z" fill="#345881"/>
<path opacity="0.6" d="M201.548 205.777C201.548 205.777 188.406 269.873 195.732 291.01C203.353 312.997 215.758 343.691 215.758 343.691L227.346 343.031C227.346 343.031 217.797 304.247 215.445 286.73C212.225 262.582 226.018 197.913 226.018 197.913L201.548 205.777Z" fill="#FAFAFA"/>
<path d="M228.257 343.309L214.846 344.082L212.693 338.804L227.484 337.268L228.257 343.309Z" fill="#345881"/>
<path opacity="0.2" d="M228.257 343.309L214.846 344.082L212.693 338.804L227.484 337.268L228.257 343.309Z" fill="black"/>
<path d="M215.445 210.708C213.431 218.155 215.115 229.318 218.917 237.148C219.846 231.072 220.835 225.186 221.773 219.917C219.82 216.141 217.667 212.791 215.445 210.708Z" fill="#345881"/>
<path opacity="0.4" d="M215.445 210.708C213.431 218.155 215.115 229.318 218.917 237.148C219.846 231.072 220.835 225.186 221.773 219.917C219.82 216.141 217.667 212.791 215.445 210.708Z" fill="#FAFAFA"/>
<path d="M209.03 203.355C209.03 203.355 228.544 249.995 241.469 275.602C251.885 296.314 290.539 317.988 290.539 317.988L297.483 310.627C297.483 310.627 268.595 284.977 261.39 270.932C238.335 225.976 243.074 206.341 229.915 196.619L209.03 203.355Z" fill="#345881"/>
<path opacity="0.6" d="M209.03 203.355C209.03 203.355 228.544 249.995 241.469 275.602C251.885 296.314 290.539 317.988 290.539 317.988L297.483 310.627C297.483 310.627 268.595 284.977 261.39 270.932C238.335 225.976 243.074 206.341 229.915 196.619L209.03 203.355Z" fill="#FAFAFA"/>
<path d="M298.776 309.577L289.228 319.725L283.187 316.548L294.185 305.333L298.776 309.577Z" fill="#345881"/>
<path opacity="0.2" d="M298.776 309.577L289.228 319.725L283.187 316.548L294.185 305.333L298.776 309.577Z" fill="black"/>
<path d="M229.785 194.823L231.877 196.949C232.042 197.114 231.877 197.392 231.547 197.496L201.817 207.045C201.556 207.131 201.305 207.045 201.235 206.914L200.167 204.467C200.089 204.293 200.263 204.076 200.541 203.98L229.247 194.719C229.338 194.688 229.435 194.681 229.53 194.7C229.624 194.718 229.712 194.76 229.785 194.823Z" fill="#263238"/>
<path d="M226.981 199.275L227.745 199.032C227.901 198.98 227.988 198.859 227.953 198.772L226.53 195.586C226.53 195.5 226.321 195.465 226.174 195.508L225.401 195.76C225.254 195.76 225.158 195.925 225.202 196.02L226.625 199.197C226.651 199.293 226.808 199.328 226.981 199.275Z" fill="#345881"/>
<path opacity="0.6" d="M226.981 199.275L227.745 199.032C227.901 198.98 227.988 198.859 227.953 198.772L226.53 195.586C226.53 195.5 226.321 195.465 226.174 195.508L225.401 195.76C225.254 195.76 225.158 195.925 225.202 196.02L226.625 199.197C226.651 199.293 226.808 199.328 226.981 199.275Z" fill="#FAFAFA"/>
<path d="M204.065 206.671L204.838 206.42C204.985 206.368 205.081 206.255 205.037 206.159L203.614 202.982C203.57 202.887 203.414 202.852 203.258 202.904L202.485 203.147C202.338 203.199 202.242 203.312 202.286 203.408L203.709 206.585C203.753 206.68 203.909 206.715 204.065 206.671Z" fill="#345881"/>
<path opacity="0.6" d="M204.065 206.671L204.838 206.42C204.985 206.368 205.081 206.255 205.037 206.159L203.614 202.982C203.57 202.887 203.414 202.852 203.258 202.904L202.485 203.147C202.338 203.199 202.242 203.312 202.286 203.408L203.709 206.585C203.753 206.68 203.909 206.715 204.065 206.671Z" fill="#FAFAFA"/>
<path d="M215.515 202.973L216.278 202.722C216.435 202.722 216.53 202.557 216.487 202.461L215.063 199.284C215.02 199.189 214.855 199.154 214.707 199.206L213.935 199.458C213.787 199.501 213.692 199.623 213.735 199.71L215.159 202.895C215.202 202.945 215.259 202.979 215.324 202.994C215.388 203.008 215.455 203.001 215.515 202.973Z" fill="#345881"/>
<path opacity="0.6" d="M215.515 202.973L216.278 202.722C216.435 202.722 216.53 202.557 216.487 202.461L215.063 199.284C215.02 199.189 214.855 199.154 214.707 199.206L213.935 199.458C213.787 199.501 213.692 199.623 213.735 199.71L215.159 202.895C215.202 202.945 215.259 202.979 215.324 202.994C215.388 203.008 215.455 203.001 215.515 202.973Z" fill="#FAFAFA"/>
<path d="M193.779 136.091C193.848 136.673 193.597 137.193 193.215 137.237C192.833 137.28 192.459 136.846 192.39 136.256C192.32 135.666 192.572 135.154 192.954 135.11C193.336 135.067 193.709 135.501 193.779 136.091Z" fill="#263238"/>
<path d="M187.138 136.898C187.216 137.489 186.956 138.001 186.574 138.044C186.192 138.088 185.819 137.654 185.749 137.072C185.68 136.49 185.932 135.97 186.314 135.917C186.695 135.865 187.051 136.282 187.138 136.898Z" fill="#263238"/>
<path d="M186.487 135.935L185.029 135.7C185.029 135.7 185.888 136.716 186.487 135.935Z" fill="#263238"/>
<path d="M189.022 137.697C188.659 139.099 188.107 140.445 187.381 141.699C187.708 141.873 188.069 141.976 188.438 142C188.808 142.023 189.179 141.968 189.525 141.838L189.022 137.697Z" fill="#A24E3F"/>
<path d="M191.852 143.895C191.81 143.895 191.769 143.88 191.737 143.853C191.705 143.826 191.684 143.788 191.678 143.747C191.675 143.7 191.69 143.654 191.718 143.618C191.747 143.581 191.788 143.556 191.834 143.547C192.566 143.475 193.27 143.231 193.889 142.836C194.509 142.441 195.027 141.905 195.402 141.273C195.411 141.252 195.425 141.233 195.442 141.217C195.459 141.201 195.479 141.188 195.501 141.18C195.523 141.172 195.546 141.168 195.569 141.169C195.592 141.17 195.615 141.176 195.636 141.186C195.657 141.197 195.675 141.211 195.69 141.228C195.706 141.245 195.717 141.265 195.724 141.287C195.732 141.309 195.735 141.332 195.733 141.355C195.731 141.378 195.725 141.4 195.714 141.421C195.32 142.11 194.766 142.695 194.098 143.126C193.43 143.556 192.669 143.82 191.878 143.895H191.852Z" fill="#263238"/>
<path d="M194.603 134.008C194.52 134.007 194.44 133.976 194.378 133.921C194.057 133.624 193.67 133.409 193.248 133.292C192.827 133.176 192.384 133.162 191.956 133.253C191.911 133.266 191.865 133.27 191.819 133.265C191.773 133.26 191.728 133.245 191.688 133.223C191.647 133.2 191.612 133.17 191.583 133.133C191.555 133.096 191.534 133.054 191.522 133.01C191.509 132.966 191.505 132.92 191.51 132.874C191.515 132.829 191.53 132.785 191.552 132.745C191.575 132.705 191.606 132.67 191.642 132.643C191.679 132.615 191.721 132.595 191.765 132.584C192.303 132.466 192.862 132.478 193.395 132.618C193.927 132.758 194.419 133.024 194.829 133.392C194.862 133.424 194.888 133.462 194.906 133.505C194.924 133.547 194.933 133.593 194.933 133.639C194.933 133.685 194.924 133.731 194.906 133.773C194.888 133.816 194.862 133.854 194.829 133.886C194.772 133.953 194.691 133.997 194.603 134.008Z" fill="#263238"/>
<path d="M183.709 134.207C183.658 134.22 183.604 134.22 183.553 134.207C183.473 134.163 183.413 134.09 183.385 134.003C183.358 133.915 183.365 133.821 183.405 133.739C183.643 133.242 183.995 132.81 184.433 132.476C184.87 132.142 185.381 131.918 185.923 131.82C186.014 131.811 186.105 131.837 186.176 131.894C186.248 131.951 186.294 132.033 186.305 132.124C186.311 132.17 186.308 132.216 186.296 132.261C186.284 132.305 186.263 132.347 186.235 132.383C186.206 132.419 186.171 132.45 186.131 132.472C186.091 132.495 186.047 132.509 186.001 132.515C185.572 132.595 185.169 132.776 184.825 133.043C184.481 133.31 184.205 133.656 184.022 134.051C183.988 134.103 183.941 134.144 183.887 134.172C183.832 134.199 183.77 134.211 183.709 134.207Z" fill="#263238"/>
<path d="M226.981 159.45L227.311 159.867L227.719 160.362C227.997 160.691 228.283 161.03 228.587 161.36C229.186 162.028 229.811 162.688 230.479 163.313C231.788 164.596 233.171 165.802 234.62 166.924C236.092 168.039 237.618 169.079 239.195 170.04C239.984 170.518 240.792 170.969 241.608 171.412L242.849 172.045L243.448 172.349C243.595 172.419 243.743 172.488 243.882 172.54C244.325 172.725 244.8 172.822 245.279 172.827C245.721 172.801 246.144 172.644 246.495 172.375C247.658 171.411 248.577 170.186 249.177 168.799C249.983 167.127 250.631 165.383 251.113 163.591C251.649 161.763 252.093 159.908 252.441 158.035L256.147 158.27C256.263 162.543 255.653 166.805 254.342 170.873C253.97 171.983 253.491 173.053 252.91 174.068C252.265 175.225 251.432 176.266 250.444 177.149C249.269 178.193 247.832 178.898 246.286 179.189C244.784 179.451 243.241 179.344 241.79 178.877C241.451 178.781 241.139 178.66 240.818 178.538L240.063 178.226L238.587 177.609C237.606 177.167 236.643 176.741 235.696 176.203C233.797 175.201 231.967 174.073 230.219 172.827C228.468 171.564 226.801 170.19 225.228 168.712C224.447 167.966 223.691 167.176 222.954 166.36C222.589 165.943 222.224 165.492 221.877 165.092L221.348 164.407C221.165 164.164 221.026 163.973 220.783 163.625L226.981 159.45Z" fill="#B97964"/>
<path d="M233.136 164.025L227.702 173.148L225.054 170.648L230.071 161.507L233.136 164.025Z" fill="#263238"/>
<path d="M221.252 152.671C224.377 152.619 231.964 161.577 231.964 161.577L225.367 173.061C225.367 173.061 216.964 165.656 216.973 161.603C216.981 157.375 217.693 152.775 221.252 152.671Z" fill="#345881"/>
<path opacity="0.3" d="M221.252 152.671C224.377 152.619 231.964 161.577 231.964 161.577L225.367 173.061C225.367 173.061 216.964 165.656 216.973 161.603C216.981 157.375 217.693 152.775 221.252 152.671Z" fill="black"/>
<path d="M297.136 326.27C296.894 326.26 296.663 326.172 296.476 326.018C296.389 325.96 296.32 325.879 296.275 325.784C296.231 325.689 296.213 325.584 296.225 325.48C296.303 324.542 298.655 323.31 298.915 323.171C298.944 323.152 298.977 323.142 299.011 323.142C299.045 323.142 299.078 323.152 299.106 323.171C299.132 323.192 299.152 323.221 299.163 323.253C299.173 323.285 299.175 323.32 299.167 323.353C298.898 324.29 298.299 325.905 297.431 326.191C297.338 326.235 297.238 326.261 297.136 326.27ZM298.707 323.665C297.787 324.186 296.615 325.002 296.572 325.488C296.565 325.535 296.573 325.583 296.595 325.625C296.616 325.667 296.651 325.701 296.693 325.723C296.774 325.802 296.875 325.857 296.985 325.883C297.095 325.909 297.21 325.905 297.318 325.87C297.796 325.731 298.299 324.915 298.707 323.683V323.665Z" fill="#345881"/>
<path d="M296.815 323.995C296.433 324.028 296.052 323.933 295.73 323.726C295.625 323.636 295.555 323.513 295.529 323.377C295.504 323.241 295.526 323.101 295.591 322.98C295.638 322.854 295.713 322.74 295.811 322.648C295.909 322.557 296.026 322.489 296.155 322.45C297.162 322.112 299.002 323.127 299.08 323.171C299.109 323.186 299.132 323.208 299.149 323.236C299.166 323.263 299.175 323.295 299.176 323.327C299.175 323.357 299.166 323.386 299.151 323.411C299.136 323.437 299.114 323.459 299.089 323.474C298.38 323.818 297.602 323.996 296.815 323.995ZM296.632 322.728C296.509 322.726 296.386 322.744 296.268 322.78C296.188 322.805 296.114 322.848 296.053 322.905C295.991 322.962 295.943 323.032 295.912 323.11C295.825 323.318 295.912 323.405 295.912 323.466C296.303 323.796 297.744 323.657 298.568 323.318C297.967 322.999 297.31 322.798 296.632 322.728Z" fill="#345881"/>
<path d="M216.443 353.639C215.836 353.69 215.228 353.547 214.707 353.231C214.571 353.131 214.46 353 214.383 352.849C214.306 352.698 214.266 352.532 214.265 352.363C214.254 352.271 214.269 352.178 214.307 352.094C214.346 352.01 214.406 351.938 214.482 351.885C215.272 351.347 218.24 352.701 218.822 352.97C218.855 352.987 218.882 353.013 218.899 353.046C218.917 353.079 218.923 353.116 218.917 353.153C218.914 353.188 218.9 353.221 218.877 353.248C218.853 353.274 218.822 353.293 218.787 353.3C218.019 353.492 217.234 353.605 216.443 353.639ZM215.055 352.137C214.937 352.126 214.82 352.151 214.716 352.206C214.69 352.224 214.669 352.249 214.657 352.279C214.645 352.308 214.641 352.34 214.647 352.371C214.65 352.485 214.678 352.597 214.731 352.697C214.784 352.798 214.859 352.886 214.95 352.953C215.636 353.474 217.268 353.274 218.223 353.1C217.221 352.622 216.153 352.297 215.055 352.137Z" fill="#345881"/>
<path d="M218.787 353.335H218.718C217.737 352.936 215.758 351.347 215.87 350.523C215.87 350.34 216.009 350.115 216.461 350.063C218.197 349.837 218.926 353.005 218.952 353.135C218.959 353.166 218.958 353.199 218.949 353.229C218.94 353.26 218.923 353.287 218.9 353.309C218.866 353.329 218.826 353.338 218.787 353.335ZM216.617 350.392H216.504C216.322 350.392 216.218 350.471 216.209 350.557C216.148 351.026 217.511 352.293 218.518 352.832C218.301 352.085 217.659 350.392 216.617 350.392Z" fill="#345881"/>
<path d="M193.128 135.119L191.669 134.885C191.669 134.885 192.529 135.9 193.128 135.119Z" fill="#263238"/>
<path d="M138.823 74.4604C137.287 76.3875 128.824 78.6531 122.096 78.0281C119.779 93.2361 127.877 110.744 127.877 110.744C127.877 110.744 145.455 108.652 145.889 101.413C146.323 94.1736 138.823 74.4604 138.823 74.4604Z" fill="#345881"/>
<path opacity="0.4" d="M138.823 74.4604C137.287 76.3875 128.824 78.6531 122.096 78.0281C119.779 93.2361 127.877 110.744 127.877 110.744C127.877 110.744 145.455 108.652 145.889 101.413C146.323 94.1736 138.823 74.4604 138.823 74.4604Z" fill="#FAFAFA"/>
<path d="M271.885 62.8894C273.456 65.1029 281.433 67.299 287.605 66.1532C290.912 84.1563 284.784 105.545 284.784 105.545C284.784 105.545 268.404 104.086 267.423 95.4842C266.442 86.882 271.885 62.8894 271.885 62.8894Z" fill="#345881"/>
<path opacity="0.4" d="M271.885 62.8894C273.456 65.1029 281.433 67.299 287.605 66.1532C290.912 84.1563 284.784 105.545 284.784 105.545C284.784 105.545 268.404 104.086 267.423 95.4842C266.442 86.882 271.885 62.8894 271.885 62.8894Z" fill="#FAFAFA"/>
<path d="M156.67 218.807C156.545 218.825 156.418 218.818 156.296 218.787C156.173 218.756 156.058 218.701 155.957 218.625C155.856 218.549 155.772 218.454 155.708 218.345C155.644 218.236 155.602 218.116 155.585 217.991L134.969 71.7522C134.952 71.6231 134.961 71.4919 134.996 71.3664C135.031 71.2409 135.091 71.1236 135.172 71.0216C135.253 70.9196 135.353 70.8349 135.468 70.7725C135.582 70.7101 135.708 70.6714 135.837 70.6585C135.963 70.6414 136.09 70.6491 136.213 70.6813C136.335 70.7135 136.45 70.7695 136.551 70.8461C136.651 70.9226 136.736 71.0183 136.8 71.1276C136.864 71.2369 136.905 71.3577 136.922 71.4831L157.538 217.713C157.555 217.842 157.546 217.973 157.511 218.099C157.476 218.224 157.417 218.341 157.336 218.443C157.255 218.545 157.154 218.63 157.04 218.693C156.925 218.755 156.8 218.794 156.67 218.807Z" fill="#345881"/>
<path opacity="0.2" d="M156.67 218.807C156.545 218.825 156.418 218.818 156.296 218.787C156.173 218.756 156.058 218.701 155.957 218.625C155.856 218.549 155.772 218.454 155.708 218.345C155.644 218.236 155.602 218.116 155.585 217.991L134.969 71.7522C134.952 71.6231 134.961 71.4919 134.996 71.3664C135.031 71.2409 135.091 71.1236 135.172 71.0216C135.253 70.9196 135.353 70.8349 135.468 70.7725C135.582 70.7101 135.708 70.6714 135.837 70.6585C135.963 70.6414 136.09 70.6491 136.213 70.6813C136.335 70.7135 136.45 70.7695 136.551 70.8461C136.651 70.9226 136.736 71.0183 136.8 71.1276C136.864 71.2369 136.905 71.3577 136.922 71.4831L157.538 217.713C157.555 217.842 157.546 217.973 157.511 218.099C157.476 218.224 157.417 218.341 157.336 218.443C157.255 218.545 157.154 218.63 157.04 218.693C156.925 218.755 156.8 218.794 156.67 218.807Z" fill="black"/>
<path d="M254.906 207.939C255.035 207.956 255.166 207.946 255.292 207.912C255.417 207.877 255.534 207.817 255.637 207.736C255.739 207.655 255.823 207.555 255.886 207.44C255.948 207.326 255.987 207.2 256 207.071L276.659 60.841C276.677 60.7156 276.671 60.5877 276.64 60.4648C276.609 60.3419 276.554 60.2264 276.478 60.1248C276.402 60.0232 276.307 59.9375 276.198 59.8727C276.089 59.808 275.968 59.7653 275.843 59.7472C275.714 59.7303 275.583 59.7395 275.457 59.7743C275.332 59.8091 275.214 59.8687 275.112 59.9497C275.01 60.0307 274.926 60.1313 274.863 60.2456C274.801 60.36 274.762 60.4857 274.749 60.6153L254.09 206.845C254.055 207.098 254.121 207.354 254.274 207.559C254.426 207.764 254.653 207.9 254.906 207.939Z" fill="#345881"/>
<path opacity="0.2" d="M254.906 207.939C255.035 207.956 255.166 207.946 255.292 207.912C255.417 207.877 255.534 207.817 255.637 207.736C255.739 207.655 255.823 207.555 255.886 207.44C255.948 207.326 255.987 207.2 256 207.071L276.659 60.841C276.677 60.7156 276.671 60.5877 276.64 60.4648C276.609 60.3419 276.554 60.2264 276.478 60.1248C276.402 60.0232 276.307 59.9375 276.198 59.8727C276.089 59.808 275.968 59.7653 275.843 59.7472C275.714 59.7303 275.583 59.7395 275.457 59.7743C275.332 59.8091 275.214 59.8687 275.112 59.9497C275.01 60.0307 274.926 60.1313 274.863 60.2456C274.801 60.36 274.762 60.4857 274.749 60.6153L254.09 206.845C254.055 207.098 254.121 207.354 254.274 207.559C254.426 207.764 254.653 207.9 254.906 207.939Z" fill="black"/>
<path d="M134.145 74.8423L138.051 103.557C138.075 103.738 138.138 103.913 138.235 104.067C138.333 104.222 138.463 104.354 138.616 104.454C138.77 104.554 138.943 104.619 139.124 104.646C139.305 104.672 139.49 104.659 139.666 104.607C148.398 102.107 196.956 89.6424 271.547 97.5762C271.863 97.6128 272.182 97.5285 272.44 97.3402C272.697 97.152 272.874 96.8736 272.935 96.5606C274.342 89.2865 276.763 68.5664 277.38 63.2627C277.417 62.9283 277.321 62.5929 277.113 62.3283C276.905 62.0637 276.602 61.8912 276.269 61.8478C266.252 60.5805 197.876 53.0025 135.022 73.4535C134.737 73.5476 134.494 73.7376 134.334 73.9909C134.175 74.2442 134.108 74.5451 134.145 74.8423Z" fill="#345881"/>
<path opacity="0.6" d="M134.145 74.8423L138.051 103.557C138.075 103.738 138.138 103.913 138.235 104.067C138.333 104.222 138.463 104.354 138.616 104.454C138.77 104.554 138.943 104.619 139.124 104.646C139.305 104.672 139.49 104.659 139.666 104.607C148.398 102.107 196.956 89.6424 271.547 97.5762C271.863 97.6128 272.182 97.5285 272.44 97.3402C272.697 97.152 272.874 96.8736 272.935 96.5606C274.342 89.2865 276.763 68.5664 277.38 63.2627C277.417 62.9283 277.321 62.5929 277.113 62.3283C276.905 62.0637 276.602 61.8912 276.269 61.8478C266.252 60.5805 197.876 53.0025 135.022 73.4535C134.737 73.5476 134.494 73.7376 134.334 73.9909C134.175 74.2442 134.108 74.5451 134.145 74.8423Z" fill="#FAFAFA"/>
<path d="M146.67 79.8596L150.785 78.9915L153.693 86.5521L154.431 78.2537L158.536 77.3857L162.139 84.7987L162.191 76.6478L166.288 75.7798L165.75 90.4496L161.505 91.3177L157.434 82.9671L156.566 92.3072L152.321 93.1753L146.67 79.8596Z" fill="#FAFAFA"/>
<path d="M168.302 75.6235L180.012 73.8875L180.394 76.9082L173.068 77.9846L173.354 80.2415L180.151 79.2432L180.515 82.1338L173.719 83.132L174.031 85.9358L181.574 84.8334L181.982 88.0451L170.055 89.7812L168.302 75.6235Z" fill="#FAFAFA"/>
<path d="M182.989 73.549L187.382 73.0715L188.319 83.8092L195.168 83.0713L195.48 86.5435L184.196 87.7587L182.989 73.549Z" fill="#FAFAFA"/>
<path d="M206.2 79.9116L210.115 80.7797C209.953 81.7824 209.583 82.7403 209.03 83.5921C208.522 84.3589 207.83 84.9858 207.016 85.415C206.041 85.8847 204.981 86.1506 203.9 86.1962C202.609 86.3338 201.304 86.1947 200.072 85.7882C199.005 85.327 198.099 84.5597 197.468 83.5834C196.637 82.3065 196.188 80.8187 196.174 79.2953C195.947 77.2967 196.521 75.2894 197.772 73.7138C198.442 73.0026 199.248 72.4339 200.143 72.0417C201.038 71.6494 202.003 71.4417 202.98 71.4309C204.453 71.2383 205.949 71.5115 207.259 72.2121C208.41 72.977 209.276 74.0997 209.724 75.4065L205.879 76.5523C205.773 76.2181 205.612 75.9041 205.402 75.6235C205.136 75.3082 204.796 75.0637 204.412 74.9117C203.788 74.6569 203.093 74.636 202.455 74.8529C201.817 75.0699 201.279 75.51 200.94 76.0923C200.518 76.9843 200.359 77.9776 200.48 78.9568C200.555 80.5366 200.844 81.6043 201.348 82.1598C201.61 82.4367 201.933 82.6479 202.292 82.7761C202.651 82.9043 203.036 82.946 203.414 82.8977C203.77 82.8933 204.121 82.8137 204.444 82.6641C204.767 82.5145 205.055 82.2983 205.289 82.0296C205.769 81.4132 206.083 80.684 206.2 79.9116Z" fill="#FAFAFA"/>
<path d="M211.721 78.2538C211.653 77.2553 211.784 76.2533 212.106 75.3056C212.428 74.358 212.934 73.4836 213.596 72.7331C214.306 72.0344 215.149 71.4854 216.075 71.1186C217.001 70.7518 217.991 70.5746 218.987 70.5977C219.975 70.4992 220.973 70.6023 221.921 70.9007C222.868 71.1991 223.745 71.6866 224.499 72.3338C225.175 73.0366 225.701 73.8706 226.043 74.7842C226.384 75.6979 226.536 76.6719 226.487 77.6461C226.562 79.0718 226.294 80.4947 225.705 81.7954C225.174 82.8787 224.339 83.7836 223.301 84.3995C222.094 85.0735 220.734 85.4262 219.351 85.4238C217.986 85.5197 216.617 85.2999 215.35 84.7814C214.26 84.2804 213.351 83.4561 212.746 82.4204C212.034 81.1496 211.68 79.7097 211.721 78.2538ZM216.122 78.1323C216.046 79.2317 216.352 80.3238 216.99 81.2225C217.261 81.5287 217.6 81.7669 217.98 81.9177C218.36 82.0685 218.771 82.1277 219.178 82.0905C219.594 82.0999 220.007 82.015 220.386 81.8421C220.765 81.6692 221.1 81.4129 221.365 81.0923C221.971 80.0829 222.23 78.9032 222.103 77.733C222.177 76.6849 221.869 75.6456 221.235 74.8077C220.958 74.5026 220.614 74.2655 220.23 74.115C219.846 73.9644 219.432 73.9044 219.022 73.9396C218.614 73.9384 218.211 74.029 217.842 74.2048C217.474 74.3807 217.15 74.6371 216.895 74.9552C216.284 75.8926 216.012 77.0103 216.122 78.1236V78.1323Z" fill="#FAFAFA"/>
<path d="M229.16 70.563H234.95L236.946 79.3041L239.403 70.6238L245.193 70.6758L244.802 84.9985H241.191L241.486 74.0699L238.413 84.9724H235.149L232.675 74.0178L232.38 84.9464H228.769L229.16 70.563Z" fill="#FAFAFA"/>
<path d="M248.37 70.8147L260.149 71.3442L259.967 74.3997L252.588 74.0698L252.441 76.3875L259.281 76.6913L259.099 79.5645L252.259 79.2607L252.085 82.0905L259.672 82.4204L259.463 85.6668L247.467 85.1286L248.37 70.8147Z" fill="#FAFAFA"/>
</svg>
