<svg width="474" height="360" viewBox="0 0 474 360" fill="none" xmlns="http://www.w3.org/2000/svg">
<g clip-path="url(#clip0_83_666)">
<path d="M438.561 327.22C423.03 339.042 404.109 351.017 385.507 356.663C380.145 358.34 374.611 359.41 369.01 359.853C363.773 360.274 358.503 359.865 353.394 358.642C339.969 355.304 327.516 349.459 315.467 342.63C311.531 340.395 307.639 338.058 303.771 335.67C297.457 331.769 291.205 327.732 284.936 323.791C283.997 323.194 283.064 322.609 282.125 322.029H282.12C280.606 321.079 279.089 320.143 277.569 319.22C277.301 319.055 277.034 318.896 276.761 318.731C273.888 316.991 270.966 315.29 267.995 313.63C267.63 313.431 267.266 313.226 266.902 313.027C261.153 309.84 255.244 306.949 249.199 304.367C245.228 302.696 241.206 301.189 237.144 299.904H237.139C235.586 299.415 234.027 298.954 232.463 298.533C227.772 297.247 222.991 296.312 218.161 295.736C211.505 294.93 204.773 294.984 198.131 295.895C197.682 295.957 197.238 296.02 196.788 296.094C178.812 298.971 162.405 308.672 144.349 310.958C143.763 311.032 143.183 311.1 142.597 311.151C142.347 311.174 142.097 311.202 141.846 311.219C136.599 311.668 131.319 311.538 126.1 310.832C111.52 308.911 97.3204 302.946 84.5378 295.429C54.6547 277.852 30.4206 250.837 15.6867 219.552C13.1566 214.19 10.9102 208.699 8.95693 203.101C3.49568 187.58 0.488149 171.302 0.0426246 154.854C-1.33974 97.7871 31.1032 40.5326 82.0404 14.7229C132.983 -11.0869 199.997 -2.55186 241.081 37.0981C266.004 61.1508 280.424 93.7442 299.18 122.863C317.936 151.977 344.594 179.788 378.977 184.03C396.492 186.191 414.821 182.011 431.609 187.447C440.904 190.461 448.835 196.227 455.223 203.573C459.518 208.559 463.112 214.107 465.906 220.063C467.954 224.37 469.616 228.849 470.873 233.449C471.106 234.296 471.322 235.143 471.533 235.991C479.895 270.13 466.532 305.92 438.561 327.22Z" fill="#F2F2F2"/>
<path d="M158.81 265.417H105.336C97.3242 265.417 90.8295 271.909 90.8295 279.917V279.917C90.8295 287.925 97.3242 294.416 105.336 294.416H158.81C166.822 294.416 173.316 287.925 173.316 279.917C173.316 271.909 166.822 265.417 158.81 265.417Z" fill="#3F3D56"/>
<path d="M142.597 287.024V311.151C137.104 311.682 131.568 311.575 126.1 310.833V287.024H142.597Z" fill="#3F3D56"/>
<path d="M198.131 295.895C197.681 295.957 197.238 296.02 196.788 296.094C178.812 298.971 162.405 308.672 144.349 310.958C143.763 311.032 143.183 311.1 142.597 311.151C142.347 311.174 142.096 311.202 141.846 311.219C137.437 306.903 133.029 302.309 128.887 297.55C126.64 294.974 124.467 292.347 122.425 289.686C117.123 282.817 112.629 275.754 109.659 268.817C109.961 265.491 107.89 257.797 106.9 251.906L106.894 251.901C106.473 249.427 106.246 247.278 106.456 245.896C107.662 237.924 114.176 238.839 116.178 231.027C117.985 229.528 119.908 228.176 121.93 226.984C122.265 226.785 122.607 226.586 122.959 226.387L144.691 211.375L152.996 219.518L165.637 231.914L179.335 245.339L167.707 257.081C167.707 257.081 177.424 268.277 188.784 283.203C191.833 287.212 195.002 291.494 198.131 295.895Z" fill="#2F2E41"/>
<path d="M385.507 287.024V356.664C380.145 358.34 374.611 359.41 369.01 359.853V287.024H385.507Z" fill="#3F3D56"/>
<path d="M406.84 281.338H353.366C345.354 281.338 338.859 287.83 338.859 295.838V295.838C338.859 303.846 345.354 310.338 353.366 310.338H406.84C414.852 310.338 421.346 303.846 421.346 295.838C421.346 287.83 414.852 281.338 406.84 281.338Z" fill="#3F3D56"/>
<path d="M276.761 318.731C273.888 316.991 270.966 315.29 267.994 313.63C267.63 313.431 267.266 313.226 266.902 313.027L268.859 312.191L274.138 309.923L274.19 309.9L274.246 310.093L276.761 318.731Z" fill="#FFB6B6"/>
<path d="M284.936 323.791C283.997 323.194 283.064 322.609 282.125 322.029H282.12C280.606 321.079 279.089 320.143 277.569 319.22C277.301 319.055 277.034 318.896 276.761 318.731C273.888 316.991 270.966 315.291 267.995 313.63C267.63 313.431 267.266 313.226 266.902 313.027C261.153 309.84 255.244 306.949 249.199 304.367C245.228 302.696 241.206 301.189 237.144 299.904H237.139L233.947 294.564L219.583 270.517L216.426 265.235C216.426 265.235 205.657 268.419 190.417 271.473C184.87 272.587 178.738 273.679 172.304 274.6C165.426 275.578 158.213 276.357 151.045 276.732C147.626 276.914 144.218 277.005 140.862 276.977C132.187 276.92 123.853 276.107 116.554 274.173C114.119 271.888 106.781 268.777 101.524 265.928H101.519C99.3114 264.734 97.4796 263.591 96.5182 262.574C90.9774 256.717 95.7104 252.151 90.784 245.759C90.7176 243.415 90.8375 241.068 91.1424 238.743C91.1936 238.356 91.2448 237.964 91.3073 237.566L92.8604 211.204L104.397 209.68L121.953 207.36L140.97 204.847L143.064 221.235C143.064 221.235 157.871 220.484 176.633 220.734C206.766 221.144 247.088 224.146 252.549 237.031C253.061 238.242 253.573 239.465 254.085 240.687C255.303 243.61 256.509 246.548 257.704 249.501C262.033 260.191 266.163 270.984 269.934 281.185C272.278 287.53 274.485 293.649 276.516 299.375C278.149 303.981 279.662 308.336 281.045 312.345C282.307 316.007 283.451 319.379 284.469 322.404C284.628 322.876 284.782 323.342 284.936 323.791Z" fill="#2F2E41"/>
<path d="M178.809 164.073L142.369 133.139L166.077 109.156L182.617 136.236L243.927 148.385C245.771 146.999 247.978 146.178 250.28 146.023C252.582 145.869 254.879 146.387 256.892 147.515C258.904 148.643 260.545 150.332 261.614 152.376C262.682 154.42 263.133 156.731 262.911 159.026C262.689 161.322 261.803 163.503 260.362 165.304C258.921 167.105 256.986 168.448 254.795 169.169C252.603 169.89 250.249 169.959 248.02 169.366C245.79 168.773 243.781 167.544 242.238 165.83L178.809 164.073Z" fill="#A0616A"/>
<path d="M110.165 92.4845C105.953 106.178 146.061 138.838 146.061 138.838C146.506 135.551 169.246 163.9 170.793 161.332C175.19 154.036 180.028 135.999 185.104 133.694C188.007 132.376 171.354 114.052 171.354 114.052C171.354 114.052 162.859 102.818 151.643 88.5807C148.547 84.4968 144.467 81.2623 139.784 79.1783C135.1 77.0943 129.966 76.2286 124.858 76.6617C124.858 76.6617 114.376 78.7906 110.165 92.4845Z" fill="#3F3D56"/>
<path d="M127.898 62.1691C141.509 62.1691 152.544 51.1397 152.544 37.5341C152.544 23.9286 141.509 12.8992 127.898 12.8992C114.286 12.8992 103.252 23.9286 103.252 37.5341C103.252 51.1397 114.286 62.1691 127.898 62.1691Z" fill="#A0616A"/>
<path d="M140.221 78.4511C145.53 81.6063 148.706 87.4035 150.53 93.3027C153.905 104.224 155.937 115.516 156.581 126.929L158.506 161.097L182.357 233.851C161.686 251.334 83.9878 237.824 83.9878 237.824C83.9878 237.824 81.6027 237.03 83.9878 234.646C86.3729 232.262 88.6948 234.374 86.3098 231.99C83.9247 229.606 85.5689 232.262 86.3639 229.878C87.159 227.494 86.3639 229.083 85.5689 228.288C84.7739 227.493 91.7236 220.341 91.7236 220.341L85.3634 178.58L77.4131 94.3446C86.9535 82.4244 106.14 75.3976 106.14 75.3976L111.098 66.4778L135.886 68.46L140.221 78.4511Z" fill="#3F3D56"/>
<path d="M148.214 24.446C150.13 25.8741 151.549 27.8667 152.272 30.1433C152.55 26.4228 152.567 22.6875 152.325 18.9645C152.034 16.3484 150.192 15.7599 148.058 15.0781C146.131 14.462 143.952 13.7662 143.366 11.2265C135.618 3.69314 122.132 4.07301 112.902 6.70076C107.823 8.14677 104.901 10.0046 104.64 11.0929L104.586 11.3169L104.379 11.42C100.464 13.3766 99.7024 19.5549 99.7528 24.3932C99.8481 33.509 102.997 43.8623 104.771 44.7033C104.865 44.7478 104.889 44.7304 104.929 44.6966C107.6 42.5629 110.859 44.8587 112.291 46.1067C113.136 40.4411 115.856 35.2218 120.016 31.2825C124.176 27.3431 129.538 24.911 135.243 24.3744C137.106 24.1944 138.955 23.8846 140.775 23.4472C141.698 23.2085 142.647 23.084 143.601 23.0765C145.243 23.0516 146.852 23.5295 148.214 24.446Z" fill="#2F2E41"/>
<path d="M117.159 201.188L109.62 197.329C109.216 197.041 108.929 196.618 108.812 196.136C108.694 195.654 108.754 195.146 108.98 194.705C109.206 194.264 109.584 193.919 110.043 193.732C110.503 193.546 111.014 193.532 111.484 193.691L119.023 197.551C119.427 197.838 119.714 198.262 119.832 198.743C119.949 199.225 119.889 199.733 119.663 200.174C119.437 200.615 119.06 200.961 118.6 201.147C118.14 201.333 117.629 201.348 117.159 201.188Z" fill="#E9C46A"/>
<path d="M91.7859 190.848L79.3838 144.698L112.526 138.427L110.744 170.104L154.289 214.922C156.595 214.828 158.878 215.406 160.86 216.586C162.842 217.766 164.438 219.498 165.453 221.569C166.467 223.64 166.857 225.962 166.575 228.25C166.293 230.539 165.35 232.697 163.862 234.459C162.375 236.222 160.406 237.514 158.196 238.178C155.987 238.841 153.631 238.848 151.418 238.197C149.205 237.546 147.229 236.265 145.731 234.511C144.233 232.756 143.278 230.604 142.983 228.317L91.7859 190.848Z" fill="#A0616A"/>
<path d="M75.9923 92.9532C64.7428 101.83 79.1816 151.484 79.1816 151.484C81.4171 149.032 84.0149 185.275 86.7474 184.041C94.5133 180.533 108.747 168.439 114.235 169.425C117.373 169.988 114.085 145.452 114.085 145.452C114.085 145.452 113.48 131.383 112.344 113.297C112.117 108.178 110.599 103.2 107.93 98.825C105.26 94.4504 101.527 90.8219 97.0776 88.2773C97.0776 88.2773 87.2419 84.0762 75.9923 92.9532Z" fill="#3F3D56"/>
<path d="M465.906 220.064L15.6866 219.552C13.1564 214.19 10.9101 208.699 8.95679 203.102L455.223 203.574C459.518 208.559 463.112 214.107 465.906 220.064Z" fill="#3F3D56"/>
<path d="M322.51 339.372C320.183 340.498 317.836 341.584 315.467 342.63C311.531 340.395 307.639 338.058 303.771 335.67L318.118 329.37L322.51 339.372Z" fill="#FFB6B6"/>
<path d="M427.115 261.016C424.782 264.143 422.376 267.208 419.896 270.21C417.609 272.979 415.261 275.696 412.853 278.359C411.858 279.462 410.851 280.559 409.821 281.645C407.927 283.675 405.99 285.671 404.013 287.633C400.452 288.753 393.238 290.726 385.507 292.568C379.881 293.905 373.982 295.173 369.01 295.98C366.226 296.48 363.411 296.78 360.585 296.879C357.228 296.907 353.821 296.816 350.402 296.634C346.545 296.429 342.682 296.111 338.865 295.702C328.938 294.661 319.324 293.04 311.03 291.374C307.992 290.772 305.136 290.157 302.508 289.56C297.531 288.44 293.366 287.394 290.351 286.598C286.955 285.711 285.021 285.137 285.021 285.137L276.516 299.375L272.102 306.761L268.859 312.192L267.995 313.63C267.63 313.431 267.266 313.226 266.902 313.027C261.153 309.84 255.244 306.949 249.199 304.367C245.228 302.696 241.206 301.189 237.144 299.904H237.139C235.586 299.415 234.027 298.954 232.463 298.533C232.952 297.22 233.447 295.897 233.947 294.564C234.88 292.079 235.832 289.572 236.803 287.041C238.902 281.56 241.075 275.999 243.311 270.466C245.143 265.923 247.009 261.397 248.897 256.933C249.768 254.874 251.537 253.066 254.012 251.48C255.194 250.734 256.428 250.073 257.704 249.501C264.786 246.277 275.219 244.179 286.716 242.831C287.666 242.723 288.622 242.615 289.583 242.513C299.101 241.512 309.198 240.994 318.642 240.756C323.369 240.636 327.931 240.591 332.175 240.585C333.546 240.585 334.879 240.589 336.174 240.596H336.18C339.679 240.613 342.898 240.665 345.731 240.722C346.283 240.733 346.818 240.75 347.341 240.761H347.347C347.7 240.767 348.047 240.778 348.388 240.784C354.583 240.943 358.383 241.137 358.383 241.137L359.857 229.582L360.158 227.251L360.443 225.033V225.028L360.477 224.749L360.71 224.743L364.806 224.664L399.234 223.993L418.041 223.623L415.06 236.394L410.14 257.467C410.64 260.8 427.285 258.19 427.115 261.016Z" fill="#2F2E41"/>
<path d="M326.754 337.268C325.348 337.984 323.932 338.689 322.51 339.372C320.183 340.497 317.836 341.584 315.467 342.63C311.531 340.395 307.639 338.058 303.771 335.67C297.457 331.769 291.205 327.732 284.936 323.791C283.997 323.194 283.064 322.609 282.125 322.029H282.12C279.537 318.196 276.903 314.204 274.246 310.093C274.207 310.036 274.172 309.98 274.138 309.923C273.456 308.876 272.777 307.823 272.102 306.761C267.852 300.108 263.58 293.171 259.433 286.086L269.934 281.185L289.458 272.075L292.826 270.506L302.508 289.56L311.144 306.556L313.066 310.338L326.754 337.268Z" fill="#2F2E41"/>
<path d="M329.696 245.786L379.473 197.804L393.27 158.757L372.919 149.912C362.467 159.92 351.168 191.094 351.168 191.094L316.914 234.653C316.647 234.744 316.381 234.841 316.118 234.957C314.575 235.637 313.234 236.704 312.224 238.053C311.214 239.403 310.569 240.99 310.352 242.661C310.135 244.333 310.353 246.032 310.985 247.594C311.617 249.157 312.641 250.53 313.959 251.581C315.277 252.632 316.844 253.326 318.509 253.595C320.173 253.864 321.879 253.699 323.461 253.116C325.044 252.534 326.449 251.553 327.541 250.269C328.633 248.985 329.375 247.441 329.696 245.786Z" fill="#FFB8B8"/>
<path d="M367.193 154.272L393.006 162.463L393.103 162.447C402.711 160.838 410.683 145.154 415.679 132.279C417.323 128.033 417.292 123.321 415.593 119.096C413.894 114.871 410.654 111.449 406.527 109.52C403.473 108.118 400.088 107.598 396.754 108.019C393.42 108.439 390.27 109.784 387.66 111.9L374.405 122.726L367.193 154.272Z" fill="#E9C46A"/>
<path d="M427.011 261.591L427.162 261.391C435.216 250.715 424.201 224.275 422.535 220.441L430.024 218.224L428.719 203.972L428.09 197.617L433.912 192.09L433.932 191.949L437.936 163.465L443.175 144.613C445.15 137.486 445.192 129.963 443.296 122.814C441.401 115.666 437.636 109.151 432.389 103.937L421.679 93.3079L408.847 73.232L387.332 72.6768L379.596 86.414C372.401 87.8817 365.95 91.8257 361.365 97.5591C356.78 103.292 354.353 110.452 354.507 117.79L355.235 154.361L347.515 199.673L347.299 207.904L339.722 215.896L341.122 223.976L335.455 226.232L332.681 237.713C331.622 239.038 324.628 247.875 324.564 250.338C324.555 250.708 324.819 251.073 325.395 251.484C329.922 254.722 355.225 261.737 366.613 257.52C378.744 253.031 426.285 261.461 426.764 261.547L427.011 261.591Z" fill="#E9C46A"/>
<path d="M396.21 66.5224C411.952 66.5224 424.713 53.767 424.713 38.0325C424.713 22.2979 411.952 9.54248 396.21 9.54248C380.469 9.54248 367.708 22.2979 367.708 38.0325C367.708 53.767 380.469 66.5224 396.21 66.5224Z" fill="#FFB8B8"/>
<path d="M392.733 66.9036C397.147 66.9724 401.559 66.6643 405.92 65.9825C410.243 65.1038 419.914 58.0199 422.61 53.7572C424.613 50.59 425.894 45.6443 426.616 42.0533C427.588 37.3012 427.551 32.398 426.507 27.6612C425.463 22.9244 423.436 18.4595 420.555 14.5558C419.449 12.923 417.921 11.6195 416.133 10.7834C415.975 10.7215 415.812 10.6666 415.647 10.6197C413.043 9.93479 410.703 8.48753 408.928 6.4637C408.584 6.05435 408.21 5.67032 407.811 5.31459C405.804 3.62202 403.426 2.42813 400.869 1.83049C396.742 0.726559 390.77 1.82235 383.119 5.09059C379.275 6.73261 375.071 6.13836 371.837 5.43713C371.656 5.40211 371.468 5.41518 371.293 5.47503C371.119 5.53489 370.962 5.63945 370.841 5.77831C369.465 7.06948 367.651 7.79223 365.764 7.80127C364.608 7.85201 363.395 9.45185 361.929 11.5381C361.596 12.0117 361.208 12.5644 360.928 12.9006L360.891 12.2547L360.237 12.9752C359.209 14.1076 358.484 15.4816 358.131 16.9692C357.777 18.4568 357.806 20.0096 358.215 21.4831C358.623 22.9566 359.398 24.3027 360.467 25.3963C361.536 26.4898 362.865 27.2951 364.329 27.7372C365.492 28.0465 366.683 28.2362 367.885 28.3036C368.613 28.369 369.365 28.4367 370.087 28.5618C372.402 29.0357 374.554 30.1015 376.334 31.6552C378.114 33.209 379.461 35.1975 380.243 37.4267C380.427 37.942 380.728 38.4079 381.122 38.7885C381.515 39.1692 381.991 39.4543 382.513 39.6219C383.034 39.7895 383.587 39.8351 384.129 39.7553C384.67 39.6754 385.187 39.4721 385.637 39.1612C386.389 38.5763 387.27 38.1818 388.207 38.0112C389.144 37.8407 390.109 37.8992 391.018 38.1818C391.804 38.6186 392.416 39.3122 392.751 40.1464C393.158 41.0757 393.833 41.8627 394.69 42.407C397.619 43.9167 397.821 50.6049 396.769 56.1803C395.755 61.5544 393.75 65.4422 391.894 65.6344C390.465 65.7821 390.301 65.8836 390.198 66.1362L390.105 66.3623L390.266 66.5739C391.055 66.8599 391.897 66.9724 392.733 66.9036Z" fill="#2F2E41"/>
<path d="M374.271 145.658L363.281 123.757C347.329 124.846 315.669 143.282 315.669 143.282L255.767 155.977C253.993 155.295 252.07 155.093 250.192 155.39C248.314 155.687 246.548 156.473 245.071 157.67C243.594 158.866 242.458 160.43 241.778 162.205C241.098 163.979 240.898 165.902 241.198 167.778C241.497 169.655 242.286 171.419 243.485 172.894C244.683 174.369 246.249 175.503 248.026 176.18C249.802 176.858 251.725 177.056 253.602 176.754C255.479 176.452 257.244 175.662 258.718 174.462L334.917 169.002L374.271 145.658Z" fill="#FFB8B8"/>
<path d="M369.839 149.254L398.54 127.934L403.596 109.723C404.576 106.144 404.534 102.363 403.477 98.8061C402.419 95.2496 400.387 92.0596 397.611 89.5967C393.825 86.2835 388.922 84.5308 383.892 84.6929C378.863 84.8551 374.083 86.9202 370.519 90.4705C359.718 101.247 347.399 116.28 350.045 126.705L350.072 126.811L369.839 149.254Z" fill="#E9C46A"/>
<path d="M334.308 206.28H257.51V216.515H334.308V206.28Z" fill="white"/>
<path d="M138.046 206.28H61.2479V216.515H138.046V206.28Z" fill="white"/>
<path d="M147.014 157.059V205.792C147.014 206.413 147.261 207.009 147.701 207.448C148.14 207.887 148.736 208.134 149.357 208.134H221.607C222.228 208.134 222.824 207.887 223.263 207.448C223.703 207.009 223.95 206.413 223.95 205.792V157.059C223.949 156.439 223.701 155.844 223.262 155.405C222.823 154.967 222.228 154.72 221.607 154.719H149.357C148.736 154.72 148.141 154.967 147.702 155.405C147.263 155.844 147.015 156.439 147.014 157.059Z" fill="#3F3D56"/>
<path d="M148.709 157.666V205.191C148.709 205.523 148.842 205.841 149.076 206.076C149.311 206.31 149.629 206.442 149.961 206.443H221.006C221.337 206.442 221.656 206.31 221.89 206.076C222.125 205.841 222.257 205.523 222.258 205.191V157.666C222.258 157.333 222.126 157.015 221.891 156.779C221.656 156.544 221.338 156.412 221.006 156.411H149.961C149.629 156.412 149.31 156.544 149.076 156.779C148.841 157.015 148.709 157.333 148.709 157.666Z" fill="#E9C46A"/>
<path d="M145.503 215.296C145.635 215.462 145.803 215.596 145.995 215.688C146.186 215.779 146.396 215.826 146.608 215.825H223.971C224.183 215.825 224.391 215.778 224.582 215.686C224.773 215.595 224.942 215.463 225.075 215.299C225.208 215.134 225.303 214.943 225.353 214.737C225.403 214.531 225.406 214.317 225.362 214.11L224.162 208.409C224.112 208.176 224.005 207.96 223.85 207.779C223.695 207.599 223.497 207.46 223.275 207.375C223.114 207.312 222.943 207.28 222.77 207.28H147.805C147.632 207.28 147.46 207.312 147.299 207.375C147.077 207.46 146.88 207.599 146.725 207.779C146.57 207.96 146.463 208.176 146.413 208.409L145.212 214.11C145.169 214.317 145.173 214.531 145.224 214.736C145.274 214.941 145.369 215.133 145.503 215.296Z" fill="#2F2E41"/>
<path d="M220.116 209.736H221.943C222.096 209.736 222.221 209.612 222.221 209.458V208.584C222.221 208.431 222.096 208.307 221.943 208.307H220.116C219.962 208.307 219.838 208.431 219.838 208.584V209.458C219.838 209.612 219.962 209.736 220.116 209.736Z" fill="#3F3D56"/>
<path d="M215.35 209.736H217.177C217.331 209.736 217.455 209.612 217.455 209.458V208.584C217.455 208.431 217.331 208.307 217.177 208.307H215.35C215.197 208.307 215.072 208.431 215.072 208.584V209.458C215.072 209.612 215.197 209.736 215.35 209.736Z" fill="#3F3D56"/>
<path d="M210.585 209.736H212.412C212.565 209.736 212.69 209.612 212.69 209.458V208.584C212.69 208.431 212.565 208.307 212.412 208.307H210.585C210.431 208.307 210.307 208.431 210.307 208.584V209.458C210.307 209.612 210.431 209.736 210.585 209.736Z" fill="#3F3D56"/>
<path d="M205.819 209.736H207.646C207.8 209.736 207.924 209.612 207.924 209.458V208.584C207.924 208.431 207.8 208.307 207.646 208.307H205.819C205.666 208.307 205.541 208.431 205.541 208.584V209.458C205.541 209.612 205.666 209.736 205.819 209.736Z" fill="#3F3D56"/>
<path d="M201.054 209.736H202.881C203.034 209.736 203.159 209.612 203.159 209.458V208.584C203.159 208.431 203.034 208.307 202.881 208.307H201.054C200.9 208.307 200.776 208.431 200.776 208.584V209.458C200.776 209.612 200.9 209.736 201.054 209.736Z" fill="#3F3D56"/>
<path d="M196.288 209.736H198.116C198.269 209.736 198.393 209.612 198.393 209.458V208.584C198.393 208.431 198.269 208.307 198.116 208.307H196.288C196.135 208.307 196.011 208.431 196.011 208.584V209.458C196.011 209.612 196.135 209.736 196.288 209.736Z" fill="#3F3D56"/>
<path d="M191.523 209.736H193.35C193.503 209.736 193.628 209.612 193.628 209.458V208.584C193.628 208.431 193.503 208.307 193.35 208.307H191.523C191.369 208.307 191.245 208.431 191.245 208.584V209.458C191.245 209.612 191.369 209.736 191.523 209.736Z" fill="#3F3D56"/>
<path d="M186.757 209.736H188.585C188.738 209.736 188.862 209.612 188.862 209.458V208.584C188.862 208.431 188.738 208.307 188.585 208.307H186.757C186.604 208.307 186.48 208.431 186.48 208.584V209.458C186.48 209.612 186.604 209.736 186.757 209.736Z" fill="#3F3D56"/>
<path d="M181.992 209.736H183.819C183.973 209.736 184.097 209.612 184.097 209.458V208.584C184.097 208.431 183.973 208.307 183.819 208.307H181.992C181.839 208.307 181.714 208.431 181.714 208.584V209.458C181.714 209.612 181.839 209.736 181.992 209.736Z" fill="#3F3D56"/>
<path d="M177.226 209.736H179.054C179.207 209.736 179.331 209.612 179.331 209.458V208.584C179.331 208.431 179.207 208.307 179.054 208.307H177.226C177.073 208.307 176.949 208.431 176.949 208.584V209.458C176.949 209.612 177.073 209.736 177.226 209.736Z" fill="#3F3D56"/>
<path d="M172.461 209.736H174.288C174.442 209.736 174.566 209.612 174.566 209.458V208.584C174.566 208.431 174.442 208.307 174.288 208.307H172.461C172.308 208.307 172.183 208.431 172.183 208.584V209.458C172.183 209.612 172.308 209.736 172.461 209.736Z" fill="#3F3D56"/>
<path d="M167.696 209.736H169.523C169.676 209.736 169.801 209.612 169.801 209.458V208.584C169.801 208.431 169.676 208.307 169.523 208.307H167.696C167.542 208.307 167.418 208.431 167.418 208.584V209.458C167.418 209.612 167.542 209.736 167.696 209.736Z" fill="#3F3D56"/>
<path d="M162.93 209.736H164.757C164.911 209.736 165.035 209.612 165.035 209.458V208.584C165.035 208.431 164.911 208.307 164.757 208.307H162.93C162.777 208.307 162.652 208.431 162.652 208.584V209.458C162.652 209.612 162.777 209.736 162.93 209.736Z" fill="#3F3D56"/>
<path d="M158.165 209.736H159.992C160.145 209.736 160.27 209.612 160.27 209.458V208.584C160.27 208.431 160.145 208.307 159.992 208.307H158.165C158.011 208.307 157.887 208.431 157.887 208.584V209.458C157.887 209.612 158.011 209.736 158.165 209.736Z" fill="#3F3D56"/>
<path d="M153.399 209.736H155.226C155.38 209.736 155.504 209.612 155.504 209.458V208.584C155.504 208.431 155.38 208.307 155.226 208.307H153.399C153.246 208.307 153.121 208.431 153.121 208.584V209.458C153.121 209.612 153.246 209.736 153.399 209.736Z" fill="#3F3D56"/>
<path d="M148.634 209.736H150.461C150.614 209.736 150.739 209.612 150.739 209.458V208.584C150.739 208.431 150.614 208.307 150.461 208.307H148.634C148.48 208.307 148.356 208.431 148.356 208.584V209.458C148.356 209.612 148.48 209.736 148.634 209.736Z" fill="#3F3D56"/>
<path d="M220.172 212.117H221.999C222.153 212.117 222.277 211.993 222.277 211.84V210.966C222.277 210.813 222.153 210.688 221.999 210.688H220.172C220.019 210.688 219.894 210.813 219.894 210.966V211.84C219.894 211.993 220.019 212.117 220.172 212.117Z" fill="#3F3D56"/>
<path d="M215.406 212.117H217.234C217.387 212.117 217.511 211.993 217.511 211.84V210.966C217.511 210.813 217.387 210.688 217.234 210.688H215.406C215.253 210.688 215.129 210.813 215.129 210.966V211.84C215.129 211.993 215.253 212.117 215.406 212.117Z" fill="#3F3D56"/>
<path d="M210.641 212.117H212.468C212.622 212.117 212.746 211.993 212.746 211.84V210.966C212.746 210.813 212.622 210.688 212.468 210.688H210.641C210.488 210.688 210.363 210.813 210.363 210.966V211.84C210.363 211.993 210.488 212.117 210.641 212.117Z" fill="#3F3D56"/>
<path d="M205.875 212.117H207.703C207.856 212.117 207.98 211.993 207.98 211.84V210.966C207.98 210.813 207.856 210.688 207.703 210.688H205.875C205.722 210.688 205.598 210.813 205.598 210.966V211.84C205.598 211.993 205.722 212.117 205.875 212.117Z" fill="#3F3D56"/>
<path d="M201.11 212.117H202.937C203.091 212.117 203.215 211.993 203.215 211.84V210.966C203.215 210.813 203.091 210.688 202.937 210.688H201.11C200.957 210.688 200.832 210.813 200.832 210.966V211.84C200.832 211.993 200.957 212.117 201.11 212.117Z" fill="#3F3D56"/>
<path d="M196.345 212.117H198.172C198.325 212.117 198.45 211.993 198.45 211.84V210.966C198.45 210.813 198.325 210.688 198.172 210.688H196.345C196.191 210.688 196.067 210.813 196.067 210.966V211.84C196.067 211.993 196.191 212.117 196.345 212.117Z" fill="#3F3D56"/>
<path d="M191.579 212.117H193.406C193.56 212.117 193.684 211.993 193.684 211.84V210.966C193.684 210.813 193.56 210.688 193.406 210.688H191.579C191.426 210.688 191.301 210.813 191.301 210.966V211.84C191.301 211.993 191.426 212.117 191.579 212.117Z" fill="#3F3D56"/>
<path d="M186.814 212.117H188.641C188.794 212.117 188.919 211.993 188.919 211.84V210.966C188.919 210.813 188.794 210.688 188.641 210.688H186.814C186.66 210.688 186.536 210.813 186.536 210.966V211.84C186.536 211.993 186.66 212.117 186.814 212.117Z" fill="#3F3D56"/>
<path d="M182.048 212.117H183.875C184.029 212.117 184.153 211.993 184.153 211.84V210.966C184.153 210.813 184.029 210.688 183.875 210.688H182.048C181.895 210.688 181.77 210.813 181.77 210.966V211.84C181.77 211.993 181.895 212.117 182.048 212.117Z" fill="#3F3D56"/>
<path d="M177.283 212.117H179.11C179.263 212.117 179.388 211.993 179.388 211.84V210.966C179.388 210.813 179.263 210.688 179.11 210.688H177.283C177.129 210.688 177.005 210.813 177.005 210.966V211.84C177.005 211.993 177.129 212.117 177.283 212.117Z" fill="#3F3D56"/>
<path d="M172.517 212.117H174.345C174.498 212.117 174.622 211.993 174.622 211.84V210.966C174.622 210.813 174.498 210.688 174.345 210.688H172.517C172.364 210.688 172.24 210.813 172.24 210.966V211.84C172.24 211.993 172.364 212.117 172.517 212.117Z" fill="#3F3D56"/>
<path d="M167.752 212.117H169.579C169.732 212.117 169.857 211.993 169.857 211.84V210.966C169.857 210.813 169.732 210.688 169.579 210.688H167.752C167.598 210.688 167.474 210.813 167.474 210.966V211.84C167.474 211.993 167.598 212.117 167.752 212.117Z" fill="#3F3D56"/>
<path d="M162.986 212.117H164.814C164.967 212.117 165.091 211.993 165.091 211.84V210.966C165.091 210.813 164.967 210.688 164.814 210.688H162.986C162.833 210.688 162.709 210.813 162.709 210.966V211.84C162.709 211.993 162.833 212.117 162.986 212.117Z" fill="#3F3D56"/>
<path d="M158.221 212.117H160.048C160.202 212.117 160.326 211.993 160.326 211.84V210.966C160.326 210.813 160.202 210.688 160.048 210.688H158.221C158.068 210.688 157.943 210.813 157.943 210.966V211.84C157.943 211.993 158.068 212.117 158.221 212.117Z" fill="#3F3D56"/>
<path d="M153.455 212.117H155.283C155.436 212.117 155.56 211.993 155.56 211.84V210.966C155.56 210.813 155.436 210.688 155.283 210.688H153.455C153.302 210.688 153.178 210.813 153.178 210.966V211.84C153.178 211.993 153.302 212.117 153.455 212.117Z" fill="#3F3D56"/>
<path d="M148.69 212.117H150.517C150.671 212.117 150.795 211.993 150.795 211.84V210.966C150.795 210.813 150.671 210.688 150.517 210.688H148.69C148.537 210.688 148.412 210.813 148.412 210.966V211.84C148.412 211.993 148.537 212.117 148.69 212.117Z" fill="#3F3D56"/>
<path d="M180.619 214.975H199.125C199.278 214.975 199.403 214.851 199.403 214.698V213.824C199.403 213.671 199.278 213.546 199.125 213.546H180.619C180.465 213.546 180.341 213.671 180.341 213.824V214.698C180.341 214.851 180.465 214.975 180.619 214.975Z" fill="#3F3D56"/>
</g>
<defs>
<clipPath id="clip0_83_666">
<rect width="474" height="360" fill="white"/>
</clipPath>
</defs>
</svg>
