<svg width="750" height="900" viewBox="0 0 750 900" fill="none" xmlns="http://www.w3.org/2000/svg">
<path d="M502 103.333C515.856 115.791 530 140.666 522 178.666C514 216.666 509.938 238.818 518.333 258.333C534.75 296.5 685.881 362.002 685 466C684 584 563.5 589 532.5 627C509.665 654.992 507.5 731 436.5 776C374.633 815.211 251.598 821.516 174 754.5C119 707 121.667 649 124.333 624.667C126.999 600.334 149.943 526.452 112.798 472.165C68.666 407.666 73.791 358.078 89.018 305.246C103.5 255 142.871 176.437 241.333 121.333C350.333 60.3329 465.667 70.6669 502 103.333Z" fill="url(#paint0_linear_384_1619)"/>
<path d="M439.5 142.251H476.5V179.248H439.5V142.251Z" fill="#C7A0F6"/>
<path d="M153.5 274.5H99.9471C95.2901 285.51 91.7211 295.871 89.0191 305.246C81.4601 331.473 76.3941 356.901 78.6041 383.75H153.5V274.5Z" fill="url(#paint1_linear_384_1619)"/>
<path d="M451.85 142.251H464.151V154.551H451.85V142.251Z" fill="#FDE1A7"/>
<path d="M451.85 166.949H464.151V179.249H451.85V166.949Z" fill="#FF57BC"/>
<path d="M439.5 154.6H451.801V166.9H439.5V154.6Z" fill="#FF9BBB"/>
<path d="M464.199 154.6H476.5V166.9H464.199V154.6Z" fill="#1AA9E8"/>
<path d="M493.667 259.5V206C493.667 205.735 493.562 205.48 493.374 205.293C493.187 205.105 492.932 205 492.667 205H486C485.735 205 485.48 205.105 485.293 205.293C485.105 205.48 485 205.735 485 206V259.5H493.667Z" fill="#05C5DA"/>
<path d="M485 259.5V201C485 199.409 484.368 197.883 483.243 196.757C482.117 195.632 480.591 195 479 195H473C471.409 195 469.883 195.632 468.757 196.757C467.632 197.883 467 199.409 467 201V259.5H485Z" fill="#FDE1A7"/>
<path d="M467 207.333H485V213H467V207.333Z" fill="#C7A0F6"/>
<path d="M443.128 258.833H461.392L443.233 189.567C443.133 189.186 442.959 188.828 442.721 188.514C442.483 188.2 442.185 187.936 441.845 187.737C441.505 187.539 441.129 187.409 440.739 187.355C440.348 187.301 439.951 187.325 439.57 187.425L428.286 190.383C427.905 190.483 427.547 190.657 427.233 190.895C426.919 191.133 426.655 191.431 426.456 191.771C426.257 192.111 426.127 192.487 426.074 192.878C426.02 193.268 426.044 193.665 426.144 194.046L443.128 258.833Z" fill="#1AA9E8"/>
<path d="M443.128 258.833L424.284 186.953C424.217 186.696 424.05 186.477 423.821 186.343C423.592 186.21 423.319 186.172 423.063 186.24L412.422 189.03C412.295 189.063 412.176 189.121 412.071 189.2C411.966 189.28 411.878 189.379 411.812 189.492C411.746 189.606 411.702 189.731 411.685 189.861C411.667 189.991 411.675 190.124 411.708 190.251L429.687 258.834H443.128V258.833Z" fill="#FF9BBB"/>
<path d="M430.43 210.403L447.519 205.923L454.662 233.168L437.573 237.648L430.43 210.403Z" fill="#0090B2"/>
<path d="M129.5 312C119.499 315.549 104.75 317 98 330.5C90.787 344.926 99.5 351.625 100 360C100.438 367.334 95.216 373.154 88.98 376.5H145.75V301.6C142.452 305.152 137.737 309.077 129.5 312Z" fill="url(#paint2_linear_384_1619)"/>
<path opacity="0.3" d="M392.667 617.667C420.647 618.709 500.25 626 494.667 663.667C489.787 696.593 445.584 705.47 404 710.334C359.604 715.527 345.25 711.75 316.667 732.334C289.199 752.115 264.5 766 222.667 747C191.413 732.805 192.549 696.294 198.25 689.25C214.167 669.583 236.841 671.666 250.667 665.667C262 660.75 281.403 637.487 306.667 627.667C331.931 617.847 376.092 617.05 392.667 617.667Z" fill="url(#paint3_linear_384_1619)"/>
<path d="M411.333 259.75V77.2322C409.244 77.1822 407.131 77.1592 405 77.1572V259.75H411.333Z" fill="url(#paint4_linear_384_1619)"/>
<path d="M121.375 303.125C128.625 299.25 115.375 286.75 127.75 281.75H97.0001C95.2494 286.226 93.6159 290.746 92.1011 295.307C93.0801 294.885 94.1191 294.587 95.2501 294.5C106.625 293.625 108.457 310.03 121.375 303.125Z" fill="#1AA9E8"/>
<path d="M397.917 109.333V109.666H508.076C506.205 107.412 504.174 105.296 502 103.333H403.917C402.326 103.333 400.8 103.965 399.674 105.09C398.549 106.216 397.917 107.742 397.917 109.333Z" fill="url(#paint5_linear_384_1619)"/>
<path d="M397.917 181.5V181.833H521.335L522 178.667C522.225 177.6 522.426 176.546 522.616 175.5H403.917C402.326 175.5 400.8 176.132 399.674 177.257C398.549 178.383 397.917 179.909 397.917 181.5Z" fill="url(#paint6_linear_384_1619)"/>
<path d="M397.917 262.917V263.25H521.085C519.954 261.564 519.017 259.923 518.333 258.333C518.131 257.863 517.942 257.39 517.754 256.916H403.917C402.326 256.917 400.8 257.549 399.675 258.674C398.549 259.8 397.917 261.326 397.917 262.917Z" fill="url(#paint7_linear_384_1619)"/>
<path d="M99.9999 360C99.4999 351.625 90.7869 344.926 97.9999 330.5C104.75 317 119.499 315.549 129.5 312C137.737 309.077 142.452 305.152 145.75 301.6V281.75H127.75C115.375 286.75 128.625 299.25 121.375 303.125C108.457 310.03 106.625 293.625 95.2499 294.5C94.1179 294.587 93.0789 294.885 92.1009 295.307C91.0081 298.599 89.9805 301.912 89.0189 305.245C82.1439 329.1 77.3299 352.295 78.1779 376.499H88.9799C95.2159 373.154 100.438 367.334 99.9999 360Z" fill="url(#paint8_linear_384_1619)"/>
<path d="M121 354.667C126.891 354.667 131.667 349.891 131.667 344C131.667 338.109 126.891 333.333 121 333.333C115.109 333.333 110.333 338.109 110.333 344C110.333 349.891 115.109 354.667 121 354.667Z" fill="url(#paint9_linear_384_1619)"/>
<path d="M128.749 685.397C135.135 707.71 148.244 732.256 174 754.5C179.285 759.056 184.82 763.314 190.578 767.254L204.839 685.398H128.749V685.397Z" fill="url(#paint10_linear_384_1619)"/>
<path d="M204.934 687.027C204.934 673.6 185.942 662.72 162.516 662.72C147.05 662.72 133.522 667.462 126.11 674.547C128.142 684.622 131.444 695.356 136.625 706.276C143.79 709.444 152.765 711.333 162.516 711.333C185.942 711.334 204.934 700.456 204.934 687.027Z" fill="#FF9BBB"/>
<path d="M196.833 685.918C196.833 675.375 181.347 666.834 162.251 666.834C144.978 666.834 130.665 673.819 128.084 682.953C129.181 687.063 130.468 691.121 131.941 695.112C137.826 701.008 149.191 705.001 162.251 705.001C181.348 705.001 196.833 696.461 196.833 685.918Z" fill="url(#paint11_linear_384_1619)"/>
<path d="M144.277 499.596C142.982 502.374 144.911 505.103 148.55 506.593C152.684 508.285 155.828 508 157.232 511.727C158.636 515.455 157.628 519.74 160.101 519.713C162.575 519.687 166.694 509.485 162.128 502.011C157.525 494.472 147.234 493.251 144.277 499.596Z" fill="url(#paint12_linear_384_1619)"/>
<path d="M168 648.625C170 643.125 190.375 614.375 226.125 611.625C258.419 609.141 271.177 623.958 268 630.5C265.875 634.875 258.25 633.625 255.125 632.75C252 631.875 246.517 628.741 242.875 630.625C239.25 632.5 239.682 637.3 236 639.125C229.399 642.397 222.604 636.93 217 634.75C210.25 632.125 198.875 629.75 190.75 637.25C180.803 646.433 178.723 654.371 175.611 668.311C172.499 682.251 171.028 689.146 170.375 690C169.562 691.063 168.25 692.25 164.75 690.875C161.25 689.5 165.75 671.625 165.375 664.375C165 657.125 168 648.625 168 648.625Z" fill="url(#paint13_linear_384_1619)"/>
<path d="M176.25 690.25C176.281 688.968 180.75 680.584 181.625 672.625C182.765 662.253 187.94 651.323 192.625 647.125C198.25 642.084 205.502 639.656 208.625 643.5C211.333 646.834 208.667 652.918 205.5 656C201.446 659.945 182.857 670.843 186.083 676.834C187.833 680.084 191.026 675.281 192.5 673.001C195.083 669.001 199.441 665.071 202.167 666.834C205 668.667 204.084 674.334 197.917 677.917C191.881 681.424 186.513 684.326 183.917 687.251C181.462 690.017 183.834 689.917 182.5 691.501C180.965 693.324 176.167 693.667 176.25 690.25Z" fill="url(#paint14_linear_384_1619)"/>
<path d="M150 690.125C151.637 689.152 150.125 680.375 147 676C143.875 671.625 138 669.5 138 666.375C138 663.25 139.547 660.495 137.75 656.625C136.125 653.125 129.75 654.5 129.5 648.875C129.25 643.25 132.11 636.316 134.296 624.071C136.25 613.125 134.47 609.352 131.625 607.625C128.125 605.5 127.375 600.375 130 593.125C131.828 588.078 130.79 556.308 119.625 555.5C110.125 554.812 106.21 571.736 106.125 580.375C106 593.063 110.896 596.219 109 602.75C106.75 610.5 103.667 611.583 103 620.125C102.451 627.163 102.5 636.75 117.25 654.75C131.208 671.784 140.399 679.097 142.875 682.625C145.917 686.959 147.125 691.834 150 690.125Z" fill="url(#paint15_linear_384_1619)"/>
<path d="M162.25 689.5C162.25 683.25 165 663 159.25 652.25C153.5 641.5 150.25 630.5 153 618.5C155.75 606.5 169.25 583.375 168.25 575.375C167.25 567.375 163.125 553.875 170.5 527.75C176.085 507.967 188.759 494.537 197.5 500C203.5 503.75 200.75 517.75 197.75 523C194.75 528.25 189.537 537.411 190.537 542.661C191.537 547.911 194.828 548.482 194.549 555.609C194.001 569.625 174.376 591.125 169.751 610.25C165.913 626.119 164.501 645.25 168.501 646C172.501 646.75 168.23 684.398 166.365 688.262C164.5 692.126 162.25 689.5 162.25 689.5Z" fill="url(#paint16_linear_384_1619)"/>
<path d="M150.167 522.168C153.917 524.667 154.334 530.667 152.834 534.834C151.334 539.001 149.953 540.923 150.334 543.668C150.751 546.667 156.501 547.667 158.334 553.834C160.167 560.001 157.167 572.333 154.001 581.167C150.835 590.001 151.668 596.501 154.834 597.001C158 597.501 160.834 593.167 161.834 587.834C162.834 582.501 162.356 559.009 176.501 563.167C182.168 564.833 181.751 574.416 178.168 581.167C175.405 586.372 166.085 597.75 161.335 613.167C156.941 627.429 153.484 638.746 162.168 640.501C169.585 642 173.668 633.667 174.668 628.334C175.668 623.001 179.065 604.655 195.501 607.834C203.251 609.333 198.411 628.153 187.001 638.001C179.221 644.716 169.34 653.078 166.501 664.667C163.418 677.25 167.834 690.167 166.001 692.667C164.168 695.167 157.001 693.668 157.168 692.001C157.335 690.334 159.168 687 155.668 684.167C152.168 681.334 144.028 677.415 138.501 673.501C132.974 669.587 133.501 663.501 136.334 661.334C139.167 659.167 142.439 661.895 143.667 663.334C146.084 666.167 151.667 683.376 158.334 678.834C162.577 675.943 155.781 661.783 151.001 655.334C143.834 645.666 127.751 642 118.668 629.834C112.265 621.258 116.027 611.64 120.335 610.001C126.252 607.75 131.675 613.109 132.857 618.522C134.44 625.77 137.633 637.29 146.168 630.835C156.085 623.334 141.155 609.208 133.835 601.169C120.252 586.251 113.752 562.834 125.502 559.169C130.733 557.537 135.085 564.834 136.335 573.169C137.77 582.733 144.804 613.34 151.002 609.835C154.835 607.667 146.335 600.336 146.002 594.169C145.669 588.002 146.502 579.168 143.502 571.335C140.502 563.502 132.624 542.772 136.835 530.502C140.667 519.333 148.498 521.056 150.167 522.168Z" fill="url(#paint17_linear_384_1619)"/>
<path d="M232.813 646.313C236.251 647.938 235.063 653.126 228.769 657.732C222.814 662.089 214.274 662.26 214.063 659.972C213.853 657.683 218.646 657.545 222.563 653.813C226.48 650.079 228.236 644.149 232.813 646.313Z" fill="url(#paint18_linear_384_1619)"/>
<path d="M605.982 298.517L601.333 298.533V415.666H609.333C610.924 415.666 612.45 415.034 613.576 413.909C614.701 412.784 615.333 411.257 615.333 409.666V306.625C615.333 302.5 612.75 298.517 605.982 298.517Z" fill="#9180E6"/>
<path d="M528.5 443.75C542.25 431.501 535 415.667 533 413.5H501.374C503.374 415.667 510.624 431.501 496.874 443.75H528.5Z" fill="url(#paint19_linear_384_1619)"/>
<path d="M529.73 445.544L527.169 442.257C531.869 438.07 534.394 433.047 534.673 427.329C534.988 420.871 532.284 415.675 531.529 414.857L534.468 412.144C536.108 413.92 539.023 420.255 538.667 427.524C538.34 434.258 535.185 440.686 529.73 445.544Z" fill="#9180E6"/>
<path d="M529.708 445.515C529.708 445.515 528.937 442.375 528.217 441.242H473.794C472.203 441.242 470.677 441.874 469.551 443C468.426 444.125 467.794 445.651 467.794 447.242V447.575H529.708V445.515Z" fill="#9180E6"/>
<path d="M416.333 409.667C416.333 411.258 416.965 412.784 418.09 413.91C419.216 415.035 420.742 415.667 422.333 415.667H605.333C606.924 415.667 608.45 415.035 609.576 413.91C610.701 412.784 611.333 411.258 611.333 409.667V304.333C611.333 302.742 610.701 301.216 609.576 300.09C608.45 298.965 606.924 298.333 605.333 298.333L422.333 305.833C420.742 305.833 419.216 306.465 418.09 307.59C416.965 308.716 416.333 310.242 416.333 311.833V409.667Z" fill="url(#paint20_linear_384_1619)"/>
<path d="M424 401L600.667 398V308.333L424 315.833V401Z" fill="url(#paint21_linear_384_1619)"/>
<path d="M590.46 323.089C590.532 325.051 588.801 326.708 586.594 326.789L487.672 330.555C485.465 330.637 483.616 329.111 483.544 327.149L483.462 324.928C483.39 322.966 485.121 321.309 487.329 321.227L586.25 317.461C588.458 317.38 590.306 318.905 590.378 320.867L590.46 323.089Z" fill="url(#paint22_linear_384_1619)"/>
<path d="M559.75 381.25C559.75 381.78 559.539 382.289 559.164 382.664C558.789 383.039 558.28 383.25 557.75 383.25L470 384.75C469.47 384.75 468.961 384.539 468.586 384.164C468.211 383.789 468 383.28 468 382.75V343.25C468 342.72 468.211 342.211 468.586 341.836C468.961 341.461 469.47 341.25 470 341.25L557.75 339.75C558.28 339.75 558.789 339.961 559.164 340.336C559.539 340.711 559.75 341.22 559.75 341.75V381.25Z" fill="#FF9BBB"/>
<path d="M439.675 331.738C442.253 331.738 444.342 329.648 444.342 327.071C444.342 324.493 442.253 322.404 439.675 322.404C437.098 322.404 435.008 324.493 435.008 327.071C435.008 329.648 437.098 331.738 439.675 331.738Z" fill="#FBBB6C"/>
<path d="M455.371 331.388C457.949 331.388 460.038 329.299 460.038 326.721C460.038 324.144 457.949 322.054 455.371 322.054C452.794 322.054 450.704 324.144 450.704 326.721C450.704 329.299 452.794 331.388 455.371 331.388Z" fill="#5265F9"/>
<path d="M471.067 331.038C473.644 331.038 475.734 328.949 475.734 326.371C475.734 323.794 473.644 321.704 471.067 321.704C468.489 321.704 466.4 323.794 466.4 326.371C466.4 328.949 468.489 331.038 471.067 331.038Z" fill="#EA4D81"/>
<path d="M548.58 351.453C534.75 351.25 486 352.5 469.5 350.5C453 348.5 434.021 341.443 427.25 335.75C426.793 335.369 426.361 334.958 425.956 334.522C427.167 338.834 428.875 342.75 427.667 349C426.706 353.973 421.695 361.059 414.841 364.035C417.777 365.393 420.896 366.716 424 367.833C436.5 372.333 461.508 374.666 478.167 374.666H548.834L548.58 351.453Z" fill="url(#paint23_linear_384_1619)"/>
<path d="M548.58 351.453C544.45 351.392 537.195 351.461 528.627 351.535C530.75 353.375 536.625 362.708 529.25 374.667H548.834L548.58 351.453Z" fill="url(#paint24_linear_384_1619)"/>
<path d="M427.667 349C428.875 342.75 427.167 338.833 425.956 334.522C423.636 332.014 423.571 329.779 420.875 325.25C418.056 320.513 416.576 316.382 416.333 313.75C415.833 308.333 419.153 303.963 418.736 300.463C418.339 297.128 409.621 295.839 406.75 300.75C404.167 305.167 405.487 311.769 405.875 314.125C406.417 317.417 406 318.75 406 318.75C406 318.75 397.75 329.125 397.375 337.5C397 345.875 398.75 355.5 398.75 355.5C398.75 355.5 405.954 359.926 414.841 364.035C421.695 361.059 426.706 353.973 427.667 349Z" fill="url(#paint25_linear_384_1619)"/>
<path d="M510.514 374.667C507.28 366.097 499.006 360 489.304 360C479.736 360 471.558 365.932 468.233 374.315C472.575 374.548 476.734 374.667 480.471 374.667H510.514Z" fill="url(#paint26_linear_384_1619)"/>
<path d="M510.514 375.417C510.362 375.417 510.213 375.371 510.087 375.284C509.962 375.197 509.866 375.075 509.812 374.932C506.611 366.45 498.37 360.75 489.304 360.75C480.262 360.75 472.265 366.183 468.93 374.592C468.851 374.769 468.707 374.908 468.527 374.981C468.348 375.054 468.148 375.055 467.968 374.984C467.788 374.912 467.642 374.774 467.562 374.598C467.481 374.422 467.471 374.222 467.535 374.039C471.098 365.055 479.643 359.25 489.304 359.25C498.99 359.25 507.795 365.339 511.216 374.402C511.259 374.516 511.274 374.638 511.259 374.758C511.244 374.879 511.2 374.994 511.131 375.094C511.062 375.193 510.97 375.275 510.862 375.331C510.755 375.388 510.635 375.417 510.514 375.417Z" fill="#AD7CF7"/>
<path d="M494.718 375.417C494.557 375.417 494.4 375.365 494.271 375.269C494.142 375.174 494.047 375.039 494 374.885C493.318 372.64 491.284 371.132 488.937 371.132C486.59 371.132 484.556 372.64 483.874 374.885C483.815 375.075 483.684 375.233 483.509 375.327C483.333 375.421 483.128 375.441 482.938 375.385C482.748 375.327 482.588 375.195 482.495 375.02C482.401 374.845 482.381 374.639 482.438 374.449C483.313 371.568 485.924 369.632 488.936 369.632C491.948 369.632 494.559 371.568 495.434 374.449C495.468 374.561 495.475 374.679 495.454 374.794C495.434 374.909 495.388 375.018 495.318 375.112C495.249 375.206 495.158 375.282 495.054 375.335C494.95 375.388 494.835 375.416 494.718 375.417Z" fill="#AD7CF7"/>
<path d="M392.125 332.938C391.625 331.938 389.312 324.938 394.063 321.375C398.574 317.992 404.329 317.459 407.501 319.75C409.904 321.486 413.662 324.74 413.751 329.375C413.814 332.625 411.313 335.5 411.313 335.5C411.313 335.5 413.626 338 413.501 341.125C413.351 344.874 410.876 347.125 410.876 347.125C410.876 347.125 412.189 353.813 408.438 355.25C405.403 356.413 403.125 354.562 401.125 354.625C399.371 354.68 399.467 355.931 399.467 355.931C399.467 355.931 395.302 356.17 394 354C392.312 351.187 393.625 347 393.625 347C393.625 347 390.639 342.873 390.5 338.5C390.375 334.563 392.125 332.938 392.125 332.938Z" fill="url(#paint27_linear_384_1619)"/>
<path d="M408.438 355.25C412.188 353.812 410.876 347.125 410.876 347.125C410.876 347.125 413.351 344.874 413.501 341.125C413.626 338 411.313 335.5 411.313 335.5C411.313 335.5 413.813 332.625 413.751 329.375C413.662 324.74 409.904 321.486 407.501 319.75C406.217 318.823 404.507 318.366 402.63 318.366C404.004 320.007 405.375 323.19 404.689 326.187C403.754 330.265 400.251 330.794 400.251 330.794C400.251 330.794 403.126 333.125 402.876 337.375C402.626 341.625 400 343.333 400 343.333C400 343.333 403.501 345.375 403.126 349C402.751 352.625 400.107 354.864 400.107 354.864C400.347 354.733 400.672 354.638 401.126 354.624C403.125 354.563 405.402 356.413 408.438 355.25Z" fill="url(#paint28_linear_384_1619)"/>
<path d="M416.33 313.686C415.862 308.299 419.151 303.95 418.736 300.464C418.339 297.129 409.621 295.84 406.75 300.751C404.187 305.133 405.466 311.659 405.864 314.064C407.482 315.314 409.87 316.355 412.083 316.418C413.736 316.464 415.322 314.925 416.33 313.686Z" fill="url(#paint29_linear_384_1619)"/>
<path d="M444.106 357.092C444.738 351.234 442.84 345.856 441.02 343.114C435.019 340.732 430.072 338.123 427.249 335.75C426.792 335.369 426.36 334.958 425.955 334.522C427.166 338.834 428.874 342.75 427.666 349C426.705 353.973 421.694 361.059 414.84 364.035C417.776 365.393 420.895 366.716 423.999 367.833C427.393 369.055 431.712 370.115 436.531 371.014C437.818 369.837 443.316 364.412 444.106 357.092Z" fill="url(#paint30_linear_384_1619)"/>
<path d="M529.249 375.417C529.116 375.417 528.984 375.381 528.869 375.313C528.754 375.246 528.659 375.149 528.594 375.032C528.529 374.915 528.496 374.784 528.499 374.65C528.502 374.517 528.541 374.386 528.611 374.273C535.799 362.617 529.965 353.687 528.135 352.102C527.985 351.971 527.892 351.787 527.878 351.588C527.864 351.39 527.929 351.194 528.06 351.043C528.19 350.893 528.375 350.8 528.573 350.786C528.772 350.772 528.968 350.837 529.118 350.968C531.139 352.72 537.627 362.512 529.889 375.06C529.822 375.169 529.728 375.259 529.616 375.322C529.503 375.384 529.377 375.417 529.249 375.417ZM411.875 336.344C411.765 336.344 411.655 336.32 411.556 336.273C411.456 336.226 411.367 336.157 411.297 336.072C409.592 334.008 403.956 331.708 401.454 331.412C399.191 331.149 396.248 331.869 392.438 333.62C392.259 333.692 392.059 333.693 391.88 333.621C391.7 333.55 391.555 333.413 391.475 333.237C391.394 333.062 391.384 332.862 391.447 332.68C391.509 332.497 391.64 332.346 391.811 332.257C395.878 330.386 399.085 329.623 401.629 329.923C404.487 330.26 410.474 332.722 412.452 335.117C412.542 335.226 412.6 335.359 412.617 335.5C412.635 335.641 412.612 335.784 412.552 335.913C412.492 336.041 412.396 336.15 412.276 336.226C412.156 336.303 412.017 336.343 411.875 336.344ZM411.219 348.281C411.066 348.281 410.916 348.234 410.79 348.146C410.664 348.058 410.568 347.934 410.515 347.79C409.984 346.344 405.692 344.163 402.033 343.915C398.269 343.665 394.125 347.75 394.084 347.791C394.015 347.862 393.932 347.92 393.841 347.959C393.749 347.998 393.651 348.019 393.551 348.02C393.452 348.021 393.353 348.002 393.261 347.964C393.168 347.927 393.085 347.871 393.014 347.801C392.944 347.73 392.888 347.646 392.85 347.554C392.813 347.462 392.794 347.363 392.794 347.264C392.795 347.164 392.816 347.066 392.855 346.974C392.894 346.883 392.951 346.8 393.023 346.731C393.211 346.543 397.689 342.115 402.134 342.418C405.852 342.67 411.048 344.891 411.923 347.272C411.965 347.385 411.978 347.507 411.963 347.627C411.948 347.747 411.903 347.861 411.834 347.96C411.765 348.059 411.673 348.14 411.566 348.196C411.459 348.252 411.34 348.281 411.219 348.281ZM425.247 369.011C425.079 369.01 424.917 368.953 424.785 368.85C424.653 368.746 424.56 368.601 424.52 368.438C424.481 368.275 424.496 368.104 424.565 367.951C424.634 367.798 424.753 367.673 424.901 367.595C424.977 367.555 432.634 363.48 434.896 354.197C436.162 348.999 435.079 343.512 433.443 340.38C433.362 340.205 433.352 340.005 433.414 339.823C433.477 339.64 433.607 339.489 433.778 339.4C433.949 339.311 434.147 339.29 434.333 339.344C434.518 339.397 434.676 339.519 434.773 339.686C436.409 342.819 437.805 348.593 436.353 354.553C433.925 364.52 425.929 368.753 425.59 368.928C425.484 368.982 425.366 369.01 425.247 369.011Z" fill="#AD7CF7"/>
<path d="M555.75 389.702C566.611 389.702 575.416 380.897 575.416 370.036C575.416 359.175 566.611 350.37 555.75 350.37C544.889 350.37 536.084 359.175 536.084 370.036C536.084 380.897 544.889 389.702 555.75 389.702Z" fill="url(#paint31_linear_384_1619)"/>
<path d="M567.32 359.341C566.767 358.956 566.083 358.807 565.42 358.926C564.757 359.045 564.168 359.423 563.783 359.976L554.4 373.463L543.993 364.544C543.612 364.22 543.123 364.051 542.623 364.069C542.123 364.086 541.648 364.29 541.29 364.64C540.932 364.989 540.718 365.46 540.688 365.959C540.659 366.459 540.818 366.951 541.132 367.34L552.518 381.261C552.866 381.686 553.313 382.02 553.82 382.233C554.327 382.445 554.878 382.531 555.425 382.482C555.973 382.432 556.5 382.25 556.96 381.95C557.421 381.65 557.801 381.242 558.067 380.761L558.129 380.65L568.093 362.658C568.395 362.107 568.483 361.464 568.34 360.852C568.198 360.24 567.834 359.702 567.32 359.341Z" fill="url(#paint32_linear_384_1619)"/>
<path d="M645.417 411.889C638.744 411.889 633.334 416.663 633.334 422.556C633.334 428.449 638.744 433.223 645.417 433.223C652.09 433.223 657.5 428.449 657.5 422.556C657.5 416.663 652.09 411.889 645.417 411.889ZM644.729 427.223C643.491 427.223 642.304 426.731 641.429 425.856C640.554 424.981 640.062 423.794 640.062 422.556C640.062 421.318 640.554 420.131 641.429 419.256C642.304 418.381 643.491 417.889 644.729 417.889C645.967 417.889 647.154 418.381 648.029 419.256C648.904 420.131 649.396 421.318 649.396 422.556C649.396 423.794 648.904 424.981 648.029 425.856C647.154 426.731 645.967 427.223 644.729 427.223Z" fill="url(#paint33_linear_384_1619)"/>
<path d="M638.709 446.5H611.167L603.667 403.449H646.209L638.709 446.5Z" fill="url(#paint34_linear_384_1619)"/>
<path d="M624.962 414.833C636.723 414.833 646.257 409.736 646.257 403.449C646.257 397.162 636.723 392.065 624.962 392.065C613.201 392.065 603.667 397.162 603.667 403.449C603.667 409.736 613.201 414.833 624.962 414.833Z" fill="#FF9BBB"/>
<path d="M624.962 409.833C633.624 409.833 640.645 406.606 640.645 402.625C640.645 398.644 633.624 395.417 624.962 395.417C616.301 395.417 609.279 398.644 609.279 402.625C609.279 406.606 616.301 409.833 624.962 409.833Z" fill="url(#paint35_linear_384_1619)"/>
<path d="M629.751 401.083C629.792 399.583 625.083 398.833 626.167 394.583C627.251 390.333 632.167 387.666 639.251 386C645.016 384.644 652.19 382.58 652.417 376.583C652.584 372.166 648.584 371.416 646.084 370.916C643.584 370.416 640.667 368.916 641.417 366.333C642.167 363.75 645.011 359.072 641.261 356.406C636.514 353.031 622.75 353.333 618.917 362.416C615.084 371.499 624.083 372.916 625.917 373.416C627.751 373.916 631.697 374.971 630.001 378.583C628.084 382.666 617.48 387.583 617.334 394.5C617.167 402.375 629.651 404.737 629.751 401.083Z" fill="url(#paint36_linear_384_1619)"/>
<path d="M603.334 349.75C606.376 350.125 607.667 353.208 607.001 357.083C606.244 361.485 604.335 364 606.751 367.166C609.167 370.332 613.335 371.749 612.001 373.833C610.667 375.917 599.834 374 595.917 366.166C591.966 358.266 596.387 348.894 603.334 349.75Z" fill="url(#paint37_linear_384_1619)"/>
<path d="M593.771 377.5C595.865 378.531 597.552 382.125 599.771 382.563C601.324 382.869 603.494 383.063 603.459 384.876C603.428 386.47 600.646 387.376 596.053 387.032C591.604 386.699 587.623 382.923 589.084 379.407C590.084 377 592.854 377.048 593.771 377.5Z" fill="url(#paint38_linear_384_1619)"/>
<path d="M683.958 450.333H556.834V462.166C556.834 470.45 563.55 477.166 571.834 477.166H684.523C684.801 473.558 684.967 469.842 685 465.999C685.038 460.758 684.689 455.522 683.958 450.333Z" fill="url(#paint39_linear_384_1619)"/>
<path d="M608 470.667C610.578 470.667 612.667 468.578 612.667 466C612.667 463.422 610.578 461.333 608 461.333C605.422 461.333 603.333 463.422 603.333 466C603.333 468.578 605.422 470.667 608 470.667Z" fill="#5265F9"/>
<path d="M657.667 477.917C657.468 477.917 657.277 477.838 657.137 477.698C656.996 477.557 656.917 477.366 656.917 477.167V454.95C656.917 454.751 656.996 454.561 657.137 454.42C657.277 454.279 657.468 454.2 657.667 454.2C657.866 454.2 658.057 454.279 658.197 454.42C658.338 454.561 658.417 454.751 658.417 454.95V477.167C658.417 477.366 658.338 477.557 658.197 477.698C658.057 477.838 657.866 477.917 657.667 477.917Z" fill="#FFA2BA"/>
<path d="M442.292 445.5V454.951H684.498C684.195 451.783 683.754 448.629 683.174 445.5H442.292Z" fill="url(#paint40_linear_384_1619)"/>
<path d="M317.875 568.875C318.096 579.001 317.667 647.999 316.833 657.833C320.012 661.808 325.666 657.5 325.666 657.5C325.666 657.5 330.249 638.75 332.333 613.333C334.136 591.344 334.666 569.5 334.666 569.5L317.875 568.875Z" fill="url(#paint41_linear_384_1619)"/>
<path d="M321.117 616.492C319.402 616.492 318.04 616.377 317.462 616.215C317.207 616.143 316.99 615.973 316.861 615.741C316.731 615.51 316.699 615.236 316.771 614.981C316.843 614.726 317.013 614.51 317.245 614.38C317.476 614.25 317.75 614.218 318.005 614.29C319.505 614.715 328.609 614.666 331.77 612.508C331.989 612.359 332.259 612.302 332.52 612.351C332.78 612.401 333.011 612.551 333.16 612.771C333.31 612.99 333.366 613.259 333.317 613.52C333.268 613.781 333.117 614.012 332.898 614.161C330.281 615.945 324.859 616.492 321.117 616.492Z" fill="#7B7BEF"/>
<path d="M232 418C222.47 419.292 190.388 429.86 186.531 451.861C186.408 452.562 187.65 454.308 187.875 455C195.625 478.875 230.625 511 244 513.25C244.59 513.35 245.43 513.974 246.022 513.744C255.241 510.175 264.841 492.467 272.75 486.75C276.188 484.265 232 418 232 418Z" fill="url(#paint42_linear_384_1619)"/>
<path d="M190.234 442.361C188.075 445.843 186.628 449.715 186.25 454C184.5 473.834 230.4 516.735 244.25 514.25C245.813 513.97 247.391 513.225 248.974 512.153C220.344 500.962 194.356 459.191 190.234 442.361Z" fill="url(#paint43_linear_384_1619)"/>
<path d="M315.25 530.5C324.25 530.482 369.774 531.323 377.5 536C383.833 539.834 385.202 546.192 381.426 552.192C377.65 558.192 359.75 569.375 323.75 569.625C287.75 569.875 264.75 562.25 264.5 553.5C264.25 544.75 268.32 531.663 290.5 529.5C304.167 528.167 310.25 530.51 315.25 530.5Z" fill="url(#paint44_linear_384_1619)"/>
<path d="M324.5 573.25C360.5 573 377.649 558.192 381.426 552.192C383.082 549.56 383.748 546.859 383.44 544.333C373.742 551.095 352.199 557.99 323.501 559.167C295.313 560.323 271.774 556.077 264.5 553.419L264.501 553.5C264.75 562.25 288.5 573.5 324.5 573.25Z" fill="url(#paint45_linear_384_1619)"/>
<path d="M242.606 708.543C245.333 700.667 262.375 672 297.5 659.334C330.623 647.39 356.777 657.452 363.555 662.56C370.333 667.668 359.18 676.793 353.488 672.192C347.375 667.251 331.375 662.376 312.883 667.498C288.584 674.228 266.626 694.501 266.482 709.745C249.5 720.167 242.606 708.543 242.606 708.543Z" fill="url(#paint46_linear_384_1619)"/>
<path d="M312.633 664.026C291.238 669.617 262.446 685.176 257.979 713.502C260.473 712.875 263.3 711.696 266.481 709.744C266.625 694.5 288.583 674.227 312.882 667.497C331.375 662.375 347.375 667.25 353.487 672.191C355.696 673.977 358.725 673.69 361.212 672.379C350.555 661.002 333.386 658.604 312.633 664.026Z" fill="#665EDB"/>
<path d="M254.333 726C261.329 726 267 720.329 267 713.333C267 706.337 261.329 700.666 254.333 700.666C247.337 700.666 241.666 706.337 241.666 713.333C241.666 720.329 247.337 726 254.333 726Z" fill="url(#paint47_linear_384_1619)"/>
<path d="M363.555 682.739C369.128 682.739 373.645 678.222 373.645 672.649C373.645 667.076 369.128 662.559 363.555 662.559C357.983 662.559 353.465 667.076 353.465 672.649C353.465 678.222 357.983 682.739 363.555 682.739Z" fill="url(#paint48_linear_384_1619)"/>
<path d="M254.333 717.25C252.173 717.25 250.416 715.493 250.416 713.333C250.416 711.173 252.173 709.416 254.333 709.416C256.493 709.416 258.25 711.173 258.25 713.333C258.25 715.493 256.493 717.25 254.333 717.25ZM254.333 710.916C253 710.916 251.916 712 251.916 713.333C251.916 714.666 253 715.75 254.333 715.75C255.666 715.75 256.75 714.666 256.75 713.333C256.75 712 255.666 710.916 254.333 710.916ZM363.555 676.566C361.395 676.566 359.638 674.809 359.638 672.649C359.638 670.489 361.395 668.732 363.555 668.732C365.715 668.732 367.472 670.489 367.472 672.649C367.472 674.809 365.715 676.566 363.555 676.566ZM363.555 670.232C362.222 670.232 361.138 671.316 361.138 672.649C361.138 673.982 362.222 675.066 363.555 675.066C364.888 675.066 365.972 673.982 365.972 672.649C365.972 671.316 364.888 670.232 363.555 670.232Z" fill="#7B7BEF"/>
<path d="M263.609 333.708C264.083 340.084 262.333 366.667 253.083 379.667C256.362 387.063 274.019 387.681 280 387.167C293.583 386 303.167 378.5 303.167 378.5C303.167 378.5 298 351.167 292.167 342C287.655 340.565 281.584 339.917 275.917 338.083C270.25 336.249 263.609 333.708 263.609 333.708Z" fill="url(#paint49_linear_384_1619)"/>
<path d="M300.167 302.333C292.992 290.268 282.369 281.291 280.667 279.5C280.667 279.5 249.792 273.66 241.334 297.167C236.417 310.834 251.167 326 251.167 326C251.167 326 252.516 326.513 254.567 327.584C253.797 328.232 253.179 329.041 252.754 329.953C252.33 330.865 252.11 331.86 252.111 332.866C252.111 334.7 252.84 336.46 254.137 337.757C255.434 339.054 257.194 339.783 259.028 339.783C260.415 339.783 261.77 339.365 262.917 338.584C264.063 337.804 264.948 336.696 265.457 335.406C265.574 335.52 265.693 335.626 265.809 335.742C270.833 340.751 290.046 350.884 301.357 340.503C311.167 331.5 306.337 312.71 300.167 302.333Z" fill="url(#paint50_linear_384_1619)"/>
<path d="M297.667 251.25C293.915 248.748 285.917 253.25 281.667 257.583C277.417 261.916 271.583 265.166 270 263.416C268.417 261.666 272.47 259.83 270.583 257.416C268.5 254.749 257 258.083 251.75 267.083C246.5 276.083 242.334 288.166 237.917 289.5C233.5 290.834 234.75 283.917 230.167 283.75C225.584 283.583 219.75 289.5 218.334 294.167C216.229 301.103 218.251 306.084 221.501 306.334C227.351 306.784 230.751 297.751 234.834 299.834C237.624 301.257 235.751 307.25 234.251 312.417C232.751 317.584 234.668 324.5 240.668 329.25C245.156 332.803 249.449 333.546 252.149 333.583C252.124 333.344 252.112 333.105 252.112 332.865C252.112 329.196 254.97 326.203 258.581 325.97C259.019 324.217 259.123 322.382 258.501 320.749C256.501 315.499 242.451 304.042 245.084 298.082C246.667 294.499 250.917 294.415 258.584 294.165C266.251 293.915 270.968 294.569 271.751 291.582C272.668 288.082 265.784 289.365 266.251 287.499C267.001 284.499 279.636 286.885 290.418 275.499C300.833 264.5 301.417 253.75 297.667 251.25Z" fill="url(#paint51_linear_384_1619)"/>
<path d="M283.25 325.667C283.25 325.667 288.417 325.25 291.25 324.917C294.083 324.584 301.167 324.084 301.167 324.084C301.167 324.084 298.667 331.917 292.917 332.584C287.167 333.251 283.25 325.667 283.25 325.667Z" fill="white"/>
<path d="M269.238 313.856C269.149 313.856 269.062 313.832 268.985 313.788C268.909 313.743 268.845 313.678 268.802 313.601C267.552 311.381 267.833 308.768 269.5 307.1C270.998 305.602 273.317 305.213 275.41 306.111C275.472 306.135 275.529 306.172 275.577 306.219C275.625 306.266 275.663 306.321 275.689 306.383C275.715 306.445 275.728 306.511 275.728 306.578C275.728 306.645 275.714 306.712 275.688 306.773C275.661 306.835 275.623 306.89 275.575 306.937C275.526 306.983 275.469 307.02 275.407 307.044C275.344 307.067 275.277 307.079 275.21 307.076C275.143 307.074 275.078 307.058 275.017 307.03C273.302 306.294 271.414 306.6 270.207 307.807C268.86 309.154 268.646 311.286 269.673 313.111C269.716 313.187 269.738 313.273 269.737 313.36C269.736 313.447 269.713 313.533 269.669 313.608C269.625 313.683 269.562 313.746 269.486 313.789C269.411 313.833 269.325 313.856 269.238 313.856ZM288.691 298.874C288.58 298.874 288.472 298.836 288.384 298.768C288.296 298.7 288.234 298.604 288.207 298.496C287.793 296.855 288.14 295.329 289.158 294.311C290.356 293.113 292.282 292.855 294.182 293.639C294.305 293.689 294.402 293.787 294.453 293.909C294.504 294.032 294.504 294.169 294.454 294.292C294.403 294.415 294.306 294.512 294.184 294.563C294.061 294.614 293.924 294.614 293.801 294.564C292.28 293.937 290.772 294.112 289.864 295.019C289.101 295.782 288.85 296.961 289.176 298.253C289.194 298.327 289.196 298.404 289.18 298.478C289.164 298.552 289.132 298.622 289.085 298.682C289.038 298.742 288.978 298.79 288.91 298.823C288.842 298.857 288.767 298.874 288.691 298.874Z" fill="#212F66"/>
<path d="M268.583 180.869C268.791 181.663 268.873 182.175 268.956 182.725C269.039 183.261 269.087 183.776 269.136 184.287C269.219 185.308 269.261 186.309 269.262 187.31C269.259 189.31 269.172 191.296 269.079 193.279C268.885 197.244 268.514 201.201 268.262 205.15C267.94 209.102 267.787 213.043 267.743 216.977C267.728 217.961 267.734 218.944 267.768 219.925C267.781 220.907 267.834 221.887 267.892 222.867C267.947 223.846 268.036 224.825 268.142 225.798C268.253 226.752 268.381 227.787 268.59 228.627C268.666 228.933 268.676 229.251 268.618 229.56C268.561 229.87 268.438 230.163 268.257 230.421C268.076 230.678 267.842 230.894 267.57 231.054C267.299 231.213 266.996 231.312 266.683 231.344C266.37 231.376 266.054 231.341 265.755 231.24C265.457 231.14 265.184 230.976 264.955 230.76C264.725 230.545 264.545 230.283 264.425 229.991C264.306 229.7 264.251 229.387 264.263 229.072L264.265 229.037C264.313 227.918 264.358 226.99 264.367 225.982C264.381 224.996 264.373 224.01 264.343 223.025C264.319 222.042 264.274 221.059 264.208 220.078C264.156 219.096 264.08 218.115 263.98 217.137C263.6 213.219 263.115 209.307 262.445 205.407L260.507 193.726C260.208 191.785 259.904 189.847 259.651 187.925C259.53 186.976 259.434 186.023 259.361 185.069C259.331 184.6 259.295 184.136 259.28 183.695C259.26 183.269 259.244 182.802 259.271 182.63L259.471 181.338C259.565 180.733 259.777 180.153 260.095 179.63C260.413 179.107 260.831 178.652 261.324 178.29C261.818 177.929 262.379 177.668 262.973 177.524C263.568 177.379 264.185 177.352 264.79 177.446C265.687 177.586 266.523 177.985 267.197 178.593C267.87 179.201 268.352 179.992 268.583 180.869Z" fill="url(#paint52_linear_384_1619)"/>
<path d="M235.42 203.056C235.575 203.789 235.996 205.077 236.407 206.284L237.757 210.07C238.683 212.638 239.685 215.221 240.509 217.901L241.829 221.897C242.295 223.214 242.81 224.514 243.374 225.793C243.92 227.066 244.519 228.316 245.168 229.54C245.493 230.143 245.812 230.749 246.164 231.313C246.514 231.865 246.886 232.444 247.23 232.817L247.244 232.832C247.398 233.004 247.518 233.204 247.594 233.422C247.671 233.64 247.705 233.871 247.692 234.102C247.68 234.333 247.622 234.559 247.522 234.768C247.423 234.976 247.283 235.163 247.111 235.318C246.939 235.472 246.738 235.591 246.52 235.668C246.302 235.745 246.071 235.779 245.84 235.766C245.61 235.754 245.383 235.696 245.175 235.596C244.966 235.497 244.779 235.357 244.625 235.185C244.103 234.583 243.617 233.951 243.168 233.294C242.741 232.682 242.321 232.085 241.922 231.477L239.557 227.85C238.782 226.637 237.993 225.432 237.192 224.237C236.371 223.047 235.568 221.845 234.783 220.632C233.181 218.215 231.856 215.654 230.63 213.004C230.007 211.657 229.445 210.284 228.946 208.887C228.682 208.149 228.448 207.4 228.247 206.643C228.135 206.229 228.039 205.812 227.958 205.391C227.911 205.155 227.872 204.919 227.84 204.681L227.783 204.213L227.766 203.947C227.707 202.975 228.017 202.018 228.634 201.266C229.252 200.513 230.131 200.022 231.095 199.891C232.059 199.759 233.037 199.997 233.833 200.557C234.63 201.116 235.185 201.956 235.388 202.908L235.42 203.056Z" fill="url(#paint53_linear_384_1619)"/>
<path d="M296.263 192.592L295.464 197.028C295.173 198.536 294.861 200.04 294.526 201.538C293.834 204.544 292.951 207.535 291.739 210.484C291.429 211.227 291.089 211.957 290.718 212.672C290.536 213.033 290.329 213.392 290.13 213.746L289.566 214.699C288.821 215.972 288.052 217.229 287.355 218.509C286.65 219.783 285.986 221.071 285.456 222.361C284.928 223.628 284.522 224.982 284.581 225.968C284.6 226.271 284.555 226.575 284.449 226.86C284.343 227.144 284.178 227.403 283.966 227.621C283.754 227.838 283.498 228.008 283.216 228.12C282.934 228.233 282.632 228.285 282.328 228.273C282.025 228.261 281.727 228.186 281.454 228.052C281.182 227.919 280.94 227.729 280.745 227.496C280.551 227.263 280.407 226.992 280.323 226.7C280.239 226.408 280.218 226.102 280.26 225.801L280.275 225.698C280.557 223.725 281.231 222.274 281.829 220.825C282.455 219.397 283.096 218.033 283.722 216.67L285.585 212.611L286.049 211.603C286.181 211.297 286.316 211.001 286.436 210.688C286.683 210.07 286.905 209.433 287.102 208.78C287.917 206.176 288.33 203.376 288.609 200.559C288.9 197.719 288.924 194.911 288.924 191.907C288.923 191.394 289.029 190.886 289.236 190.415C289.442 189.945 289.744 189.523 290.122 189.176C290.5 188.829 290.947 188.564 291.433 188.398C291.919 188.233 292.434 188.17 292.946 188.215C293.457 188.259 293.954 188.409 294.404 188.656C294.855 188.902 295.249 189.24 295.562 189.647C295.874 190.055 296.099 190.522 296.221 191.021C296.344 191.52 296.361 192.038 296.272 192.544L296.263 192.592Z" fill="url(#paint54_linear_384_1619)"/>
<path d="M308.612 217.291C307.752 219.107 306.576 220.31 305.455 221.443C304.32 222.568 303.142 223.564 302.009 224.569C300.878 225.573 299.746 226.548 298.726 227.57C298.23 228.062 297.764 228.584 297.33 229.133C296.928 229.658 296.606 230.221 296.53 230.667L296.511 230.778C296.473 231.006 296.352 231.211 296.171 231.354C295.991 231.498 295.763 231.57 295.533 231.556C295.303 231.542 295.086 231.444 294.924 231.28C294.762 231.116 294.666 230.897 294.655 230.667C294.601 229.579 294.962 228.717 295.314 227.941C295.682 227.165 296.119 226.472 296.572 225.808C297.481 224.483 298.454 223.266 299.426 222.082C300.398 220.9 301.346 219.727 302.228 218.582C303.095 217.436 303.917 216.291 304.323 215.334C304.444 215.049 304.619 214.79 304.84 214.573C305.061 214.356 305.322 214.184 305.609 214.068C305.896 213.952 306.203 213.893 306.512 213.896C306.822 213.898 307.128 213.961 307.413 214.082C307.698 214.203 307.957 214.378 308.174 214.599C308.391 214.82 308.563 215.081 308.679 215.368C308.795 215.655 308.854 215.962 308.851 216.271C308.849 216.581 308.786 216.887 308.665 217.172L308.629 217.254L308.612 217.291Z" fill="url(#paint55_linear_384_1619)"/>
<path d="M299.448 289.623C297.164 286.391 293.649 284.384 290.274 284.384C288.655 284.384 287.138 284.851 285.886 285.736C282.327 288.251 281.652 293.571 284.054 298.213C281.913 298.59 280.08 300.269 278.935 301.752C276.923 299.57 274.052 298.193 270.857 298.193C264.791 298.193 259.857 303.128 259.857 309.193C259.857 311.686 260.7 313.98 262.103 315.826C259.787 318.261 255.255 324.25 253.339 328.508L253.58 328.616C254.4 327.566 255.504 326.775 256.762 326.338C258.894 322.79 261.867 319.013 263.457 317.307C265.476 319.162 268.117 320.192 270.859 320.193C276.925 320.193 281.859 315.258 281.859 309.193C281.859 307.071 281.245 305.095 280.201 303.414C281.116 302.108 283.16 299.896 285.297 300.166C287.582 303.186 290.948 305.058 294.196 305.058C295.815 305.058 297.332 304.59 298.584 303.705C302.559 300.894 302.947 294.577 299.448 289.623ZM270.857 318.192C265.894 318.192 261.857 314.154 261.857 309.192C261.857 304.23 265.895 300.192 270.857 300.192C275.819 300.192 279.857 304.23 279.857 309.192C279.857 314.154 275.82 318.192 270.857 318.192ZM297.428 302.07C296.515 302.715 295.397 303.056 294.194 303.056C291.458 303.056 288.569 301.372 286.654 298.662C283.79 294.609 283.964 289.542 287.04 287.369C287.965 286.715 289.053 286.384 290.273 286.384C293.009 286.384 295.898 288.068 297.813 290.778C300.678 294.83 300.504 299.896 297.428 302.07Z" fill="url(#paint56_linear_384_1619)"/>
<path d="M234.306 301.63L234.238 301.629C233.976 301.62 233.717 301.56 233.478 301.451C233.239 301.343 233.024 301.188 232.844 300.996C232.665 300.804 232.525 300.579 232.433 300.333C232.34 300.087 232.297 299.826 232.306 299.563C232.442 295.495 233.632 289.713 235.317 287.466C235.635 287.042 236.109 286.761 236.634 286.686C237.159 286.611 237.693 286.748 238.117 287.066C238.541 287.384 238.822 287.858 238.897 288.383C238.972 288.908 238.835 289.442 238.517 289.866C237.623 291.057 236.437 295.708 236.304 299.696C236.287 300.215 236.069 300.706 235.696 301.067C235.323 301.428 234.825 301.63 234.306 301.63Z" fill="#FF57BC"/>
<path d="M285.294 300.159C289.738 301.84 299.931 308.339 300.5 311.75C300.917 314.25 293.167 316.833 292.583 316C291.999 315.167 289.916 310.667 287.25 306.833C285.266 303.98 283.189 301.958 282.934 300.759C283.34 300.541 284.438 299.979 285.294 300.159Z" fill="url(#paint57_linear_384_1619)"/>
<path d="M203.865 275.185C200.14 250.077 202.429 234.568 202.75 229.125C203.25 220.625 208.625 213.542 211 207.25C212.955 202.073 215.708 198.75 213.875 197.5C211.164 195.652 206.25 202.083 206.25 202.083C206.25 202.083 207.042 185.333 203.375 185.5C200.25 185.642 202.25 195.375 200.5 195.875C198.75 196.375 195.792 186.75 193.125 187.125C191.681 187.328 191.458 190.833 191.458 190.833C191.458 190.833 190.683 190.182 189.875 190.875C188.708 191.875 189.731 197.774 188.75 200.125C188.338 199.543 188.025 199.12 187.417 199.25C182.729 200.25 183.543 224.546 182.834 230C181.697 238.735 180.813 256.05 181.895 276.867C186.335 277.366 194.593 277.654 203.865 275.185Z" fill="url(#paint58_linear_384_1619)"/>
<path d="M361.386 260.515C360.433 251.348 359.646 244.458 359.5 242.166C359 234.333 358.667 227.833 357.833 220.499C356.999 213.165 354.166 205.166 353.666 202.499C353.166 199.832 354.097 196.201 352.812 193.186C351.729 190.644 350.416 191.665 350.416 191.665C350.416 191.665 350.328 188.042 348.749 188.165C346.874 188.311 344.374 199.811 343.082 199.998C342.34 200.106 343.249 186.873 340.999 186.623C339.384 186.443 338.186 188.686 336.624 195.936C335.276 202.192 337.257 213.249 336.249 213.249C335.124 213.249 334.499 208.249 333.374 204.999C332.249 201.749 330.936 198.561 329.249 198.749C327.571 198.936 327.287 202.893 328.037 208.518C328.633 212.985 335.749 235.499 338.749 245.749C339.918 249.744 340.668 256.097 341.046 263.306C345.202 263.896 352.698 264.038 361.386 260.515Z" fill="url(#paint59_linear_384_1619)"/>
<path d="M188.608 199.48C189.036 200.073 189.335 200.786 189.475 201.529C189.545 201.901 189.583 202.281 189.585 202.664C189.584 203.054 189.564 203.415 189.476 203.839C189.462 203.908 189.434 203.973 189.394 204.03C189.353 204.088 189.301 204.136 189.241 204.172C189.181 204.208 189.114 204.231 189.044 204.24C188.974 204.248 188.904 204.242 188.837 204.222C188.769 204.201 188.707 204.167 188.654 204.121C188.601 204.075 188.558 204.019 188.528 203.955C188.498 203.892 188.482 203.823 188.48 203.753C188.478 203.683 188.491 203.613 188.518 203.548L188.523 203.536C188.631 203.273 188.72 202.924 188.775 202.602C188.832 202.272 188.858 201.935 188.854 201.596C188.847 200.906 188.689 200.226 188.391 199.604C188.384 199.589 188.38 199.573 188.379 199.557C188.378 199.54 188.38 199.524 188.385 199.509C188.391 199.493 188.399 199.479 188.41 199.466C188.421 199.454 188.434 199.444 188.449 199.437C188.476 199.425 188.507 199.422 188.536 199.43C188.565 199.438 188.59 199.456 188.608 199.48ZM191.622 189.667C191.479 190.99 191.656 192.322 191.89 193.634C192.01 194.291 192.153 194.945 192.304 195.6C192.453 196.259 192.621 196.901 192.747 197.605C192.756 197.67 192.752 197.736 192.735 197.8C192.718 197.863 192.689 197.923 192.649 197.975C192.609 198.027 192.56 198.071 192.503 198.104C192.446 198.137 192.383 198.159 192.318 198.168C192.253 198.176 192.187 198.172 192.124 198.155C192.06 198.139 192.001 198.11 191.948 198.07C191.896 198.03 191.852 197.98 191.819 197.924C191.786 197.867 191.765 197.804 191.756 197.739L191.755 197.73C191.699 197.097 191.587 196.418 191.496 195.75C191.399 195.076 191.318 194.4 191.252 193.723C191.132 192.369 191.07 190.979 191.337 189.627C191.344 189.589 191.366 189.556 191.397 189.534C191.429 189.513 191.467 189.504 191.505 189.511C191.541 189.517 191.572 189.537 191.594 189.566C191.616 189.595 191.626 189.631 191.622 189.667ZM201.333 193.129C201.358 194.298 201.292 195.466 201.206 196.631C201.161 197.214 201.107 197.797 201.044 198.378C200.977 198.965 200.916 199.533 200.796 200.149C200.784 200.217 200.757 200.281 200.719 200.338C200.681 200.395 200.631 200.443 200.574 200.48C200.516 200.517 200.451 200.542 200.383 200.553C200.316 200.564 200.246 200.561 200.18 200.544C200.113 200.527 200.051 200.497 199.997 200.455C199.942 200.413 199.897 200.36 199.864 200.3C199.831 200.24 199.811 200.174 199.804 200.106C199.798 200.037 199.806 199.968 199.827 199.903L199.831 199.891C199.992 199.381 200.124 198.803 200.251 198.246C200.377 197.683 200.494 197.117 200.604 196.55C200.819 195.414 201.013 194.272 201.118 193.12C201.119 193.106 201.123 193.092 201.13 193.079C201.136 193.067 201.145 193.055 201.156 193.046C201.167 193.037 201.18 193.03 201.194 193.026C201.207 193.022 201.222 193.021 201.236 193.022C201.262 193.025 201.287 193.038 201.304 193.057C201.322 193.077 201.332 193.103 201.333 193.129ZM207.737 200.283C206.853 201.205 206.29 202.411 205.678 203.552L203.909 207.05C203.305 208.213 202.677 209.37 201.943 210.482C201.191 211.572 200.4 212.701 199.101 213.447C198.986 213.513 198.849 213.531 198.721 213.496C198.593 213.461 198.484 213.377 198.418 213.262C198.352 213.147 198.334 213.01 198.369 212.882C198.404 212.754 198.488 212.645 198.603 212.579L198.629 212.565L198.648 212.556C199.671 212.051 200.528 211.034 201.286 210.023C202.046 208.991 202.724 207.882 203.381 206.76L205.323 203.359C205.999 202.243 206.616 201.062 207.595 200.135C207.615 200.119 207.64 200.11 207.665 200.112C207.691 200.113 207.715 200.124 207.733 200.142C207.751 200.16 207.762 200.184 207.763 200.21C207.765 200.235 207.756 200.26 207.74 200.28L207.737 200.283ZM335.643 211.62C335.908 212.447 336.457 213.135 337.07 213.765C337.688 214.392 338.375 214.959 339.081 215.511C339.786 216.065 340.513 216.598 341.223 217.185C341.577 217.481 341.929 217.787 342.259 218.147C342.575 218.513 342.93 218.915 343.039 219.573C343.05 219.638 343.048 219.704 343.033 219.768C343.018 219.832 342.99 219.893 342.952 219.946C342.914 220 342.866 220.045 342.81 220.08C342.754 220.115 342.692 220.138 342.627 220.149C342.562 220.16 342.496 220.158 342.432 220.143C342.368 220.128 342.307 220.101 342.254 220.062C342.2 220.024 342.155 219.976 342.12 219.92C342.085 219.864 342.062 219.802 342.051 219.737L342.045 219.685V219.677C342.03 219.428 341.818 219.07 341.558 218.757C341.279 218.429 340.978 218.12 340.658 217.832C340.008 217.234 339.308 216.661 338.625 216.063C337.94 215.467 337.263 214.848 336.649 214.156C336.045 213.469 335.475 212.673 335.232 211.755L335.228 211.741C335.214 211.685 335.222 211.627 335.251 211.577C335.279 211.527 335.327 211.491 335.382 211.476C335.436 211.462 335.493 211.469 335.541 211.496C335.59 211.523 335.626 211.567 335.643 211.62ZM350.712 191.045C350.802 191.868 350.793 192.676 350.796 193.486C350.793 194.296 350.775 195.104 350.751 195.912C350.696 197.532 350.636 199.135 350.497 200.772C350.486 200.904 350.422 201.027 350.321 201.112C350.219 201.198 350.088 201.24 349.955 201.229C349.823 201.217 349.701 201.154 349.615 201.052C349.529 200.951 349.488 200.819 349.499 200.687L349.503 200.657L349.504 200.644C349.739 199.079 349.906 197.465 350.063 195.869C350.138 195.069 350.208 194.267 350.263 193.467C350.312 192.668 350.371 191.861 350.335 191.076C350.332 191.026 350.349 190.977 350.383 190.939C350.416 190.902 350.463 190.879 350.513 190.876C350.613 190.871 350.699 190.947 350.712 191.045Z" fill="#C66C50"/>
<path d="M332 462.5C329.75 443.75 331.162 418.207 338.75 398.5C344.333 384 360.833 358.167 364.5 334.25C366.965 318.171 363.69 282.681 361.386 260.515C352.698 264.037 345.201 263.895 341.047 263.307C341.639 274.595 341.318 287.986 340.25 297.75C338.5 313.75 328 344.25 314.75 361.25C301.5 378.25 289.25 379.75 279 379.75C263.875 379.75 235.625 377 217.25 326.5C209.938 306.406 205.957 289.287 203.865 275.185C194.593 277.654 186.335 277.367 181.893 276.867C182.792 294.178 185.05 313.909 189.665 333.167C195.493 357.483 206.165 382.5 216.165 401.334C225.189 418.329 229.893 447.589 239.498 472.001C245.613 487.541 253.843 510.548 268.885 525.98C270.42 503.831 299.335 481.666 332 462.5Z" fill="url(#paint60_linear_384_1619)"/>
<path d="M187.521 308.456C186.559 308.456 185.63 308.402 184.742 308.291C184.642 308.282 184.545 308.252 184.457 308.205C184.368 308.157 184.29 308.092 184.227 308.014C184.164 307.936 184.118 307.846 184.09 307.749C184.063 307.653 184.055 307.552 184.067 307.452C184.08 307.353 184.112 307.256 184.162 307.17C184.212 307.083 184.279 307.007 184.359 306.946C184.439 306.885 184.531 306.842 184.628 306.817C184.726 306.792 184.827 306.788 184.926 306.803C191.601 307.632 200.743 305.096 208.788 300.19C208.872 300.139 208.965 300.105 209.063 300.089C209.16 300.074 209.259 300.078 209.355 300.101C209.451 300.125 209.541 300.167 209.621 300.225C209.7 300.283 209.768 300.356 209.819 300.44C209.87 300.524 209.904 300.617 209.92 300.715C209.935 300.812 209.931 300.912 209.907 301.007C209.884 301.103 209.842 301.193 209.784 301.273C209.726 301.352 209.653 301.42 209.569 301.471C202.306 305.901 194.133 308.456 187.521 308.456ZM193.74 348.664C193.552 348.663 193.371 348.592 193.233 348.464C193.095 348.336 193.01 348.161 192.995 347.974C192.98 347.786 193.036 347.6 193.152 347.452C193.268 347.304 193.435 347.205 193.621 347.174C198.104 346.445 214.38 337.08 218.774 331.523C218.9 331.376 219.079 331.284 219.272 331.265C219.464 331.247 219.657 331.304 219.809 331.424C219.961 331.544 220.061 331.719 220.087 331.91C220.113 332.102 220.065 332.297 219.951 332.454C215.291 338.346 198.644 347.877 193.862 348.655C193.822 348.661 193.781 348.664 193.74 348.664ZM204.72 378.181C204.53 378.181 204.348 378.11 204.209 377.981C204.07 377.852 203.985 377.675 203.971 377.486C203.957 377.297 204.015 377.11 204.134 376.962C204.252 376.814 204.422 376.717 204.61 376.689C209.342 375.982 228.941 361.531 231.867 355.8C231.912 355.712 231.973 355.634 232.048 355.57C232.123 355.506 232.21 355.458 232.304 355.428C232.397 355.397 232.496 355.386 232.594 355.393C232.693 355.401 232.788 355.428 232.876 355.473C232.964 355.518 233.042 355.579 233.106 355.654C233.17 355.729 233.218 355.816 233.248 355.91C233.279 356.003 233.29 356.102 233.283 356.2C233.275 356.299 233.248 356.394 233.203 356.482C230.064 362.631 209.915 377.414 204.832 378.173C204.795 378.178 204.757 378.181 204.72 378.181ZM216.166 402.083C215.981 402.083 215.803 402.014 215.666 401.891C215.529 401.768 215.442 401.598 215.422 401.414C215.402 401.231 215.45 401.047 215.557 400.896C215.665 400.746 215.824 400.641 216.004 400.601C220.24 399.66 246.158 381.864 250.707 372.92C250.752 372.832 250.813 372.754 250.888 372.69C250.963 372.626 251.049 372.577 251.143 372.547C251.236 372.516 251.335 372.504 251.433 372.512C251.531 372.52 251.627 372.546 251.715 372.591C251.803 372.636 251.881 372.697 251.945 372.772C252.009 372.847 252.058 372.933 252.088 373.027C252.119 373.12 252.131 373.219 252.123 373.317C252.115 373.415 252.089 373.511 252.044 373.599C247.315 382.896 221.091 401.006 216.33 402.064C216.276 402.077 216.221 402.083 216.166 402.083ZM351.47 298.688C346.865 298.688 342.454 298.201 340.137 297.521C339.948 297.463 339.79 297.333 339.697 297.159C339.603 296.985 339.582 296.782 339.638 296.593C339.693 296.403 339.822 296.244 339.994 296.148C340.167 296.052 340.37 296.029 340.56 296.082C345.292 297.473 358.902 297.935 364.149 295.203C364.325 295.119 364.526 295.106 364.711 295.167C364.896 295.229 365.049 295.36 365.139 295.533C365.229 295.706 365.248 295.907 365.193 296.093C365.137 296.28 365.011 296.438 364.841 296.533C361.832 298.099 356.533 298.688 351.47 298.688ZM359.45 330.188C349.61 330.188 336.794 325.899 333.501 324.239C333.325 324.149 333.191 323.992 333.13 323.804C333.069 323.616 333.084 323.411 333.173 323.234C333.262 323.058 333.417 322.923 333.605 322.86C333.793 322.797 333.997 322.811 334.175 322.899C337.825 324.739 353.469 329.902 363.132 328.436C363.328 328.407 363.527 328.458 363.687 328.576C363.846 328.694 363.952 328.87 363.981 329.066C364.011 329.262 363.962 329.461 363.845 329.621C363.728 329.781 363.553 329.888 363.357 329.919C362.135 330.105 360.821 330.188 359.45 330.188ZM356.292 361.83H356.28C339.872 361.57 326.94 349.845 324.085 345.603C323.976 345.438 323.937 345.237 323.976 345.043C324.014 344.849 324.128 344.679 324.292 344.568C324.456 344.458 324.657 344.416 324.851 344.453C325.045 344.49 325.217 344.602 325.329 344.765C328.067 348.833 340.494 360.079 356.303 360.329C356.502 360.33 356.692 360.411 356.832 360.553C356.972 360.694 357.049 360.886 357.048 361.085C357.046 361.284 356.966 361.474 356.824 361.614C356.682 361.754 356.491 361.831 356.292 361.83ZM340.647 394.756C340.623 394.756 340.599 394.755 340.575 394.753C326.31 393.386 306.097 377.253 303.9 371.93C303.859 371.838 303.837 371.74 303.835 371.639C303.833 371.539 303.851 371.439 303.888 371.346C303.925 371.253 303.981 371.168 304.051 371.097C304.122 371.026 304.206 370.969 304.299 370.931C304.391 370.893 304.491 370.873 304.591 370.874C304.691 370.875 304.791 370.896 304.883 370.936C304.975 370.976 305.058 371.034 305.127 371.106C305.196 371.179 305.25 371.264 305.286 371.358C307.333 376.318 327.211 391.966 340.717 393.26C340.908 393.28 341.083 393.372 341.208 393.517C341.333 393.662 341.398 393.85 341.389 394.041C341.38 394.232 341.298 394.413 341.16 394.546C341.022 394.679 340.839 394.754 340.647 394.756ZM258.125 406.785C237.585 406.785 221.043 405.713 217.218 404.577C217.027 404.52 216.867 404.39 216.772 404.215C216.677 404.04 216.655 403.835 216.712 403.644C216.769 403.453 216.899 403.293 217.074 403.198C217.249 403.103 217.454 403.081 217.645 403.138C226.342 405.719 301.447 407.949 338.551 397.776C338.646 397.749 338.745 397.742 338.843 397.754C338.941 397.766 339.035 397.797 339.121 397.846C339.207 397.895 339.282 397.96 339.342 398.038C339.402 398.116 339.446 398.206 339.472 398.301C339.498 398.396 339.505 398.495 339.493 398.593C339.481 398.69 339.449 398.785 339.4 398.87C339.352 398.956 339.286 399.031 339.209 399.091C339.131 399.152 339.042 399.196 338.947 399.222C317.908 404.992 284.678 406.785 258.125 406.785ZM229.787 442.403C229.62 442.403 229.457 442.348 229.325 442.246C229.193 442.143 229.099 442 229.058 441.838C229.017 441.676 229.031 441.505 229.098 441.352C229.166 441.199 229.282 441.072 229.429 440.993C243.506 433.357 283.241 419.28 332.867 420.674C333.281 420.685 333.607 421.03 333.596 421.445C333.585 421.86 333.247 422.215 332.825 422.174C283.516 420.801 244.098 434.743 230.143 442.313C230.034 442.372 229.911 442.403 229.787 442.403ZM237.898 468.515C237.74 468.515 237.587 468.466 237.459 468.374C237.331 468.282 237.235 468.153 237.185 468.003C237.135 467.854 237.133 467.692 237.18 467.542C237.227 467.391 237.32 467.26 237.446 467.165C260.466 449.845 291.969 440.734 331.08 440.086C331.179 440.084 331.277 440.101 331.369 440.137C331.461 440.173 331.545 440.227 331.616 440.295C331.687 440.364 331.743 440.446 331.782 440.537C331.821 440.628 331.841 440.725 331.842 440.824C331.844 440.922 331.826 441.02 331.789 441.112C331.753 441.204 331.699 441.287 331.631 441.358C331.562 441.429 331.48 441.485 331.39 441.524C331.3 441.563 331.202 441.584 331.104 441.586C292.317 442.229 261.109 451.238 238.347 468.364C238.218 468.462 238.06 468.515 237.898 468.515ZM247.966 493.599C247.822 493.599 247.681 493.557 247.56 493.479C247.439 493.401 247.344 493.29 247.284 493.159C247.224 493.028 247.204 492.883 247.224 492.741C247.245 492.598 247.306 492.465 247.4 492.356C250.216 489.116 293.728 459.867 331.341 455.736C331.753 455.674 332.123 455.988 332.169 456.399C332.191 456.597 332.133 456.795 332.008 456.95C331.884 457.105 331.703 457.204 331.505 457.226C296.072 461.118 252.012 489.336 248.532 493.34C248.462 493.422 248.375 493.487 248.277 493.532C248.18 493.577 248.073 493.599 247.966 493.599Z" fill="#FFA2BA"/>
<path d="M365.369 317.165C351.077 327.493 358.663 344.99 360.984 348.604C362.536 343.812 363.773 338.994 364.501 334.25C365.181 329.808 365.422 323.88 365.369 317.165Z" fill="url(#paint61_linear_384_1619)"/>
<path d="M186.807 319.583C187.643 324.112 188.584 328.653 189.666 333.167C190.841 338.072 192.222 343.003 193.746 347.909C205.827 337.332 197.337 320.512 186.807 319.583Z" fill="url(#paint62_linear_384_1619)"/>
<path d="M389.418 496.496C389.418 496.496 321 527.666 328.5 532.333C336 537 356.087 543.122 372.333 548.833C390.699 555.289 407.5 563.333 407.5 563.333C407.5 563.333 395.625 574.875 384.167 588.5C383.185 589.673 382.224 590.864 381.286 592.073C385.207 597.702 395.086 607.389 409.577 610.77C427.003 598.801 456.497 577.49 458.25 559.749C460.647 535.489 394.808 498.879 389.418 496.496Z" fill="url(#paint63_linear_384_1619)"/>
<path d="M449.393 540.119C445.154 545.939 439.573 561.913 450.949 575.438C455.012 570.118 457.753 564.79 458.251 559.75C458.845 553.729 455.235 546.949 449.393 540.119Z" fill="url(#paint64_linear_384_1619)"/>
<path d="M381.286 592.073C371.325 604.867 358.208 625.743 357.602 627.864C356.935 630.197 358.167 637.333 360.333 642.667C362.499 648.001 374.5 664.375 376.666 662.333C379.588 659.58 376.166 639.167 377.333 635.333C378.5 631.499 387.75 626 400.5 617C402.729 615.426 405.884 613.308 409.577 610.771C395.086 607.39 385.207 597.702 381.286 592.073Z" fill="url(#paint65_linear_384_1619)"/>
<path d="M415.27 607.563C415.227 607.563 415.185 607.56 415.143 607.552C405.171 605.851 387.913 592.36 384.532 587.804C384.422 587.644 384.378 587.447 384.41 587.255C384.442 587.063 384.547 586.892 384.703 586.776C384.859 586.66 385.054 586.609 385.247 586.634C385.44 586.659 385.615 586.757 385.737 586.909C388.673 590.866 405.673 604.415 415.395 606.073C415.581 606.104 415.749 606.203 415.865 606.352C415.98 606.501 416.036 606.688 416.02 606.876C416.005 607.064 415.919 607.239 415.78 607.366C415.64 607.494 415.459 607.564 415.27 607.563Z" fill="#6022B6"/>
<path d="M396.315 597.841C396.162 597.841 396.013 597.794 395.888 597.707C395.762 597.62 395.666 597.497 395.613 597.354C395.559 597.211 395.551 597.056 395.588 596.908C395.625 596.76 395.707 596.626 395.822 596.526C396.064 596.314 420.083 575.176 420.083 561.834C420.083 544.575 358.796 524.166 343.626 520.039C343.528 520.015 343.437 519.973 343.356 519.913C343.276 519.853 343.208 519.778 343.157 519.692C343.106 519.606 343.072 519.51 343.059 519.411C343.046 519.311 343.052 519.21 343.078 519.114C343.105 519.017 343.15 518.926 343.212 518.847C343.274 518.769 343.351 518.703 343.439 518.654C343.526 518.606 343.623 518.575 343.722 518.564C343.822 518.554 343.923 518.563 344.019 518.592C344.795 518.803 421.582 540.645 421.582 561.834C421.582 575.855 397.819 596.772 396.808 597.655C396.672 597.775 396.496 597.842 396.315 597.841Z" fill="#6022B6"/>
<path d="M361.025 621.743C359.061 624.959 357.781 627.236 357.602 627.864C357.186 629.321 357.51 632.649 358.339 636.243C363.514 632.408 362.432 625.509 361.025 621.743Z" fill="url(#paint66_linear_384_1619)"/>
<path d="M360.75 645.5C362.25 644.75 377.214 642.08 379.833 644.917C380.898 646.07 380.333 663.833 377.5 665.167C375.027 666.331 367.518 657.962 365.706 655.391C363.894 652.82 360.75 645.5 360.75 645.5Z" fill="url(#paint67_linear_384_1619)"/>
<path d="M375.998 666.625C375.668 666.625 375.333 666.544 375.024 666.371C356.724 656.147 352.555 629.041 352.518 628.77C352.46 628.251 352.607 627.731 352.928 627.319C353.249 626.908 353.718 626.638 354.235 626.567C354.752 626.497 355.276 626.631 355.696 626.941C356.115 627.252 356.396 627.714 356.48 628.229C356.515 628.48 360.638 653.752 376.974 662.878C377.361 663.094 377.665 663.432 377.839 663.839C378.014 664.247 378.047 664.7 377.936 665.129C377.824 665.558 377.573 665.938 377.222 666.208C376.872 666.479 376.441 666.626 375.998 666.625Z" fill="url(#paint68_linear_384_1619)"/>
<path d="M489.839 476.453C471.083 457.733 444.742 437.321 416.25 436.75C378.834 436 341.333 458.5 332 462.5C299.335 481.666 270.42 503.831 268.886 525.979C278.7 536.048 291.412 542.894 308.333 542.333C363.667 540.5 381 492 420.166 491.667C435.787 491.534 451.306 497.401 465.025 504.441C470.413 500.352 482.644 486.421 489.839 476.453Z" fill="url(#paint69_linear_384_1619)"/>
<path d="M307.122 525.019C287.363 525.019 275.079 512.53 273.619 510.965C273.552 510.893 273.499 510.808 273.465 510.716C273.43 510.624 273.414 510.526 273.418 510.427C273.421 510.329 273.444 510.232 273.485 510.142C273.525 510.052 273.584 509.972 273.656 509.904C273.728 509.837 273.812 509.785 273.904 509.75C273.997 509.716 274.095 509.7 274.193 509.703C274.292 509.706 274.389 509.729 274.478 509.77C274.568 509.811 274.649 509.869 274.716 509.941C276.276 511.612 290.613 526.183 313.401 523.09C325.188 521.492 336.805 513.614 350.257 504.493C368.71 491.981 389.625 477.8 416.802 476.583C450.17 475.085 471.574 490.907 471.786 491.067C471.868 491.125 471.937 491.199 471.99 491.284C472.042 491.37 472.077 491.465 472.093 491.564C472.108 491.663 472.103 491.764 472.079 491.861C472.054 491.958 472.011 492.05 471.95 492.13C471.89 492.21 471.814 492.277 471.727 492.327C471.64 492.377 471.544 492.41 471.445 492.422C471.345 492.435 471.244 492.427 471.148 492.4C471.051 492.373 470.961 492.327 470.883 492.264C470.674 492.108 449.678 476.619 416.867 478.08C390.113 479.278 369.385 493.333 351.097 505.734C337.489 514.961 325.736 522.929 313.6 524.575C311.453 524.87 309.289 525.018 307.122 525.019Z" fill="#00E2EC"/>
<path d="M293.554 522.945C293.392 522.945 293.235 522.893 293.105 522.796C292.975 522.699 292.88 522.563 292.834 522.408C292.788 522.253 292.794 522.087 292.85 521.935C292.906 521.784 293.009 521.654 293.145 521.566C295.136 520.271 296.404 517.003 296.812 512.114C297.575 502.977 295.064 491.058 293.174 489.32C293.102 489.253 293.043 489.173 293.001 489.083C292.96 488.994 292.937 488.897 292.932 488.799C292.928 488.7 292.944 488.602 292.978 488.51C293.011 488.417 293.063 488.332 293.13 488.26C293.197 488.187 293.277 488.129 293.366 488.087C293.456 488.046 293.552 488.022 293.651 488.018C293.749 488.014 293.848 488.029 293.94 488.063C294.033 488.097 294.117 488.149 294.19 488.216C296.568 490.403 299.086 502.915 298.308 512.238C297.853 517.682 296.391 521.244 293.964 522.823C293.842 522.902 293.7 522.945 293.554 522.945Z" fill="#00E2EC"/>
<path d="M545.167 508.167C543.501 506.167 523.125 509.75 517.75 507.25C515.704 506.299 505.372 491.956 489.839 476.453C482.644 486.421 470.413 500.351 465.026 504.441C485.1 514.742 501.323 527.552 508.38 527.756C521.125 528.125 546.833 510.167 545.167 508.167Z" fill="url(#paint70_linear_384_1619)"/>
<path d="M460.358 502.882C460.192 502.882 460.031 502.828 459.9 502.727C459.768 502.625 459.674 502.484 459.632 502.323C459.589 502.163 459.601 501.993 459.666 501.84C459.73 501.688 459.844 501.561 459.988 501.479C463.356 499.576 480.466 482.75 484.505 471.697C484.539 471.605 484.591 471.52 484.657 471.447C484.724 471.375 484.804 471.316 484.894 471.275C484.983 471.233 485.08 471.21 485.178 471.206C485.276 471.202 485.375 471.217 485.467 471.251C485.56 471.285 485.644 471.337 485.717 471.403C485.789 471.47 485.848 471.55 485.89 471.64C485.931 471.729 485.954 471.826 485.958 471.924C485.962 472.022 485.947 472.121 485.913 472.213C481.681 483.798 464.302 500.765 460.726 502.786C460.614 502.849 460.487 502.882 460.358 502.882Z" fill="#00E2EC"/>
<path d="M420 451.333C429.569 451.22 436.41 445.268 439.783 441.51C432.193 438.662 424.307 436.911 416.25 436.75C409.501 436.615 402.751 437.244 396.162 438.377C399.746 443.945 408.221 451.473 420 451.333Z" fill="url(#paint71_linear_384_1619)"/>
<path d="M510.166 521.5C505.843 521.31 502.806 523.603 501.592 525.544C504.355 526.893 506.645 527.707 508.379 527.757C510.937 527.831 514.02 527.158 517.296 526.033C516.269 524.15 514.17 521.677 510.166 521.5Z" fill="url(#paint72_linear_384_1619)"/>
<path d="M534.75 502.375C532.602 503.055 528.65 515.072 535.2 524.224C537.06 522.434 543.882 515.587 545.901 513.26C547.92 510.933 554.875 501.375 555.369 500.546C555.863 499.717 543.438 499.625 534.75 502.375Z" fill="url(#paint73_linear_384_1619)"/>
<path d="M519.752 539.75C519.328 539.751 518.914 539.617 518.571 539.368C518.228 539.118 517.973 538.766 517.843 538.362C517.713 537.958 517.716 537.523 517.85 537.12C517.984 536.718 518.242 536.368 518.588 536.122C520.506 534.752 544.931 514.559 552.765 500.881C552.892 500.647 553.065 500.442 553.273 500.276C553.481 500.11 553.72 499.987 553.977 499.914C554.233 499.842 554.501 499.821 554.765 499.854C555.029 499.886 555.284 499.971 555.515 500.103C555.746 500.236 555.948 500.413 556.11 500.624C556.271 500.836 556.389 501.077 556.456 501.335C556.523 501.593 556.538 501.861 556.5 502.124C556.462 502.388 556.372 502.641 556.235 502.869C547.925 517.378 522.976 537.903 520.912 539.378C520.574 539.62 520.168 539.75 519.752 539.75Z" fill="url(#paint74_linear_384_1619)"/>
<path d="M350.34 591.877L350.423 591.849C350.741 591.712 350.993 591.458 351.127 591.139C351.262 590.82 351.267 590.461 351.143 590.139C351.018 589.816 350.773 589.554 350.46 589.407C350.146 589.261 349.788 589.242 349.461 589.354C346.372 590.535 343.005 591.62 338.546 592.872C335.216 593.779 331.66 594.602 327.349 595.466C320.322 596.877 312.868 597.881 304.561 598.533C298.76 598.961 292.946 599.177 287.13 599.181C277.422 599.181 267.884 598.551 258.782 597.31C250.567 596.184 243.336 594.646 236.676 592.605C232.729 591.391 229.38 590.087 226.437 588.618C224.742 587.769 223.214 586.875 221.895 585.959C221.549 585.718 221.208 585.47 220.873 585.213L220.415 584.851L219.904 584.429C219.23 583.867 218.575 583.283 217.94 582.677C215.259 580.112 213.298 577.405 212.112 574.63C210.867 571.764 210.422 568.615 210.822 565.517C211.194 562.56 212.378 559.474 214.246 556.594C215.126 555.221 216.144 553.941 217.285 552.776C218.235 551.806 219.633 550.633 220.61 550.205L220.709 550.16C221.216 549.924 221.672 549.59 222.049 549.177C222.427 548.764 222.718 548.28 222.907 547.753C223.099 547.227 223.184 546.669 223.159 546.11C223.133 545.551 222.997 545.003 222.758 544.497C222.412 543.765 221.866 543.146 221.183 542.712C220.5 542.278 219.708 542.047 218.899 542.045C218.274 542.045 217.667 542.181 217.095 542.449C214.433 543.697 212.78 545.22 211.183 546.802C209.635 548.389 208.255 550.133 207.066 552.004C204.552 555.977 203.033 560.203 202.555 564.562C202.299 566.853 202.366 569.169 202.753 571.442C203.151 573.699 203.853 575.891 204.84 577.96C206.589 581.645 209.268 585.112 212.802 588.267C213.586 588.965 214.394 589.635 215.224 590.277L215.854 590.75L216.547 591.243C216.988 591.545 217.434 591.835 217.893 592.12C219.572 593.158 221.398 594.104 223.473 595.012C226.886 596.496 230.536 597.706 234.958 598.822C241.741 600.501 249.15 601.599 258.273 602.278C263.215 602.643 268.364 602.82 274.012 602.82C276.45 602.82 278.934 602.788 281.606 602.72C288.85 602.557 296.438 602.033 304.804 601.121C321.874 599.232 336.77 596.21 350.34 591.877Z" fill="url(#paint75_linear_384_1619)"/>
<path d="M396.367 684.959C402.516 682.938 407.906 680.472 412.846 677.416C418.873 673.634 423.331 669.33 426.468 664.265C430.175 658.291 431.818 650.835 430.863 644.32C430.59 642.563 430.132 640.839 429.498 639.178C428.848 637.437 428.002 635.776 426.976 634.227C425.785 632.468 424.471 631.02 422.968 629.811C422.122 629.131 421.211 628.536 420.249 628.033C419.471 627.628 418.658 627.294 417.819 627.036L417.554 626.955L417.44 626.926L417.191 626.864C416.75 626.756 416.299 626.701 415.845 626.701C413.452 626.701 411.305 628.202 410.501 630.435C409.995 631.846 410.07 633.399 410.708 634.755C411.347 636.11 412.497 637.157 413.906 637.666L414.164 637.76C414.293 637.805 414.458 637.864 414.613 638.008C414.694 638.054 414.772 638.102 414.852 638.156C415.123 638.318 415.376 638.521 415.643 638.736L415.655 638.745L415.699 638.781C416.373 639.364 416.973 640.026 417.487 640.754C418.573 642.209 419.534 644.217 420.254 646.54C421.048 648.996 421.432 651.296 421.392 653.364C421.365 653.982 421.331 654.564 421.223 655.158C421.176 655.43 421.123 655.713 421.062 655.992L420.972 656.374L420.965 656.402L420.957 656.429L420.81 656.926C420.461 658.099 420.016 659.241 419.48 660.34C417.463 664.532 413.934 668.653 409.274 672.253C405.353 675.317 400.59 678.016 394.717 680.498C384.934 684.529 373.713 687.17 361.357 688.351C356.583 688.796 351.714 689.023 346.883 689.023C340.182 689.023 333.404 688.589 326.736 687.736C326.609 687.72 326.48 687.728 326.357 687.762C326.233 687.795 326.117 687.853 326.016 687.931C325.915 688.01 325.831 688.108 325.768 688.219C325.705 688.33 325.664 688.453 325.649 688.58C325.633 688.707 325.642 688.835 325.676 688.958C325.71 689.081 325.768 689.195 325.846 689.296C325.925 689.396 326.022 689.48 326.133 689.543C326.244 689.605 326.366 689.645 326.493 689.66C335.379 690.745 344.009 691.296 352.141 691.296C355.31 691.296 358.476 691.213 361.552 691.049C367.913 690.708 373.65 690.092 379.09 689.166C385.188 688.157 390.999 686.742 396.367 684.959Z" fill="url(#paint76_linear_384_1619)"/>
<path d="M447.629 652.283C447.506 652.284 447.388 652.33 447.298 652.414C447.208 652.497 447.152 652.612 447.142 652.734C446.987 654.651 446.635 656.546 446.09 658.39C445.598 660.037 444.905 661.746 443.971 663.614C442.414 666.683 440.199 669.716 437.381 672.63C434.744 675.327 431.843 677.619 428.754 679.445C427.196 680.361 425.582 681.13 424.068 681.825C423.221 682.203 422.4 682.545 421.778 682.8L420.66 683.234L420.194 683.42C420.069 683.475 419.941 683.523 419.811 683.563L419.478 683.675C418.846 683.893 418.3 684.306 417.918 684.854C417.535 685.403 417.336 686.058 417.35 686.726C417.367 687.544 417.704 688.322 418.289 688.893C418.875 689.464 419.661 689.781 420.479 689.777L420.564 689.775L420.937 689.765C421.04 689.765 421.138 689.76 421.26 689.743L421.268 689.742L421.325 689.735C421.627 689.699 421.913 689.665 422.168 689.62C422.722 689.53 423.271 689.411 423.813 689.264C424.876 688.977 425.914 688.602 426.915 688.143C428.652 687.369 430.34 686.333 432.392 684.781C435.743 682.231 438.709 679.213 441.201 675.819C443.712 672.409 445.633 668.703 446.913 664.805C448.231 660.729 448.649 656.544 448.119 652.709C448.103 652.599 448.05 652.497 447.969 652.42C447.888 652.344 447.783 652.297 447.672 652.287L447.651 651.79L447.63 651.785V652.283H447.629Z" fill="url(#paint77_linear_384_1619)"/>
<path d="M583.376 516.53C582.402 516.533 581.468 516.919 580.777 517.605C580.085 518.291 579.692 519.222 579.681 520.196C579.662 522.498 579.247 525.174 578.411 528.377C577.674 531.168 576.728 533.9 575.582 536.549C573.221 542.012 570.258 547.114 566.777 551.718C563.192 556.45 559.098 560.774 554.57 564.613C549.66 568.804 544.539 572.015 539.351 574.153C539.335 574.159 539.31 574.172 539.288 574.183C539.219 574.221 539.158 574.273 539.109 574.335C539.06 574.397 539.023 574.468 539.002 574.544C538.98 574.62 538.974 574.7 538.983 574.778C538.993 574.857 539.017 574.932 539.056 575.001C539.134 575.14 539.264 575.242 539.417 575.286C539.571 575.329 539.735 575.31 539.874 575.232C545.537 572.064 550.619 569.167 555.474 565.784C560.478 562.287 565.083 558.25 569.206 553.747C573.577 548.948 577.256 543.928 580.136 538.828C581.828 535.812 583.178 533.042 584.259 530.361C585.68 526.79 586.526 523.896 586.999 520.984L587.031 520.793C587.111 520.269 587.078 519.733 586.933 519.223C586.789 518.712 586.536 518.239 586.192 517.835C585.849 517.43 585.422 517.105 584.941 516.88C584.461 516.655 583.938 516.536 583.407 516.531L583.391 516.033L583.374 516.031V516.53H583.376Z" fill="url(#paint78_linear_384_1619)"/>
<path d="M198.056 422.94L198.111 422.907C198.297 422.787 198.439 422.61 198.516 422.402C198.593 422.195 198.6 421.968 198.538 421.756C198.476 421.543 198.346 421.357 198.169 421.224C197.992 421.091 197.777 421.019 197.556 421.018C197.36 421.018 197.168 421.075 197.002 421.182C194.502 422.793 191.897 424.322 189.377 425.801C188.502 426.315 187.625 426.829 186.749 427.349C182.705 429.711 179.503 431.801 176.665 433.932C173.394 436.456 170.228 439.037 167.566 442.749C166.046 444.918 165.046 447.06 164.517 449.288C163.805 452.14 164.136 455.219 164.396 456.802L164.453 457.156C164.504 457.455 164.591 457.76 164.709 458.056C165.038 458.887 165.609 459.599 166.349 460.1C167.088 460.6 167.962 460.867 168.855 460.864C169.584 460.862 170.302 460.683 170.945 460.34C171.589 459.997 172.139 459.503 172.548 458.899C172.956 458.295 173.211 457.6 173.289 456.875C173.368 456.15 173.268 455.417 172.998 454.74C172.414 453.281 172.051 452.079 172.045 450.6C172.032 449.249 172.414 447.702 173.149 446.129C174.432 443.375 176.615 440.416 179.638 437.334C182.04 434.868 184.864 432.331 188.268 429.581C191.671 426.886 194.87 424.716 198.056 422.94Z" fill="url(#paint79_linear_384_1619)"/>
<path d="M608.679 512.469C608.316 512.031 607.913 511.826 607.413 511.826C607.297 511.826 607.174 511.838 607.048 511.86C605.016 512.216 604.902 514.369 605.133 518.857C605.225 520.649 605.321 522.503 605.118 524.24C604.775 527.187 603.331 529.464 602.276 531.125C601.702 532.03 600.989 533.153 601.198 533.408L601.205 533.407C601.217 533.407 601.245 533.411 601.288 533.411C603.056 533.411 608.253 528.824 609.392 522.813C610.281 518.127 610.001 514.066 608.679 512.469Z" fill="url(#paint80_linear_384_1619)"/>
<path d="M484.352 546.361C483.696 545.451 482.834 545.008 481.717 545.008C481.529 545.008 481.332 545.022 481.131 545.047C478.018 545.443 478.179 549.003 478.697 554.777C478.917 557.218 479.144 559.742 478.96 562.061C478.65 565.957 476.846 569.045 475.527 571.3C474.417 573.199 473.761 574.388 474.267 574.858C474.305 574.895 474.35 574.924 474.4 574.943C474.45 574.962 474.504 574.97 474.557 574.967C476.419 574.967 481.089 569.403 483.885 561.016C486.037 554.563 486.216 548.947 484.352 546.361Z" fill="url(#paint81_linear_384_1619)"/>
<path d="M188.67 407.407C188.672 406.555 188.436 405.886 187.967 405.415C187.342 404.789 186.266 404.457 184.854 404.457C181.552 404.457 176.956 406.231 172.559 409.204C166.967 412.984 163.122 416.443 161.335 418.467L161.547 418.341C163.938 416.92 167.55 414.772 171.993 413.595C174.523 412.925 177.116 412.555 179.402 412.23C185.314 411.387 188.66 410.748 188.67 407.407Z" fill="url(#paint82_linear_384_1619)"/>
<path d="M263.309 575.454C262.491 574.391 260.391 573.66 257.69 573.498C257.27 573.473 256.767 573.461 256.199 573.446C252.372 573.351 245.966 573.193 241.34 569.126C235.545 564.031 235.016 558.611 234.762 556.007C234.746 555.846 234.729 555.671 234.711 555.507C234.587 555.645 234.484 555.801 234.404 555.969C233.114 558.544 233.92 566.001 237.676 571.027C240.759 575.151 247.016 579.449 254.043 579.752C254.886 579.788 255.634 579.806 256.33 579.806C262.282 579.806 263.366 578.41 263.641 577.045C263.767 576.418 263.662 575.912 263.309 575.454Z" fill="url(#paint83_linear_384_1619)"/>
<defs>
<linearGradient id="paint0_linear_384_1619" x1="381.541" y1="805.291" x2="381.541" y2="77.1489" gradientUnits="userSpaceOnUse">
<stop stop-color="#C7A0F6"/>
<stop offset="1" stop-color="#8CE6FD"/>
</linearGradient>
<linearGradient id="paint1_linear_384_1619" x1="78.0821" y1="329.125" x2="153.5" y2="329.125" gradientUnits="userSpaceOnUse">
<stop stop-color="#B0E1FF"/>
<stop offset="1" stop-color="white"/>
</linearGradient>
<linearGradient id="paint2_linear_384_1619" x1="88.981" y1="339.05" x2="145.75" y2="339.05" gradientUnits="userSpaceOnUse">
<stop stop-color="#00E2EC"/>
<stop offset="1" stop-color="#0090B2"/>
</linearGradient>
<linearGradient id="paint3_linear_384_1619" x1="345.019" y1="756.038" x2="345.019" y2="617.51" gradientUnits="userSpaceOnUse">
<stop stop-color="#6B49C0"/>
<stop offset="1" stop-color="#5E7ED9"/>
</linearGradient>
<linearGradient id="paint4_linear_384_1619" x1="405" y1="168.454" x2="411.333" y2="168.454" gradientUnits="userSpaceOnUse">
<stop stop-color="white"/>
<stop offset="1" stop-color="#B0E1FF"/>
</linearGradient>
<linearGradient id="paint5_linear_384_1619" x1="397.917" y1="106.5" x2="508.076" y2="106.5" gradientUnits="userSpaceOnUse">
<stop stop-color="white"/>
<stop offset="1" stop-color="#B0E1FF"/>
</linearGradient>
<linearGradient id="paint6_linear_384_1619" x1="397.917" y1="178.667" x2="522.616" y2="178.667" gradientUnits="userSpaceOnUse">
<stop stop-color="white"/>
<stop offset="1" stop-color="#B0E1FF"/>
</linearGradient>
<linearGradient id="paint7_linear_384_1619" x1="397.917" y1="260.084" x2="521.085" y2="260.084" gradientUnits="userSpaceOnUse">
<stop stop-color="white"/>
<stop offset="1" stop-color="#B0E1FF"/>
</linearGradient>
<linearGradient id="paint8_linear_384_1619" x1="78.0809" y1="329.125" x2="145.75" y2="329.125" gradientUnits="userSpaceOnUse">
<stop stop-color="#8C6AE2"/>
<stop offset="1" stop-color="#5A55F8"/>
</linearGradient>
<linearGradient id="paint9_linear_384_1619" x1="110.334" y1="344" x2="131.667" y2="344" gradientUnits="userSpaceOnUse">
<stop stop-color="#C07EB0"/>
<stop offset="1" stop-color="#EE5C95"/>
</linearGradient>
<linearGradient id="paint10_linear_384_1619" x1="120.094" y1="726.326" x2="204.839" y2="726.326" gradientUnits="userSpaceOnUse">
<stop stop-color="#C07EB0"/>
<stop offset="1" stop-color="#EE5C95"/>
</linearGradient>
<linearGradient id="paint11_linear_384_1619" x1="142.499" y1="666.164" x2="182.005" y2="705.671" gradientUnits="userSpaceOnUse">
<stop stop-color="#8173CC"/>
<stop offset="1" stop-color="#271068"/>
</linearGradient>
<linearGradient id="paint12_linear_384_1619" x1="143.874" y1="507.61" x2="164.183" y2="507.61" gradientUnits="userSpaceOnUse">
<stop stop-color="#FDE1A7"/>
<stop offset="1" stop-color="#F9A144"/>
</linearGradient>
<linearGradient id="paint13_linear_384_1619" x1="163.409" y1="651.422" x2="268.472" y2="651.422" gradientUnits="userSpaceOnUse">
<stop stop-color="#00E2EC"/>
<stop offset="1" stop-color="#0090B2"/>
</linearGradient>
<linearGradient id="paint14_linear_384_1619" x1="176.249" y1="667.232" x2="209.744" y2="667.232" gradientUnits="userSpaceOnUse">
<stop stop-color="#FDE1A7"/>
<stop offset="1" stop-color="#F9A144"/>
</linearGradient>
<linearGradient id="paint15_linear_384_1619" x1="102.84" y1="622.977" x2="150.668" y2="622.977" gradientUnits="userSpaceOnUse">
<stop stop-color="#5A55F8"/>
<stop offset="0.31" stop-color="#6E5EEF"/>
<stop offset="0.729" stop-color="#8467E5"/>
<stop offset="1" stop-color="#8C6AE2"/>
</linearGradient>
<linearGradient id="paint16_linear_384_1619" x1="152.008" y1="594.572" x2="201.063" y2="594.572" gradientUnits="userSpaceOnUse">
<stop stop-color="#5A55F8"/>
<stop offset="1" stop-color="#8C6AE2"/>
</linearGradient>
<linearGradient id="paint17_linear_384_1619" x1="115.242" y1="607.674" x2="199.276" y2="607.674" gradientUnits="userSpaceOnUse">
<stop stop-color="#FF57BD"/>
<stop offset="1" stop-color="#FE6A77"/>
</linearGradient>
<linearGradient id="paint18_linear_384_1619" x1="214.056" y1="653.639" x2="234.705" y2="653.639" gradientUnits="userSpaceOnUse">
<stop stop-color="#00E2EC"/>
<stop offset="1" stop-color="#0090B2"/>
</linearGradient>
<linearGradient id="paint19_linear_384_1619" x1="516.787" y1="443.75" x2="516.787" y2="413.5" gradientUnits="userSpaceOnUse">
<stop stop-color="white"/>
<stop offset="1" stop-color="#E9B6F2"/>
</linearGradient>
<linearGradient id="paint20_linear_384_1619" x1="416.333" y1="357" x2="611.333" y2="357" gradientUnits="userSpaceOnUse">
<stop stop-color="white"/>
<stop offset="1" stop-color="#F1D1F8"/>
</linearGradient>
<linearGradient id="paint21_linear_384_1619" x1="424" y1="354.667" x2="600.667" y2="354.667" gradientUnits="userSpaceOnUse">
<stop stop-color="#00E2EC"/>
<stop offset="1" stop-color="#0090B2"/>
</linearGradient>
<linearGradient id="paint22_linear_384_1619" x1="483.46" y1="324.009" x2="590.462" y2="324.009" gradientUnits="userSpaceOnUse">
<stop stop-color="#FDE1A7"/>
<stop offset="1" stop-color="#F9A144"/>
</linearGradient>
<linearGradient id="paint23_linear_384_1619" x1="414.841" y1="354.594" x2="548.834" y2="354.594" gradientUnits="userSpaceOnUse">
<stop stop-color="#7523AF"/>
<stop offset="0.123" stop-color="#6D2EB2"/>
<stop offset="0.34" stop-color="#594CBA"/>
<stop offset="0.625" stop-color="#387CC7"/>
<stop offset="0.964" stop-color="#0ABED8"/>
<stop offset="1" stop-color="#05C5DA"/>
</linearGradient>
<linearGradient id="paint24_linear_384_1619" x1="538.731" y1="374.666" x2="538.731" y2="322.682" gradientUnits="userSpaceOnUse">
<stop stop-color="#170389"/>
<stop offset="0.422" stop-color="#3B0E9F"/>
<stop offset="0.777" stop-color="#5215AD"/>
<stop offset="1" stop-color="#5A18B2"/>
</linearGradient>
<linearGradient id="paint25_linear_384_1619" x1="397.322" y1="330.769" x2="428.08" y2="330.769" gradientUnits="userSpaceOnUse">
<stop stop-color="#170389"/>
<stop offset="0.077" stop-color="#1C058C"/>
<stop offset="1" stop-color="#5A18B2"/>
</linearGradient>
<linearGradient id="paint26_linear_384_1619" x1="468.232" y1="367.333" x2="510.514" y2="367.333" gradientUnits="userSpaceOnUse">
<stop stop-color="#170389"/>
<stop offset="0.077" stop-color="#1C058C"/>
<stop offset="1" stop-color="#5A18B2"/>
</linearGradient>
<linearGradient id="paint27_linear_384_1619" x1="390.493" y1="337.148" x2="413.751" y2="337.148" gradientUnits="userSpaceOnUse">
<stop stop-color="#170389"/>
<stop offset="0.077" stop-color="#1C058C"/>
<stop offset="1" stop-color="#5A18B2"/>
</linearGradient>
<linearGradient id="paint28_linear_384_1619" x1="399.999" y1="337" x2="413.751" y2="337" gradientUnits="userSpaceOnUse">
<stop stop-color="#F6E2FB"/>
<stop offset="1" stop-color="#FF9BBB"/>
</linearGradient>
<linearGradient id="paint29_linear_384_1619" x1="405.192" y1="306.96" x2="418.772" y2="306.96" gradientUnits="userSpaceOnUse">
<stop stop-color="#F6E2FB"/>
<stop offset="1" stop-color="#FF9BBB"/>
</linearGradient>
<linearGradient id="paint30_linear_384_1619" x1="401" y1="352.769" x2="444.231" y2="352.769" gradientUnits="userSpaceOnUse">
<stop stop-color="#FF9BBB"/>
<stop offset="1" stop-color="#F6E2FB"/>
</linearGradient>
<linearGradient id="paint31_linear_384_1619" x1="541.845" y1="356.131" x2="569.657" y2="383.943" gradientUnits="userSpaceOnUse">
<stop stop-color="#FDE1A7"/>
<stop offset="1" stop-color="#F9A144"/>
</linearGradient>
<linearGradient id="paint32_linear_384_1619" x1="540.678" y1="370.691" x2="568.406" y2="370.691" gradientUnits="userSpaceOnUse">
<stop stop-color="#C91C91"/>
<stop offset="1" stop-color="#FE6A77"/>
</linearGradient>
<linearGradient id="paint33_linear_384_1619" x1="633.334" y1="422.556" x2="657.5" y2="422.556" gradientUnits="userSpaceOnUse">
<stop stop-color="#FF57BD"/>
<stop offset="1" stop-color="#FE6A77"/>
</linearGradient>
<linearGradient id="paint34_linear_384_1619" x1="603.667" y1="424.975" x2="646.209" y2="424.975" gradientUnits="userSpaceOnUse">
<stop stop-color="#C07EB0"/>
<stop offset="1" stop-color="#EE5C95"/>
</linearGradient>
<linearGradient id="paint35_linear_384_1619" x1="616.33" y1="393.993" x2="633.595" y2="411.258" gradientUnits="userSpaceOnUse">
<stop stop-color="#994574"/>
<stop offset="1" stop-color="#43256F"/>
</linearGradient>
<linearGradient id="paint36_linear_384_1619" x1="617.332" y1="378.595" x2="652.422" y2="378.595" gradientUnits="userSpaceOnUse">
<stop stop-color="white"/>
<stop offset="1" stop-color="#FDE1A7"/>
</linearGradient>
<linearGradient id="paint37_linear_384_1619" x1="594.431" y1="362.156" x2="612.259" y2="362.156" gradientUnits="userSpaceOnUse">
<stop stop-color="white"/>
<stop offset="1" stop-color="#FDE1A7"/>
</linearGradient>
<linearGradient id="paint38_linear_384_1619" x1="588.776" y1="382.181" x2="603.459" y2="382.181" gradientUnits="userSpaceOnUse">
<stop stop-color="white"/>
<stop offset="1" stop-color="#FDE1A7"/>
</linearGradient>
<linearGradient id="paint39_linear_384_1619" x1="620.919" y1="477.167" x2="620.919" y2="450.334" gradientUnits="userSpaceOnUse">
<stop stop-color="#FFE2A8"/>
<stop offset="1" stop-color="#A482FF"/>
</linearGradient>
<linearGradient id="paint40_linear_384_1619" x1="442.292" y1="450.225" x2="712.334" y2="450.225" gradientUnits="userSpaceOnUse">
<stop stop-color="#F9A144"/>
<stop offset="1" stop-color="#FDE1A7"/>
</linearGradient>
<linearGradient id="paint41_linear_384_1619" x1="325.75" y1="659.518" x2="325.75" y2="568.875" gradientUnits="userSpaceOnUse">
<stop stop-color="#8173CC"/>
<stop offset="1" stop-color="#271068"/>
</linearGradient>
<linearGradient id="paint42_linear_384_1619" x1="186.523" y1="465.897" x2="272.941" y2="465.897" gradientUnits="userSpaceOnUse">
<stop stop-color="#994574"/>
<stop offset="1" stop-color="#43256F"/>
</linearGradient>
<linearGradient id="paint43_linear_384_1619" x1="186.201" y1="478.357" x2="248.974" y2="478.357" gradientUnits="userSpaceOnUse">
<stop stop-color="#8173CC"/>
<stop offset="1" stop-color="#271068"/>
</linearGradient>
<linearGradient id="paint44_linear_384_1619" x1="264.489" y1="549.36" x2="383.514" y2="549.36" gradientUnits="userSpaceOnUse">
<stop stop-color="#994574"/>
<stop offset="1" stop-color="#43256F"/>
</linearGradient>
<linearGradient id="paint45_linear_384_1619" x1="264.499" y1="558.793" x2="383.513" y2="558.793" gradientUnits="userSpaceOnUse">
<stop stop-color="#8173CC"/>
<stop offset="1" stop-color="#271068"/>
</linearGradient>
<linearGradient id="paint46_linear_384_1619" x1="242.606" y1="683.903" x2="365.674" y2="683.903" gradientUnits="userSpaceOnUse">
<stop stop-color="#271068"/>
<stop offset="1" stop-color="#8173CC"/>
</linearGradient>
<linearGradient id="paint47_linear_384_1619" x1="241.667" y1="713.333" x2="267" y2="713.333" gradientUnits="userSpaceOnUse">
<stop stop-color="#994574"/>
<stop offset="1" stop-color="#43256F"/>
</linearGradient>
<linearGradient id="paint48_linear_384_1619" x1="353.465" y1="672.649" x2="373.646" y2="672.649" gradientUnits="userSpaceOnUse">
<stop stop-color="#994574"/>
<stop offset="1" stop-color="#43256F"/>
</linearGradient>
<linearGradient id="paint49_linear_384_1619" x1="278.125" y1="387.303" x2="278.125" y2="333.707" gradientUnits="userSpaceOnUse">
<stop stop-color="#E8878E"/>
<stop offset="0.219" stop-color="#E58589"/>
<stop offset="0.469" stop-color="#DE7F7B"/>
<stop offset="0.735" stop-color="#D27565"/>
<stop offset="1" stop-color="#C16846"/>
</linearGradient>
<linearGradient id="paint50_linear_384_1619" x1="240.33" y1="311.932" x2="306.957" y2="311.932" gradientUnits="userSpaceOnUse">
<stop stop-color="#E8878E"/>
<stop offset="1" stop-color="#F4BEA3"/>
</linearGradient>
<linearGradient id="paint51_linear_384_1619" x1="217.472" y1="292.058" x2="299.776" y2="292.058" gradientUnits="userSpaceOnUse">
<stop stop-color="#994574"/>
<stop offset="1" stop-color="#43256F"/>
</linearGradient>
<linearGradient id="paint52_linear_384_1619" x1="264.259" y1="231.356" x2="264.259" y2="177.392" gradientUnits="userSpaceOnUse">
<stop stop-color="#FDE1A7"/>
<stop offset="1" stop-color="white"/>
</linearGradient>
<linearGradient id="paint53_linear_384_1619" x1="237.734" y1="235.786" x2="237.734" y2="199.847" gradientUnits="userSpaceOnUse">
<stop stop-color="#FDE1A7"/>
<stop offset="1" stop-color="white"/>
</linearGradient>
<linearGradient id="paint54_linear_384_1619" x1="288.283" y1="228.27" x2="288.283" y2="188.207" gradientUnits="userSpaceOnUse">
<stop stop-color="#FDE1A7"/>
<stop offset="1" stop-color="white"/>
</linearGradient>
<linearGradient id="paint55_linear_384_1619" x1="301.752" y1="231.556" x2="301.752" y2="213.894" gradientUnits="userSpaceOnUse">
<stop stop-color="#FDE1A7"/>
<stop offset="1" stop-color="white"/>
</linearGradient>
<linearGradient id="paint56_linear_384_1619" x1="253.338" y1="306.499" x2="301.838" y2="306.499" gradientUnits="userSpaceOnUse">
<stop stop-color="#5A55F8"/>
<stop offset="1" stop-color="#8C6AE2"/>
</linearGradient>
<linearGradient id="paint57_linear_384_1619" x1="282.934" y1="308.142" x2="300.516" y2="308.142" gradientUnits="userSpaceOnUse">
<stop stop-color="#FF57BD"/>
<stop offset="1" stop-color="#FE6A77"/>
</linearGradient>
<linearGradient id="paint58_linear_384_1619" x1="181.403" y1="231.352" x2="214.477" y2="231.352" gradientUnits="userSpaceOnUse">
<stop stop-color="#E8878E"/>
<stop offset="1" stop-color="#F4BEA3"/>
</linearGradient>
<linearGradient id="paint59_linear_384_1619" x1="327.646" y1="225.122" x2="361.386" y2="225.122" gradientUnits="userSpaceOnUse">
<stop stop-color="#E8878E"/>
<stop offset="1" stop-color="#F4BEA3"/>
</linearGradient>
<linearGradient id="paint60_linear_384_1619" x1="181.894" y1="393.247" x2="365.377" y2="393.247" gradientUnits="userSpaceOnUse">
<stop stop-color="#FE6A77"/>
<stop offset="1" stop-color="#C91C91"/>
</linearGradient>
<linearGradient id="paint61_linear_384_1619" x1="356.891" y1="332.885" x2="365.376" y2="332.885" gradientUnits="userSpaceOnUse">
<stop stop-color="#F9A144"/>
<stop offset="1" stop-color="#FDE1A7"/>
</linearGradient>
<linearGradient id="paint62_linear_384_1619" x1="189.333" y1="333.912" x2="199.321" y2="332.151" gradientUnits="userSpaceOnUse">
<stop stop-color="#FDE1A7"/>
<stop offset="1" stop-color="#F9A144"/>
</linearGradient>
<linearGradient id="paint63_linear_384_1619" x1="327.926" y1="553.633" x2="458.313" y2="553.633" gradientUnits="userSpaceOnUse">
<stop stop-color="#00E2EC"/>
<stop offset="0.3" stop-color="#20B5DF"/>
<stop offset="1" stop-color="#6A4EC2"/>
</linearGradient>
<linearGradient id="paint64_linear_384_1619" x1="444.222" y1="557.779" x2="458.313" y2="557.779" gradientUnits="userSpaceOnUse">
<stop stop-color="#5A18B2"/>
<stop offset="1" stop-color="#7A50C9"/>
</linearGradient>
<linearGradient id="paint65_linear_384_1619" x1="357.421" y1="627.291" x2="409.577" y2="627.291" gradientUnits="userSpaceOnUse">
<stop stop-color="#E8878E"/>
<stop offset="0.219" stop-color="#E58589"/>
<stop offset="0.469" stop-color="#DE7F7B"/>
<stop offset="0.735" stop-color="#D27565"/>
<stop offset="1" stop-color="#C16846"/>
</linearGradient>
<linearGradient id="paint66_linear_384_1619" x1="357.421" y1="628.993" x2="362.188" y2="628.993" gradientUnits="userSpaceOnUse">
<stop stop-color="#F4BEA3"/>
<stop offset="1" stop-color="#E8878E"/>
</linearGradient>
<linearGradient id="paint67_linear_384_1619" x1="360.75" y1="654.459" x2="380.335" y2="654.459" gradientUnits="userSpaceOnUse">
<stop stop-color="#FE6A77"/>
<stop offset="1" stop-color="#C91C91"/>
</linearGradient>
<linearGradient id="paint68_linear_384_1619" x1="352.5" y1="646.563" x2="378.001" y2="646.563" gradientUnits="userSpaceOnUse">
<stop stop-color="#994574"/>
<stop offset="1" stop-color="#43256F"/>
</linearGradient>
<linearGradient id="paint69_linear_384_1619" x1="268.886" y1="489.549" x2="489.839" y2="489.549" gradientUnits="userSpaceOnUse">
<stop stop-color="#05C5DA"/>
<stop offset="0.036" stop-color="#0ABED8"/>
<stop offset="0.375" stop-color="#387CC7"/>
<stop offset="0.66" stop-color="#594CBA"/>
<stop offset="0.877" stop-color="#6D2EB2"/>
<stop offset="1" stop-color="#7523AF"/>
</linearGradient>
<linearGradient id="paint70_linear_384_1619" x1="465.025" y1="502.107" x2="545.244" y2="502.107" gradientUnits="userSpaceOnUse">
<stop stop-color="#E8878E"/>
<stop offset="0.219" stop-color="#E58589"/>
<stop offset="0.469" stop-color="#DE7F7B"/>
<stop offset="0.735" stop-color="#D27565"/>
<stop offset="1" stop-color="#C16846"/>
</linearGradient>
<linearGradient id="paint71_linear_384_1619" x1="417.973" y1="451.335" x2="417.973" y2="436.732" gradientUnits="userSpaceOnUse">
<stop stop-color="#170389"/>
<stop offset="0.077" stop-color="#1C058C"/>
<stop offset="1" stop-color="#5A18B2"/>
</linearGradient>
<linearGradient id="paint72_linear_384_1619" x1="508.687" y1="521.493" x2="509.806" y2="527.84" gradientUnits="userSpaceOnUse">
<stop stop-color="#E8878E"/>
<stop offset="1" stop-color="#F4BEA3"/>
</linearGradient>
<linearGradient id="paint73_linear_384_1619" x1="531.592" y1="512.129" x2="555.384" y2="512.129" gradientUnits="userSpaceOnUse">
<stop stop-color="#FE6A77"/>
<stop offset="1" stop-color="#C91C91"/>
</linearGradient>
<linearGradient id="paint74_linear_384_1619" x1="517.75" y1="519.813" x2="556.5" y2="519.813" gradientUnits="userSpaceOnUse">
<stop stop-color="#43256F"/>
<stop offset="1" stop-color="#994574"/>
</linearGradient>
<linearGradient id="paint75_linear_384_1619" x1="237.327" y1="612.882" x2="305.718" y2="544.491" gradientUnits="userSpaceOnUse">
<stop stop-color="white"/>
<stop offset="1" stop-color="#FDE1A7"/>
</linearGradient>
<linearGradient id="paint76_linear_384_1619" x1="364.432" y1="649.507" x2="403.499" y2="688.574" gradientUnits="userSpaceOnUse">
<stop stop-color="#FDE1A7"/>
<stop offset="1" stop-color="white"/>
</linearGradient>
<linearGradient id="paint77_linear_384_1619" x1="417.35" y1="670.779" x2="448.341" y2="670.779" gradientUnits="userSpaceOnUse">
<stop stop-color="white"/>
<stop offset="1" stop-color="#FDE1A7"/>
</linearGradient>
<linearGradient id="paint78_linear_384_1619" x1="538.98" y1="545.67" x2="587.074" y2="545.67" gradientUnits="userSpaceOnUse">
<stop stop-color="white"/>
<stop offset="1" stop-color="#FDE1A7"/>
</linearGradient>
<linearGradient id="paint79_linear_384_1619" x1="164.085" y1="440.94" x2="198.582" y2="440.94" gradientUnits="userSpaceOnUse">
<stop stop-color="white"/>
<stop offset="0.453" stop-color="#FEEFD0"/>
<stop offset="0.802" stop-color="#FDE5B2"/>
<stop offset="1" stop-color="#FDE1A7"/>
</linearGradient>
<linearGradient id="paint80_linear_384_1619" x1="601.161" y1="522.619" x2="609.906" y2="522.619" gradientUnits="userSpaceOnUse">
<stop stop-color="white"/>
<stop offset="1" stop-color="#FDE1A7"/>
</linearGradient>
<linearGradient id="paint81_linear_384_1619" x1="474.094" y1="559.988" x2="485.634" y2="559.988" gradientUnits="userSpaceOnUse">
<stop stop-color="white"/>
<stop offset="1" stop-color="#FDE1A7"/>
</linearGradient>
<linearGradient id="paint82_linear_384_1619" x1="161.335" y1="411.462" x2="188.67" y2="411.462" gradientUnits="userSpaceOnUse">
<stop stop-color="white"/>
<stop offset="1" stop-color="#FDE1A7"/>
</linearGradient>
<linearGradient id="paint83_linear_384_1619" x1="233.831" y1="567.656" x2="263.692" y2="567.656" gradientUnits="userSpaceOnUse">
<stop stop-color="white"/>
<stop offset="1" stop-color="#FDE1A7"/>
</linearGradient>
</defs>
</svg>
